  0
SECTION
  2
HEADER
  9
$ACADVER
  1
AC1015
  9
$ACADMAINTVER
 70
    20
  9
$DWGCODEPAGE
  3
ANSI_1252
  9
$INSBASE
 10
0.0
 20
0.0
 30
0.0
  9
$EXTMIN
 10
-74.70833333333335
 20
-43.57116307867239
 30
0.0
  9
$EXTMAX
 10
197.5
 20
104.7083333333333
 30
0.0
  9
$LIMMIN
 10
-170.0
 20
-170.0
  9
$LIMMAX
 10
519.0
 20
260.0
  9
$ORTHOMODE
 70
     0
  9
$REGENMODE
 70
     1
  9
$FILLMODE
 70
     1
  9
$QTEXTMODE
 70
     0
  9
$MIRRTEXT
 70
     0
  9
$LTSCALE
 40
1.0
  9
$ATTMODE
 70
     1
  9
$TEXTSIZE
 40
3.5
  9
$TRACEWID
 40
1.0
  9
$TEXTSTYLE
  7
SIMPLEX
  9
$CLAYER
  8
1
  9
$CELTYPE
  6
BYLAYER
  9
$CECOLOR
 62
   256
  9
$CELTSCALE
 40
1.0
  9
$DISPSILH
 70
     0
  9
$DIMSCALE
 40
1.0
  9
$DIMASZ
 40
2.5
  9
$DIMEXO
 40
0.0
  9
$DIMDLI
 40
3.75
  9
$DIMRND
 40
0.0
  9
$DIMDLE
 40
0.0
  9
$DIMEXE
 40
1.25
  9
$DIMTP
 40
0.0
  9
$DIMTM
 40
0.0
  9
$DIMTXT
 40
3.5
  9
$DIMCEN
 40
0.0
  9
$DIMTSZ
 40
0.0
  9
$DIMTOL
 70
     0
  9
$DIMLIM
 70
     0
  9
$DIMTIH
 70
     0
  9
$DIMTOH
 70
     0
  9
$DIMSE1
 70
     0
  9
$DIMSE2
 70
     0
  9
$DIMTAD
 70
     1
  9
$DIMZIN
 70
     8
  9
$DIMBLK
  1

  9
$DIMASO
 70
     1
  9
$DIMSHO
 70
     1
  9
$DIMPOST
  1

  9
$DIMAPOST
  1

  9
$DIMALT
 70
     0
  9
$DIMALTD
 70
     3
  9
$DIMALTF
 40
0.039370078
  9
$DIMLFAC
 40
1.0
  9
$DIMTOFL
 70
     0
  9
$DIMTVP
 40
0.0
  9
$DIMTIX
 70
     0
  9
$DIMSOXD
 70
     0
  9
$DIMSAH
 70
     0
  9
$DIMBLK1
  1

  9
$DIMBLK2
  1

  9
$DIMSTYLE
  2
STANDARD
  9
$DIMCLRD
 70
     0
  9
$DIMCLRE
 70
     0
  9
$DIMCLRT
 70
     0
  9
$DIMTFAC
 40
1.0
  9
$DIMGAP
 40
0.625
  9
$DIMJUST
 70
     0
  9
$DIMSD1
 70
     0
  9
$DIMSD2
 70
     0
  9
$DIMTOLJ
 70
     0
  9
$DIMTZIN
 70
     8
  9
$DIMALTZ
 70
     0
  9
$DIMALTTZ
 70
     0
  9
$DIMUPT
 70
     0
  9
$DIMDEC
 70
     2
  9
$DIMTDEC
 70
     2
  9
$DIMALTU
 70
     2
  9
$DIMALTTD
 70
     3
  9
$DIMTXSTY
  7
SIMPLEX
  9
$DIMAUNIT
 70
     0
  9
$DIMADEC
 70
     2
  9
$DIMALTRND
 40
0.0
  9
$DIMAZIN
 70
     2
  9
$DIMDSEP
 70
    46
  9
$DIMATFIT
 70
     3
  9
$DIMFRAC
 70
     0
  9
$DIMLDRBLK
  1

  9
$DIMLUNIT
 70
     2
  9
$DIMLWD
 70
    -2
  9
$DIMLWE
 70
    -2
  9
$DIMTMOVE
 70
     0
  9
$LUNITS
 70
     2
  9
$LUPREC
 70
     4
  9
$SKETCHINC
 40
1.0
  9
$FILLETRAD
 40
0.0
  9
$AUNITS
 70
     0
  9
$AUPREC
 70
     0
  9
$MENU
  1
c:\tdm21\cad\caduti13\tdm13
  9
$ELEVATION
 40
0.0
  9
$PELEVATION
 40
0.0
  9
$THICKNESS
 40
0.0
  9
$LIMCHECK
 70
     0
  9
$CHAMFERA
 40
0.0
  9
$CHAMFERB
 40
0.0
  9
$CHAMFERC
 40
0.0
  9
$CHAMFERD
 40
0.0
  9
$SKPOLY
 70
     0
  9
$TDCREATE
 40
2455594.678859445
  9
$TDUCREATE
 40
2455594.637192778
  9
$TDUPDATE
 40
2455594.678859445
  9
$TDUUPDATE
 40
2455594.637192778
  9
$TDINDWG
 40
0.0028298843
  9
$TDUSRTIMER
 40
0.0028296991
  9
$USRTIMER
 70
     1
  9
$ANGBASE
 50
0.0
  9
$ANGDIR
 70
     0
  9
$PDMODE
 70
     1
  9
$PDSIZE
 40
0.0
  9
$PLINEWID
 40
0.0
  9
$SPLFRAME
 70
     0
  9
$SPLINETYPE
 70
     6
  9
$SPLINESEGS
 70
     8
  9
$HANDSEED
  5
B98DC
  9
$SURFTAB1
 70
     6
  9
$SURFTAB2
 70
     6
  9
$SURFTYPE
 70
     6
  9
$SURFU
 70
     6
  9
$SURFV
 70
     6
  9
$UCSBASE
  2

  9
$UCSNAME
  2

  9
$UCSORG
 10
0.0
 20
0.0
 30
0.0
  9
$UCSXDIR
 10
1.0
 20
0.0
 30
0.0
  9
$UCSYDIR
 10
0.0
 20
1.0
 30
0.0
  9
$UCSORTHOREF
  2

  9
$UCSORTHOVIEW
 70
     0
  9
$UCSORGTOP
 10
0.0
 20
0.0
 30
0.0
  9
$UCSORGBOTTOM
 10
0.0
 20
0.0
 30
0.0
  9
$UCSORGLEFT
 10
0.0
 20
0.0
 30
0.0
  9
$UCSORGRIGHT
 10
0.0
 20
0.0
 30
0.0
  9
$UCSORGFRONT
 10
0.0
 20
0.0
 30
0.0
  9
$UCSORGBACK
 10
0.0
 20
0.0
 30
0.0
  9
$PUCSBASE
  2

  9
$PUCSNAME
  2

  9
$PUCSORG
 10
0.0
 20
0.0
 30
0.0
  9
$PUCSXDIR
 10
1.0
 20
0.0
 30
0.0
  9
$PUCSYDIR
 10
0.0
 20
1.0
 30
0.0
  9
$PUCSORTHOREF
  2

  9
$PUCSORTHOVIEW
 70
     0
  9
$PUCSORGTOP
 10
0.0
 20
0.0
 30
0.0
  9
$PUCSORGBOTTOM
 10
0.0
 20
0.0
 30
0.0
  9
$PUCSORGLEFT
 10
0.0
 20
0.0
 30
0.0
  9
$PUCSORGRIGHT
 10
0.0
 20
0.0
 30
0.0
  9
$PUCSORGFRONT
 10
0.0
 20
0.0
 30
0.0
  9
$PUCSORGBACK
 10
0.0
 20
0.0
 30
0.0
  9
$USERI1
 70
     0
  9
$USERI2
 70
     0
  9
$USERI3
 70
     0
  9
$USERI4
 70
     0
  9
$USERI5
 70
     0
  9
$USERR1
 40
0.0
  9
$USERR2
 40
0.0
  9
$USERR3
 40
0.0
  9
$USERR4
 40
0.0
  9
$USERR5
 40
0.0
  9
$WORLDVIEW
 70
     1
  9
$SHADEDGE
 70
     3
  9
$SHADEDIF
 70
    70
  9
$TILEMODE
 70
     1
  9
$MAXACTVP
 70
    64
  9
$PINSBASE
 10
0.0
 20
0.0
 30
0.0
  9
$PLIMCHECK
 70
     0
  9
$PEXTMIN
 10
0.0
 20
0.0
 30
0.0
  9
$PEXTMAX
 10
0.0
 20
0.0
 30
0.0
  9
$PLIMMIN
 10
0.0
 20
0.0
  9
$PLIMMAX
 10
12.0
 20
9.0
  9
$UNITMODE
 70
     0
  9
$VISRETAIN
 70
     0
  9
$PLINEGEN
 70
     0
  9
$PSLTSCALE
 70
     1
  9
$TREEDEPTH
 70
  3020
  9
$CMLSTYLE
  2
STANDARD
  9
$CMLJUST
 70
     0
  9
$CMLSCALE
 40
20.0
  9
$PROXYGRAPHICS
 70
     1
  9
$MEASUREMENT
 70
     1
  9
$CELWEIGHT
370
    -1
  9
$ENDCAPS
280
     0
  9
$JOINSTYLE
280
     0
  9
$LWDISPLAY
290
     0
  9
$INSUNITS
 70
     4
  9
$HYPERLINKBASE
  1

  9
$STYLESHEET
  1
monochrome.ctb
  9
$XEDIT
290
     1
  9
$CEPSNTYPE
380
     0
  9
$PSTYLEMODE
290
     1
  9
$FINGERPRINTGUID
  2
{CDC05360-6B9C-4283-834B-2F693A18A3FB}
  9
$VERSIONGUID
  2
{418A0B3E-7BB6-49C9-ACC2-1B1D12959A3F}
  9
$EXTNAMES
290
     1
  9
$PSVPSCALE
 40
0.0
  9
$OLESTARTUP
290
     0
  0
ENDSEC
  0
SECTION
  2
CLASSES
  0
CLASS
  1
ACDBDICTIONARYWDFLT
  2
AcDbDictionaryWithDefault
  3
ObjectDBX Classes
 90
        0
280
     0
281
     0
  0
CLASS
  1
ACDBPLACEHOLDER
  2
AcDbPlaceHolder
  3
ObjectDBX Classes
 90
        0
280
     0
281
     0
  0
CLASS
  1
LAYOUT
  2
AcDbLayout
  3
ObjectDBX Classes
 90
        0
280
     0
281
     0
  0
CLASS
  1
DICTIONARYVAR
  2
AcDbDictionaryVar
  3
ObjectDBX Classes
 90
        0
280
     0
281
     0
  0
CLASS
  1
TABLESTYLE
  2
AcDbTableStyle
  3
ObjectDBX Classes
 90
     4095
280
     0
281
     0
  0
CLASS
  1
MATERIAL
  2
AcDbMaterial
  3
ObjectDBX Classes
 90
     1153
280
     0
281
     0
  0
CLASS
  1
VISUALSTYLE
  2
AcDbVisualStyle
  3
ObjectDBX Classes
 90
     4095
280
     0
281
     0
  0
CLASS
  1
SCALE
  2
AcDbScale
  3
ObjectDBX Classes
 90
     1153
280
     0
281
     0
  0
CLASS
  1
MLEADERSTYLE
  2
AcDbMLeaderStyle
  3
ACDB_MLEADERSTYLE_CLASS
 90
     4095
280
     0
281
     0
  0
CLASS
  1
CELLSTYLEMAP
  2
AcDbCellStyleMap
  3
ObjectDBX Classes
 90
     1152
280
     0
281
     0
  0
ENDSEC
  0
SECTION
  2
TABLES
  0
TABLE
  2
VPORT
  5
8
330
0
100
AcDbSymbolTable
 70
     1
  0
VPORT
  5
3ED
330
8
100
AcDbSymbolTableRecord
100
AcDbViewportTableRecord
  2
*Active
 70
     0
 10
0.0
 20
0.0
 11
1.0
 21
1.0
 12
383.0667364101286
 22
105.2504932790795
 13
0.0
 23
0.0
 14
5.0
 24
5.0
 15
5.0
 25
5.0
 16
0.0
 26
0.0
 36
1.0
 17
0.0
 27
0.0
 37
0.0
 40
514.4966108664532
 41
2.016709511568123
 42
50.0
 43
0.0
 44
0.0
 50
0.0
 51
0.0
 71
     0
 72
  2000
 73
     1
 74
     1
 75
     0
 76
     0
 77
     0
 78
     0
281
     0
 65
     1
110
0.0
120
0.0
130
0.0
111
1.0
121
0.0
131
0.0
112
0.0
122
1.0
132
0.0
 79
     0
146
0.0
  0
ENDTAB
  0
TABLE
  2
LTYPE
  5
5
330
0
100
AcDbSymbolTable
 70
   774
  0
LTYPE
  5
12
330
5
100
AcDbSymbolTableRecord
100
AcDbLinetypeTableRecord
  2
BYBLOCK
 70
     0
  3

 72
    65
 73
     0
 40
0.0
  0
LTYPE
  5
13
330
5
100
AcDbSymbolTableRecord
100
AcDbLinetypeTableRecord
  2
BYLAYER
 70
     0
  3

 72
    65
 73
     0
 40
0.0
  0
LTYPE
  5
14
330
5
100
AcDbSymbolTableRecord
100
AcDbLinetypeTableRecord
  2
CONTINUOUS
 70
     0
  3
Solid line
 72
    65
 73
     0
 40
0.0
  0
LTYPE
  5
B9651
330
5
100
AcDbSymbolTableRecord
100
AcDbLinetypeTableRecord
  2
CENTER
 70
     0
  3
Dash dot __ . __ . __ . __ . __ . __ . __ . __
 72
    65
 73
     4
 40
25.4
 49
12.7
 74
     0
 49
-6.349999999999998
 74
     0
 49
0.0
 74
     0
 49
-6.349999999999998
 74
     0
  0
ENDTAB
  0
TABLE
  2
LAYER
  5
2
330
0
100
AcDbSymbolTable
 70
  6188
  0
LAYER
  5
F
330
2
100
AcDbSymbolTableRecord
100
AcDbLayerTableRecord
  2
0
 70
     0
 62
     7
  6
CONTINUOUS
370
    -3
390
300
  0
LAYER
  5
23
330
2
100
AcDbSymbolTableRecord
100
AcDbLayerTableRecord
  2
1
 70
     0
 62
     4
  6
CONTINUOUS
370
    -3
390
300
  0
LAYER
  5
B9652
330
2
100
AcDbSymbolTableRecord
100
AcDbLayerTableRecord
  2
SK1
 70
     0
 62
     4
  6
CONTINUOUS
370
    -3
390
300
  0
LAYER
  5
B9653
330
2
100
AcDbSymbolTableRecord
100
AcDbLayerTableRecord
  2
2
 70
     0
 62
     7
  6
CONTINUOUS
370
    -3
390
300
  0
LAYER
  5
B9654
330
2
100
AcDbSymbolTableRecord
100
AcDbLayerTableRecord
  2
SK2
 70
     0
 62
     7
  6
CONTINUOUS
370
    -3
390
300
  0
LAYER
  5
B9655
330
2
100
AcDbSymbolTableRecord
100
AcDbLayerTableRecord
  2
4
 70
     0
 62
     2
  6
CENTER
370
    -3
390
300
  0
LAYER
  5
B9656
330
2
100
AcDbSymbolTableRecord
100
AcDbLayerTableRecord
  2
SK4
 70
     0
 62
     2
  6
CENTER
370
    -3
390
300
  0
LAYER
  5
B9657
330
2
100
AcDbSymbolTableRecord
100
AcDbLayerTableRecord
  2
SK6
 70
     0
 62
     5
  6
CONTINUOUS
370
    -3
390
300
  0
LAYER
  5
B9658
330
2
100
AcDbSymbolTableRecord
100
AcDbLayerTableRecord
  2
CUT
 70
     0
 62
     1
  6
CONTINUOUS
370
    -3
390
300
  0
LAYER
  5
B9659
330
2
100
AcDbSymbolTableRecord
100
AcDbLayerTableRecord
  2
NOCUT
 70
     0
 62
     7
  6
CONTINUOUS
370
    -3
390
300
  0
ENDTAB
  0
TABLE
  2
STYLE
  5
3
330
0
100
AcDbSymbolTable
 70
     5
  0
STYLE
  5
10
330
3
100
AcDbSymbolTableRecord
100
AcDbTextStyleTableRecord
  2
STANDARD
 70
     0
 40
0.0
 41
1.0
 50
0.0
 71
     0
 42
5.0
  3
txt
  4

  0
STYLE
  5
1E
330
3
100
AcDbSymbolTableRecord
100
AcDbTextStyleTableRecord
  2
SIMPLEX
 70
     0
 40
0.0
 41
1.0
 50
0.0
 71
     0
 42
3.5
  3
simplex
  4

  0
ENDTAB
  0
TABLE
  2
VIEW
  5
6
330
0
100
AcDbSymbolTable
 70
     0
  0
ENDTAB
  0
TABLE
  2
UCS
  5
7
330
0
100
AcDbSymbolTable
 70
     0
  0
ENDTAB
  0
TABLE
  2
APPID
  5
9
330
0
100
AcDbSymbolTable
 70
     4
  0
APPID
  5
11
330
9
100
AcDbSymbolTableRecord
100
AcDbRegAppTableRecord
  2
ACAD
 70
     0
  0
APPID
  5
3A6
330
9
100
AcDbSymbolTableRecord
100
AcDbRegAppTableRecord
  2
ACAD_PSEXT
 70
     0
  0
APPID
  5
3A8
330
9
100
AcDbSymbolTableRecord
100
AcDbRegAppTableRecord
  2
ACAD_EXEMPT_FROM_CAD_STANDARDS
 70
     0
  0
APPID
  5
43E
330
9
100
AcDbSymbolTableRecord
100
AcDbRegAppTableRecord
  2
ACAD_MLEADERVER
 70
     0
  0
ENDTAB
  0
TABLE
  2
DIMSTYLE
  5
A
330
0
100
AcDbSymbolTable
 70
     1
100
AcDbDimStyleTable
 71
     1
340
3F
  0
DIMSTYLE
105
3F
330
A
100
AcDbSymbolTableRecord
100
AcDbDimStyleTableRecord
  2
STANDARD
 70
     0
 41
2.5
 42
0.0
 43
3.75
 44
1.25
 73
     0
 74
     0
 77
     1
 78
     8
 79
     2
140
3.5
141
0.0
143
0.039370078
147
0.625
171
     3
179
     2
271
     2
272
     2
274
     3
283
     0
284
     8
340
1E
  0
ENDTAB
  0
TABLE
  2
BLOCK_RECORD
  5
1
330
0
100
AcDbSymbolTable
 70
     0
  0
BLOCK_RECORD
  5
18
330
1
100
AcDbSymbolTableRecord
100
AcDbBlockTableRecord
  2
*MODEL_SPACE
340
303
  0
BLOCK_RECORD
  5
338
330
1
100
AcDbSymbolTableRecord
100
AcDbBlockTableRecord
  2
*Paper_Space
340
33B
  0
ENDTAB
  0
ENDSEC
  0
SECTION
  2
BLOCKS
  0
BLOCK
  5
32
330
18
100
AcDbEntity
  8
0
100
AcDbBlockBegin
  2
*MODEL_SPACE
 70
     0
 10
0.0
 20
0.0
 30
0.0
  3
*MODEL_SPACE
  1

  0
ENDBLK
  5
33
330
18
100
AcDbEntity
  8
0
100
AcDbBlockEnd
  0
BLOCK
  5
339
330
338
100
AcDbEntity
 67
     1
  8
0
100
AcDbBlockBegin
  2
*Paper_Space
 70
     0
 10
0.0
 20
0.0
 30
0.0
  3
*Paper_Space
  1

  0
ENDBLK
  5
33A
330
338
100
AcDbEntity
 67
     1
  8
0
100
AcDbBlockEnd
  0
ENDSEC
  0
SECTION
  2
ENTITIES
  0
LINE
  5
B965A
330
18
100
AcDbEntity
  8
NOCUT
 62
     7
100
AcDbLine
 10
-27.5
 20
0.0
 30
0.0
 11
-26.29827876194488
 21
2.0
 31
0.0
  0
LINE
  5
B965B
330
18
100
AcDbEntity
  8
NOCUT
 62
     7
100
AcDbLine
 10
-26.29827876194488
 20
2.0
 30
0.0
 11
-22.5
 21
2.0
 31
0.0
  0
LINE
  5
B965C
330
18
100
AcDbEntity
  8
NOCUT
 62
     7
100
AcDbLine
 10
-22.5
 20
2.0
 30
0.0
 11
-17.30384757729337
 21
5.0
 31
0.0
  0
LINE
  5
B965D
330
18
100
AcDbEntity
  8
NOCUT
 62
     7
100
AcDbLine
 10
-17.30384757729337
 20
5.0
 30
0.0
 11
0.0
 21
5.0
 31
0.0
  0
LINE
  5
B965E
330
18
100
AcDbEntity
  8
NOCUT
 62
     7
100
AcDbLine
 10
0.0
 20
5.0
 30
0.0
 11
16.85
 21
5.0
 31
0.0
  0
LINE
  5
B965F
330
18
100
AcDbEntity
  8
NOCUT
 62
     7
100
AcDbLine
 10
16.85
 20
5.0
 30
0.0
 11
16.85
 21
0.0
 31
0.0
  0
LINE
  5
B9660
330
18
100
AcDbEntity
  8
NOCUT
 62
     7
100
AcDbLine
 10
16.85
 20
0.0
 30
0.0
 11
-27.5
 21
0.0
 31
0.0
  0
LINE
  5
B9661
330
18
100
AcDbEntity
  8
CUT
 62
     1
100
AcDbLine
 10
16.85
 20
0.0
 30
0.0
 11
16.85
 21
5.0
 31
0.0
  0
LINE
  5
B9662
330
18
100
AcDbEntity
  8
CUT
 62
     1
100
AcDbLine
 10
16.85
 20
5.0
 30
0.0
 11
17.30384757729337
 21
5.0
 31
0.0
  0
LINE
  5
B9663
330
18
100
AcDbEntity
  8
CUT
 62
     1
100
AcDbLine
 10
17.30384757729337
 20
5.0
 30
0.0
 11
22.5
 21
2.0
 31
0.0
  0
LINE
  5
B9664
330
18
100
AcDbEntity
  8
CUT
 62
     1
100
AcDbLine
 10
22.5
 20
2.0
 30
0.0
 11
26.29827876194488
 21
2.0
 31
0.0
  0
LINE
  5
B9665
330
18
100
AcDbEntity
  8
CUT
 62
     1
100
AcDbLine
 10
26.29827876194488
 20
2.0
 30
0.0
 11
27.5
 21
0.0
 31
0.0
  0
LINE
  5
B9666
330
18
100
AcDbEntity
  8
CUT
 62
     1
100
AcDbLine
 10
27.5
 20
0.0
 30
0.0
 11
16.85
 21
0.0
 31
0.0
  0
LINE
  5
B9667
330
18
100
AcDbEntity
  8
4
100
AcDbLine
 10
-2.0
 20
0.0
 30
0.0
 11
29.5
 21
0.0
 31
0.0
  0
LINE
  5
B9668
330
18
100
AcDbEntity
  8
SK4
100
AcDbLine
 10
-2.0
 20
0.0
 30
0.0
 11
29.5
 21
0.0
 31
0.0
  0
LINE
  5
B9669
330
18
100
AcDbEntity
  8
4
100
AcDbLine
 10
-1.0
 20
0.0
 30
0.0
 11
28.5
 21
0.0
 31
0.0
  0
LINE
  5
B966A
330
18
100
AcDbEntity
  8
SK4
100
AcDbLine
 10
-28.5
 20
0.0
 30
0.0
 11
1.0
 21
0.0
 31
0.0
  0
LINE
  5
B966B
330
18
100
AcDbEntity
  8
1
100
AcDbLine
 10
0.0
 20
-5.0
 30
0.0
 11
0.0
 21
5.0
 31
0.0
  0
LINE
  5
B966C
330
18
100
AcDbEntity
  8
1
100
AcDbLine
 10
16.86
 20
-0.8338411827850046
 30
0.0
 11
16.86
 21
-0.7345986921954301
 31
0.0
  0
LINE
  5
B966D
330
18
100
AcDbEntity
  8
1
100
AcDbLine
 10
16.86
 20
-0.7345986921954301
 30
0.0
 11
16.86
 21
-0.5621315054376829
 31
0.0
  0
LINE
  5
B966E
330
18
100
AcDbEntity
  8
1
100
AcDbLine
 10
16.86
 20
-0.5621315054376829
 30
0.0
 11
16.86
 21
-0.1314965746651942
 31
0.0
  0
LINE
  5
B966F
330
18
100
AcDbEntity
  8
1
100
AcDbLine
 10
16.86
 20
-0.1314965746651942
 30
0.0
 11
16.86
 21
0.0097633598297485
 31
0.0
  0
LINE
  5
B9670
330
18
100
AcDbEntity
  8
1
100
AcDbLine
 10
16.86
 20
0.0097633598297485
 30
0.0
 11
16.86
 21
0.1469017960875281
 31
0.0
  0
LINE
  5
B9671
330
18
100
AcDbEntity
  8
1
100
AcDbLine
 10
16.86
 20
0.1469017960875281
 30
0.0
 11
16.86000000000001
 21
0.2459949399800148
 31
0.0
  0
LINE
  5
B9672
330
18
100
AcDbEntity
  8
1
100
AcDbLine
 10
16.86000000000001
 20
0.2459949399800148
 30
0.0
 11
16.86000000000008
 21
0.3247180707817911
 31
0.0
  0
LINE
  5
B9673
330
18
100
AcDbEntity
  8
1
100
AcDbLine
 10
16.86000000000008
 20
0.3247180707817911
 30
0.0
 11
16.86000000000013
 21
0.3998405767641271
 31
0.0
  0
LINE
  5
B9674
330
18
100
AcDbEntity
  8
1
100
AcDbLine
 10
16.86000000000013
 20
0.3998405767641271
 30
0.0
 11
16.86000000000012
 21
0.4853178086844738
 31
0.0
  0
LINE
  5
B9675
330
18
100
AcDbEntity
  8
1
100
AcDbLine
 10
16.86000000000012
 20
0.4853178086844738
 30
0.0
 11
16.86000000000007
 21
0.5646655724836786
 31
0.0
  0
LINE
  5
B9676
330
18
100
AcDbEntity
  8
1
100
AcDbLine
 10
16.86000000000007
 20
0.5646655724836786
 30
0.0
 11
16.86000000000002
 21
0.6367254813039173
 31
0.0
  0
LINE
  5
B9677
330
18
100
AcDbEntity
  8
1
100
AcDbLine
 10
16.86000000000002
 20
0.6367254813039173
 30
0.0
 11
16.86
 21
0.7010579093628925
 31
0.0
  0
LINE
  5
B9678
330
18
100
AcDbEntity
  8
1
100
AcDbLine
 10
16.86
 20
0.7010579093628925
 30
0.0
 11
16.86
 21
0.7388607095581682
 31
0.0
  0
LINE
  5
B9679
330
18
100
AcDbEntity
  8
1
100
AcDbLine
 10
16.86
 20
0.7388607095581682
 30
0.0
 11
16.86
 21
0.7742112334368021
 31
0.0
  0
LINE
  5
B967A
330
18
100
AcDbEntity
  8
1
100
AcDbLine
 10
16.86
 20
0.7742112334368021
 30
0.0
 11
16.86
 21
0.8054415007515228
 31
0.0
  0
LINE
  5
B967B
330
18
100
AcDbEntity
  8
1
100
AcDbLine
 10
16.86
 20
0.8054415007515228
 30
0.0
 11
16.85999999999999
 21
0.832023324657068
 31
0.0
  0
LINE
  5
B967C
330
18
100
AcDbEntity
  8
1
100
AcDbLine
 10
16.85999999999999
 20
0.832023324657068
 30
0.0
 11
16.85999999999996
 21
0.8542271945238713
 31
0.0
  0
LINE
  5
B967D
330
18
100
AcDbEntity
  8
1
100
AcDbLine
 10
16.85999999999996
 20
0.8542271945238713
 30
0.0
 11
16.85999999999999
 21
0.8726461423981039
 31
0.0
  0
LINE
  5
B967E
330
18
100
AcDbEntity
  8
1
100
AcDbLine
 10
16.85999999999999
 20
0.8726461423981039
 30
0.0
 11
16.86000000000009
 21
0.8876358029343995
 31
0.0
  0
LINE
  5
B967F
330
18
100
AcDbEntity
  8
1
100
AcDbLine
 10
16.86000000000009
 20
0.8876358029343995
 30
0.0
 11
16.86
 21
0.8982796785455096
 31
0.0
  0
LINE
  5
B9680
330
18
100
AcDbEntity
  8
1
100
AcDbLine
 10
16.86
 20
-4.284116644331875
 30
0.0
 11
16.86
 21
-0.8338411827850046
 31
0.0
  0
LINE
  5
B9681
330
18
100
AcDbEntity
  8
1
100
AcDbLine
 10
16.86
 20
-4.284116644331876
 30
0.0
 11
16.86
 21
-5.0
 31
0.0
  0
LINE
  5
B9682
330
18
100
AcDbEntity
  8
1
100
AcDbLine
 10
16.86
 20
5.0
 30
0.0
 11
16.86
 21
1.238885714570457
 31
0.0
  0
LINE
  5
B9683
330
18
100
AcDbEntity
  8
1
100
AcDbLine
 10
16.86
 20
0.8982796785455104
 30
0.0
 11
16.86
 21
1.238885714570457
 31
0.0
  0
LINE
  5
B9684
330
18
100
AcDbEntity
  8
1
100
AcDbLine
 10
16.86000000000001
 20
-0.8338411827850048
 30
0.0
 11
11.93
 21
-0.6315976987341969
 31
0.0
  0
LINE
  5
B9685
330
18
100
AcDbEntity
  8
1
100
AcDbLine
 10
11.93
 20
-0.6315976987341969
 30
0.0
 11
7.0
 21
-0.400667254970765
 31
0.0
  0
LINE
  5
B9686
330
18
100
AcDbEntity
  8
1
100
AcDbLine
 10
16.86
 20
-4.284116644331875
 30
0.0
 11
14.39265299148804
 21
-3.984706306357626
 31
0.0
  0
LINE
  5
B9687
330
18
100
AcDbEntity
  8
1
100
AcDbLine
 10
14.39265299148804
 20
-3.984706306357626
 30
0.0
 11
11.93163937457464
 21
-3.640764148624883
 31
0.0
  0
LINE
  5
B9688
330
18
100
AcDbEntity
  8
1
100
AcDbLine
 10
11.93163937457464
 20
-3.640764148624883
 30
0.0
 11
9.46980607037392
 21
-3.25536309414614
 31
0.0
  0
LINE
  5
B9689
330
18
100
AcDbEntity
  8
1
100
AcDbLine
 10
9.46980607037392
 20
-3.25536309414614
 30
0.0
 11
7.0
 21
-2.831576065933885
 31
0.0
  0
LINE
  5
B968A
330
18
100
AcDbEntity
  8
1
100
AcDbLine
 10
7.0
 20
3.133977747870403
 30
0.0
 11
7.0
 21
-2.831576065933885
 31
0.0
  0
LINE
  5
B968B
330
18
100
AcDbEntity
  8
1
100
AcDbLine
 10
7.0
 20
3.1339777478704
 30
0.0
 11
9.469343758403224
 21
2.700196518798247
 31
0.0
  0
LINE
  5
B968C
330
18
100
AcDbEntity
  8
1
100
AcDbLine
 10
9.469343758403224
 20
2.700196518798247
 30
0.0
 11
11.93125458331478
 21
2.236996086044769
 31
0.0
  0
LINE
  5
B968D
330
18
100
AcDbEntity
  8
1
100
AcDbLine
 10
11.93125458331478
 20
2.236996086044769
 30
0.0
 11
14.3919452782805
 21
1.748633127225503
 31
0.0
  0
LINE
  5
B968E
330
18
100
AcDbEntity
  8
1
100
AcDbLine
 10
14.3919452782805
 20
1.748633127225503
 30
0.0
 11
16.86000000000001
 21
1.238885714570455
 31
0.0
  0
LINE
  5
B968F
330
18
100
AcDbEntity
  8
1
100
AcDbLine
 10
16.86000000000001
 20
0.89827967854551
 30
0.0
 11
11.92967682834894
 21
1.261190475608862
 31
0.0
  0
LINE
  5
B9690
330
18
100
AcDbEntity
  8
1
100
AcDbLine
 10
11.92967682834894
 20
1.261190475608862
 30
0.0
 11
7.0
 21
1.56698601200569
 31
0.0
  0
LINE
  5
B9691
330
18
100
AcDbEntity
  8
1
100
AcDbLine
 10
16.86
 20
5.0
 30
0.0
 11
0.0
 21
5.0
 31
0.0
  0
LINE
  5
B9692
330
18
100
AcDbEntity
  8
1
100
AcDbLine
 10
0.0
 20
-5.0
 30
0.0
 11
16.86
 21
-5.0
 31
0.0
  0
LINE
  5
B9693
330
18
100
AcDbEntity
  8
SK1
100
AcDbLine
 10
0.0
 20
5.0
 30
0.0
 11
0.0
 21
-5.0
 31
0.0
  0
LINE
  5
B9694
330
18
100
AcDbEntity
  8
SK1
100
AcDbLine
 10
-17.30384757729337
 20
4.332881387662855
 30
0.0
 11
-17.30384757729337
 21
5.0
 31
0.0
  0
LINE
  5
B9695
330
18
100
AcDbEntity
  8
SK1
100
AcDbLine
 10
-17.30384757729337
 20
4.332881387662855
 30
0.0
 11
-14.72412204147475
 21
4.027657988012061
 31
0.0
  0
LINE
  5
B9696
330
18
100
AcDbEntity
  8
SK1
100
AcDbLine
 10
-14.72412204147475
 20
4.027657988012061
 30
0.0
 11
-12.1523411297882
 21
3.673360481742109
 31
0.0
  0
LINE
  5
B9697
330
18
100
AcDbEntity
  8
SK1
100
AcDbLine
 10
-12.1523411297882
 20
3.673360481742109
 30
0.0
 11
-9.580351547530893
 21
3.273497098000286
 31
0.0
  0
LINE
  5
B9698
330
18
100
AcDbEntity
  8
SK1
100
AcDbLine
 10
-9.580351547530893
 20
3.273497098000286
 30
0.0
 11
-7.0
 21
2.831576065933886
 31
0.0
  0
LINE
  5
B9699
330
18
100
AcDbEntity
  8
SK1
100
AcDbLine
 10
-7.0
 20
-3.133977747870403
 30
0.0
 11
-7.0
 21
2.831576065933887
 31
0.0
  0
LINE
  5
B969A
330
18
100
AcDbEntity
  8
SK1
100
AcDbLine
 10
-7.0
 20
-3.1339777478704
 30
0.0
 11
-9.579858420325836
 21
-2.680023371704014
 31
0.0
  0
LINE
  5
B969B
330
18
100
AcDbEntity
  8
SK1
100
AcDbLine
 10
-9.579858420325836
 20
-2.680023371704014
 30
0.0
 11
-12.15192378864668
 21
-2.194156778171839
 31
0.0
  0
LINE
  5
B969C
330
18
100
AcDbEntity
  8
SK1
100
AcDbLine
 10
-12.15192378864668
 20
-2.194156778171839
 30
0.0
 11
-14.72329975136385
 21
-1.681228506388604
 31
0.0
  0
LINE
  5
B969D
330
18
100
AcDbEntity
  8
SK1
100
AcDbLine
 10
-14.72329975136385
 20
-1.681228506388604
 30
0.0
 11
-17.30384757729337
 21
-1.145541883992187
 31
0.0
  0
LINE
  5
B969E
330
18
100
AcDbEntity
  8
SK1
100
AcDbLine
 10
-17.30384757729337
 20
-5.0
 30
0.0
 11
-17.30384757729337
 21
-1.145541883992186
 31
0.0
  0
LINE
  5
B969F
330
18
100
AcDbEntity
  8
SK1
100
AcDbLine
 10
-22.5
 20
1.826214017063452
 30
0.0
 11
-22.5
 21
2.0
 31
0.0
  0
LINE
  5
B96A0
330
18
100
AcDbEntity
  8
SK1
100
AcDbLine
 10
-22.5
 20
1.826214017063452
 30
0.0
 11
-21.197189872727
 21
2.5128778692416
 31
0.0
  0
LINE
  5
B96A1
330
18
100
AcDbEntity
  8
SK1
100
AcDbLine
 10
-21.197189872727
 20
2.5128778692416
 30
0.0
 11
-19.89466617940003
 21
3.163004238677296
 31
0.0
  0
LINE
  5
B96A2
330
18
100
AcDbEntity
  8
SK1
100
AcDbLine
 10
-19.89466617940003
 20
3.163004238677296
 30
0.0
 11
-18.59670675168078
 21
3.771395374739267
 31
0.0
  0
LINE
  5
B96A3
330
18
100
AcDbEntity
  8
SK1
100
AcDbLine
 10
-18.59670675168078
 20
3.771395374739267
 30
0.0
 11
-17.94966459989935
 21
4.058324204377611
 31
0.0
  0
LINE
  5
B96A4
330
18
100
AcDbEntity
  8
SK1
100
AcDbLine
 10
-17.94966459989935
 20
4.058324204377611
 30
0.0
 11
-17.30384757729337
 21
4.332881387662855
 31
0.0
  0
LINE
  5
B96A5
330
18
100
AcDbEntity
  8
SK1
100
AcDbLine
 10
-26.29827876194488
 20
1.935100586670865
 30
0.0
 11
-26.29827876194488
 21
2.0
 31
0.0
  0
LINE
  5
B96A6
330
18
100
AcDbEntity
  8
SK1
100
AcDbLine
 10
-26.29827876194488
 20
1.935100586670865
 30
0.0
 11
-24.3991633728062
 21
1.887037988772408
 31
0.0
  0
LINE
  5
B96A7
330
18
100
AcDbEntity
  8
SK1
100
AcDbLine
 10
-24.3991633728062
 20
1.887037988772408
 30
0.0
 11
-22.5
 21
1.826214017063452
 31
0.0
  0
LINE
  5
B96A8
330
18
100
AcDbEntity
  8
SK1
100
AcDbLine
 10
-19.44052132712301
 20
-0.6908806895178487
 30
0.0
 11
-18.66185004502705
 21
-0.7544923220840909
 31
0.0
  0
LINE
  5
B96A9
330
18
100
AcDbEntity
  8
SK1
100
AcDbLine
 10
-18.66185004502705
 20
-0.7544923220840909
 30
0.0
 11
-17.88558975562964
 21
-0.8170528992411355
 31
0.0
  0
LINE
  5
B96AA
330
18
100
AcDbEntity
  8
SK1
100
AcDbLine
 10
-17.88558975562964
 20
-0.8170528992411355
 30
0.0
 11
-17.1079605822005
 21
-0.8787975570335555
 31
0.0
  0
LINE
  5
B96AB
330
18
100
AcDbEntity
  8
SK1
100
AcDbLine
 10
-17.1079605822005
 20
-0.8787975570335555
 30
0.0
 11
-16.52388483162417
 21
-0.9245222594413975
 31
0.0
  0
LINE
  5
B96AC
330
18
100
AcDbEntity
  8
SK1
100
AcDbLine
 10
-16.52388483162417
 20
-0.9245222594413975
 30
0.0
 11
-15.94095101561798
 21
-0.9695677387194995
 31
0.0
  0
LINE
  5
B96AD
330
18
100
AcDbEntity
  8
SK1
100
AcDbLine
 10
-15.94095101561798
 20
-0.9695677387194995
 30
0.0
 11
-15.16410830936346
 21
-1.028631987366189
 31
0.0
  0
LINE
  5
B96AE
330
18
100
AcDbEntity
  8
SK1
100
AcDbLine
 10
-15.16410830936346
 20
-1.028631987366189
 30
0.0
 11
-13.2202718555687
 21
-1.171178361590353
 31
0.0
  0
LINE
  5
B96AF
330
18
100
AcDbEntity
  8
SK1
100
AcDbLine
 10
-13.2202718555687
 20
-1.171178361590353
 30
0.0
 11
-11.66519549767113
 21
-1.279289140124852
 31
0.0
  0
LINE
  5
B96B0
330
18
100
AcDbEntity
  8
SK1
100
AcDbLine
 10
-11.66519549767113
 20
-1.279289140124852
 30
0.0
 11
-10.11013033178075
 21
-1.381598190452218
 31
0.0
  0
LINE
  5
B96B1
330
18
100
AcDbEntity
  8
SK1
100
AcDbLine
 10
-10.11013033178075
 20
-1.381598190452218
 30
0.0
 11
-7.0
 21
-1.566986012005689
 31
0.0
  0
LINE
  5
B96B2
330
18
100
AcDbEntity
  8
SK1
100
AcDbLine
 10
-19.44052132759761
 20
-0.6908806894417423
 30
0.0
 11
-19.82020372443597
 21
-0.6335822982147885
 31
0.0
  0
LINE
  5
B96B3
330
18
100
AcDbEntity
  8
SK1
100
AcDbLine
 10
-19.82020372443597
 20
-0.6335822982147885
 30
0.0
 11
-20.20011452785948
 21
-0.5834422213289674
 31
0.0
  0
LINE
  5
B96B4
330
18
100
AcDbEntity
  8
SK1
100
AcDbLine
 10
-20.20011452785948
 20
-0.5834422213289674
 30
0.0
 11
-20.57996853337556
 21
-0.5405372267565122
 31
0.0
  0
LINE
  5
B96B5
330
18
100
AcDbEntity
  8
SK1
100
AcDbLine
 10
-20.57996853337556
 20
-0.5405372267565122
 30
0.0
 11
-20.95948053649158
 21
-0.5049440824696556
 31
0.0
  0
LINE
  5
B96B6
330
18
100
AcDbEntity
  8
SK1
100
AcDbLine
 10
-20.95948053649158
 20
-0.5049440824696556
 30
0.0
 11
-21.3383177475391
 21
-0.4767359045803448
 31
0.0
  0
LINE
  5
B96B7
330
18
100
AcDbEntity
  8
SK1
100
AcDbLine
 10
-21.3383177475391
 20
-0.4767359045803448
 30
0.0
 11
-21.71595703614626
 21
-0.4559712017593859
 31
0.0
  0
LINE
  5
B96B8
330
18
100
AcDbEntity
  8
SK1
100
AcDbLine
 10
-21.71595703614626
 20
-0.4559712017593859
 30
0.0
 11
-22.09182768676534
 21
-0.4427048308172987
 31
0.0
  0
LINE
  5
B96B9
330
18
100
AcDbEntity
  8
SK1
100
AcDbLine
 10
-22.09182768676534
 20
-0.4427048308172987
 30
0.0
 11
-22.46535898384862
 21
-0.4369916485646044
 31
0.0
  0
LINE
  5
B96BA
330
18
100
AcDbEntity
  8
SK1
100
AcDbLine
 10
-17.30384757729337
 20
-1.145541883992187
 30
0.0
 11
-17.83697126854135
 21
-1.011289417232587
 31
0.0
  0
LINE
  5
B96BB
330
18
100
AcDbEntity
  8
SK1
100
AcDbLine
 10
-17.83697126854135
 20
-1.011289417232587
 30
0.0
 11
-18.37082635436677
 21
-0.8906449312947291
 31
0.0
  0
LINE
  5
B96BC
330
18
100
AcDbEntity
  8
SK1
100
AcDbLine
 10
-18.37082635436677
 20
-0.8906449312947291
 30
0.0
 11
-18.90536048923156
 21
-0.7837836230679894
 31
0.0
  0
LINE
  5
B96BD
330
18
100
AcDbEntity
  8
SK1
100
AcDbLine
 10
-18.90536048923156
 20
-0.7837836230679894
 30
0.0
 11
-19.44052132759761
 21
-0.6908806894417423
 31
0.0
  0
LINE
  5
B96BE
330
18
100
AcDbEntity
  8
SK1
100
AcDbLine
 10
-26.77806944935177
 20
1.118352203939064
 30
0.0
 11
-26.72754904581851
 21
1.206253973439965
 31
0.0
  0
LINE
  5
B96BF
330
18
100
AcDbEntity
  8
SK1
100
AcDbLine
 10
-26.72754904581851
 20
1.206253973439965
 30
0.0
 11
-26.67423920134711
 21
1.298305449063249
 31
0.0
  0
LINE
  5
B96C0
330
18
100
AcDbEntity
  8
SK1
100
AcDbLine
 10
-26.67423920134711
 20
1.298305449063249
 30
0.0
 11
-26.61818414606483
 21
1.394459174653519
 31
0.0
  0
LINE
  5
B96C1
330
18
100
AcDbEntity
  8
SK1
100
AcDbLine
 10
-26.61818414606483
 20
1.394459174653519
 30
0.0
 11
-26.55942811009897
 21
1.494667694055384
 31
0.0
  0
LINE
  5
B96C2
330
18
100
AcDbEntity
  8
SK1
100
AcDbLine
 10
-26.55942811009897
 20
1.494667694055384
 30
0.0
 11
-26.49801532357675
 21
1.598883551113448
 31
0.0
  0
LINE
  5
B96C3
330
18
100
AcDbEntity
  8
SK1
100
AcDbLine
 10
-26.49801532357675
 20
1.598883551113448
 30
0.0
 11
-26.43399001662548
 21
1.70705928967231
 31
0.0
  0
LINE
  5
B96C4
330
18
100
AcDbEntity
  8
SK1
100
AcDbLine
 10
-26.43399001662548
 20
1.70705928967231
 30
0.0
 11
-26.36739641937244
 21
1.819147453576583
 31
0.0
  0
LINE
  5
B96C5
330
18
100
AcDbEntity
  8
SK1
100
AcDbLine
 10
-26.36739641937244
 20
1.819147453576583
 30
0.0
 11
-26.29827876194488
 21
1.935100586670865
 31
0.0
  0
LINE
  5
B96C6
330
18
100
AcDbEntity
  8
SK1
100
AcDbLine
 10
-26.77806944935177
 20
1.118352203939064
 30
0.0
 11
-21.8335721836059
 21
0.9993845076113634
 31
0.0
  0
LINE
  5
B96C7
330
18
100
AcDbEntity
  8
SK1
100
AcDbLine
 10
-21.8335721836059
 20
0.9993845076113634
 30
0.0
 11
-16.88903472467588
 21
0.8349283385457813
 31
0.0
  0
LINE
  5
B96C8
330
18
100
AcDbEntity
  8
SK1
100
AcDbLine
 10
-16.88903472467588
 20
0.8349283385457813
 30
0.0
 11
-15.65420806189367
 21
0.7875482915243849
 31
0.0
  0
LINE
  5
B96C9
330
18
100
AcDbEntity
  8
SK1
100
AcDbLine
 10
-15.65420806189367
 20
0.7875482915243849
 30
0.0
 11
-14.41674104888417
 21
0.7378085362465164
 31
0.0
  0
LINE
  5
B96CA
330
18
100
AcDbEntity
  8
SK1
100
AcDbLine
 10
-14.41674104888417
 20
0.7378085362465164
 30
0.0
 11
-13.48968133664572
 21
0.6991488208744597
 31
0.0
  0
LINE
  5
B96CB
330
18
100
AcDbEntity
  8
SK1
100
AcDbLine
 10
-13.48968133664572
 20
0.6991488208744597
 30
0.0
 11
-12.56400984792717
 21
0.6594224432998863
 31
0.0
  0
LINE
  5
B96CC
330
18
100
AcDbEntity
  8
SK1
100
AcDbLine
 10
-12.56400984792717
 20
0.6594224432998863
 30
0.0
 11
-12.1001936298398
 21
0.6391146086909707
 31
0.0
  0
LINE
  5
B96CD
330
18
100
AcDbEntity
  8
SK1
100
AcDbLine
 10
-12.1001936298398
 20
0.6391146086909707
 30
0.0
 11
-11.63741803951838
 21
0.6185952845974331
 31
0.0
  0
LINE
  5
B96CE
330
18
100
AcDbEntity
  8
SK1
100
AcDbLine
 10
-11.63741803951838
 20
0.6185952845974331
 30
0.0
 11
-11.01783163242924
 21
0.590735435165552
 31
0.0
  0
LINE
  5
B96CF
330
18
100
AcDbEntity
  8
SK1
100
AcDbLine
 10
-11.01783163242924
 20
0.590735435165552
 30
0.0
 11
-10.09032335146122
 21
0.5482410724064103
 31
0.0
  0
LINE
  5
B96D0
330
18
100
AcDbEntity
  8
SK1
100
AcDbLine
 10
-10.09032335146122
 20
0.5482410724064103
 30
0.0
 11
-9.627360508298178
 21
0.5266948309554566
 31
0.0
  0
LINE
  5
B96D1
330
18
100
AcDbEntity
  8
SK1
100
AcDbLine
 10
-9.627360508298178
 20
0.5266948309554566
 30
0.0
 11
-9.165735070297147
 21
0.5049999938748682
 31
0.0
  0
LINE
  5
B96D2
330
18
100
AcDbEntity
  8
SK1
100
AcDbLine
 10
-9.165735070297147
 20
0.5049999938748682
 30
0.0
 11
-8.856201669070935
 21
0.4903393602138282
 31
0.0
  0
LINE
  5
B96D3
330
18
100
AcDbEntity
  8
SK1
100
AcDbLine
 10
-8.856201669070935
 20
0.4903393602138282
 30
0.0
 11
-8.546453145705925
 21
0.4755803244607237
 31
0.0
  0
LINE
  5
B96D4
330
18
100
AcDbEntity
  8
SK1
100
AcDbLine
 10
-8.546453145705925
 20
0.4755803244607237
 30
0.0
 11
-8.239081271956651
 21
0.4608499025109636
 31
0.0
  0
LINE
  5
B96D5
330
18
100
AcDbEntity
  8
SK1
100
AcDbLine
 10
-8.239081271956651
 20
0.4608499025109636
 30
0.0
 11
-7.928388475413683
 21
0.4458773706664938
 31
0.0
  0
LINE
  5
B96D6
330
18
100
AcDbEntity
  8
SK1
100
AcDbLine
 10
-7.928388475413683
 20
0.4458773706664938
 30
0.0
 11
-7.618862284431785
 21
0.4308807582431179
 31
0.0
  0
LINE
  5
B96D7
330
18
100
AcDbEntity
  8
SK1
100
AcDbLine
 10
-7.618862284431785
 20
0.4308807582431179
 30
0.0
 11
-7.0
 21
0.4006672549707658
 31
0.0
  0
LINE
  5
B96D8
330
18
100
AcDbEntity
  8
SK1
100
AcDbLine
 10
-26.50151901798521
 20
-0.143201005039814
 30
0.0
 11
-26.53911197455638
 21
-0.138898335425744
 31
0.0
  0
LINE
  5
B96D9
330
18
100
AcDbEntity
  8
SK1
100
AcDbLine
 10
-26.53911197455638
 20
-0.138898335425744
 30
0.0
 11
-26.57662204899435
 21
-0.1314968778871481
 31
0.0
  0
LINE
  5
B96DA
330
18
100
AcDbEntity
  8
SK1
100
AcDbLine
 10
-26.57662204899435
 20
-0.1314968778871481
 30
0.0
 11
-26.6138427021119
 21
-0.1211755720115828
 31
0.0
  0
LINE
  5
B96DB
330
18
100
AcDbEntity
  8
SK1
100
AcDbLine
 10
-26.6138427021119
 20
-0.1211755720115828
 30
0.0
 11
-26.65056739472181
 21
-0.1081133573866047
 31
0.0
  0
LINE
  5
B96DC
330
18
100
AcDbEntity
  8
SK1
100
AcDbLine
 10
-26.65056739472181
 20
-0.1081133573866047
 30
0.0
 11
-26.72170274166984
 21
-0.074481960238636
 31
0.0
  0
LINE
  5
B96DD
330
18
100
AcDbEntity
  8
SK1
100
AcDbLine
 10
-26.72170274166984
 20
-0.074481960238636
 30
0.0
 11
-26.78837577634067
 21
-0.0320342031436941
 31
0.0
  0
LINE
  5
B96DE
330
18
100
AcDbEntity
  8
SK1
100
AcDbLine
 10
-26.78837577634067
 20
-0.0320342031436941
 30
0.0
 11
-26.84909455100152
 21
0.0177712203395525
 31
0.0
  0
LINE
  5
B96DF
330
18
100
AcDbEntity
  8
SK1
100
AcDbLine
 10
-26.84909455100152
 20
0.0177712203395525
 30
0.0
 11
-26.90300858097952
 21
0.0733669092195695
 31
0.0
  0
LINE
  5
B96E0
330
18
100
AcDbEntity
  8
SK1
100
AcDbLine
 10
-26.90300858097952
 20
0.0733669092195695
 30
0.0
 11
-26.95038101974721
 21
0.1352324517725258
 31
0.0
  0
LINE
  5
B96E1
330
18
100
AcDbEntity
  8
SK1
100
AcDbLine
 10
-26.95038101974721
 20
0.1352324517725258
 30
0.0
 11
-26.97256694491905
 21
0.1708950500770166
 31
0.0
  0
LINE
  5
B96E2
330
18
100
AcDbEntity
  8
SK1
100
AcDbLine
 10
-26.97256694491905
 20
0.1708950500770166
 30
0.0
 11
-26.99319655893888
 21
0.210269607096896
 31
0.0
  0
LINE
  5
B96E3
330
18
100
AcDbEntity
  8
SK1
100
AcDbLine
 10
-26.99319655893888
 20
0.210269607096896
 30
0.0
 11
-27.01132988770882
 21
0.2533065549343564
 31
0.0
  0
LINE
  5
B96E4
330
18
100
AcDbEntity
  8
SK1
100
AcDbLine
 10
-27.01132988770882
 20
0.2533065549343564
 30
0.0
 11
-27.02602695713095
 21
0.2999563256915905
 31
0.0
  0
LINE
  5
B96E5
330
18
100
AcDbEntity
  8
SK1
100
AcDbLine
 10
-27.02602695713095
 20
0.2999563256915905
 30
0.0
 11
-27.03620274644626
 21
0.3493879617166439
 31
0.0
  0
LINE
  5
B96E6
330
18
100
AcDbEntity
  8
SK1
100
AcDbLine
 10
-27.03620274644626
 20
0.3493879617166439
 30
0.0
 11
-27.04131118900977
 21
0.4008151291305832
 31
0.0
  0
LINE
  5
B96E7
330
18
100
AcDbEntity
  8
SK1
100
AcDbLine
 10
-27.04131118900977
 20
0.4008151291305832
 30
0.0
 11
-27.04122074189466
 21
0.4542551956951327
 31
0.0
  0
LINE
  5
B96E8
330
18
100
AcDbEntity
  8
SK1
100
AcDbLine
 10
-27.04122074189466
 20
0.4542551956951327
 30
0.0
 11
-27.0357998621741
 21
0.5097255291720162
 31
0.0
  0
LINE
  5
B96E9
330
18
100
AcDbEntity
  8
SK1
100
AcDbLine
 10
-27.0357998621741
 20
0.5097255291720162
 30
0.0
 11
-27.02508139850998
 21
0.5670665080035768
 31
0.0
  0
LINE
  5
B96EA
330
18
100
AcDbEntity
  8
SK1
100
AcDbLine
 10
-27.02508139850998
 20
0.5670665080035768
 30
0.0
 11
-27.00975576591911
 21
0.6254105533546298
 31
0.0
  0
LINE
  5
B96EB
330
18
100
AcDbEntity
  8
SK1
100
AcDbLine
 10
-27.00975576591911
 20
0.6254105533546298
 30
0.0
 11
-26.99060373282359
 21
0.6839286285610139
 31
0.0
  0
LINE
  5
B96EC
330
18
100
AcDbEntity
  8
SK1
100
AcDbLine
 10
-26.99060373282359
 20
0.6839286285610139
 30
0.0
 11
-26.96810991491206
 21
0.7426538229201885
 31
0.0
  0
LINE
  5
B96ED
330
18
100
AcDbEntity
  8
SK1
100
AcDbLine
 10
-26.96810991491206
 20
0.7426538229201885
 30
0.0
 11
-26.91473923466178
 21
0.8617200522483694
 31
0.0
  0
LINE
  5
B96EE
330
18
100
AcDbEntity
  8
SK1
100
AcDbLine
 10
-26.91473923466178
 20
0.8617200522483694
 30
0.0
 11
-26.88423448655663
 21
0.9231662901438612
 31
0.0
  0
LINE
  5
B96EF
330
18
100
AcDbEntity
  8
SK1
100
AcDbLine
 10
-26.88423448655663
 20
0.9231662901438612
 30
0.0
 11
-26.85107320170118
 21
0.9866423502886719
 31
0.0
  0
LINE
  5
B96F0
330
18
100
AcDbEntity
  8
SK1
100
AcDbLine
 10
-26.85107320170118
 20
0.9866423502886719
 30
0.0
 11
-26.77806944935177
 21
1.118352203939064
 31
0.0
  0
LINE
  5
B96F1
330
18
100
AcDbEntity
  8
SK1
100
AcDbLine
 10
-26.29827876194488
 20
-0.1111236041295637
 30
0.0
 11
-26.32329063514862
 21
-0.1203299155808733
 31
0.0
  0
LINE
  5
B96F2
330
18
100
AcDbEntity
  8
SK1
100
AcDbLine
 10
-26.32329063514862
 20
-0.1203299155808733
 30
0.0
 11
-26.34844579363433
 21
-0.1280330845997617
 31
0.0
  0
LINE
  5
B96F3
330
18
100
AcDbEntity
  8
SK1
100
AcDbLine
 10
-26.34844579363433
 20
-0.1280330845997617
 30
0.0
 11
-26.37372876030407
 21
-0.1342423057827925
 31
0.0
  0
LINE
  5
B96F4
330
18
100
AcDbEntity
  8
SK1
100
AcDbLine
 10
-26.37372876030407
 20
-0.1342423057827925
 30
0.0
 11
-26.39912405805991
 21
-0.1389667737265296
 31
0.0
  0
LINE
  5
B96F5
330
18
100
AcDbEntity
  8
SK1
100
AcDbLine
 10
-26.39912405805991
 20
-0.1389667737265296
 30
0.0
 11
-26.42461620980388
 21
-0.1422156830275365
 31
0.0
  0
LINE
  5
B96F6
330
18
100
AcDbEntity
  8
SK1
100
AcDbLine
 10
-26.42461620980388
 20
-0.1422156830275365
 30
0.0
 11
-26.45018973843806
 21
-0.1439982282823771
 31
0.0
  0
LINE
  5
B96F7
330
18
100
AcDbEntity
  8
SK1
100
AcDbLine
 10
-26.45018973843806
 20
-0.1439982282823771
 30
0.0
 11
-26.47582916686448
 21
-0.144323604087615
 31
0.0
  0
LINE
  5
B96F8
330
18
100
AcDbEntity
  8
SK1
100
AcDbLine
 10
-26.47582916686448
 20
-0.144323604087615
 30
0.0
 11
-26.50151901798521
 21
-0.143201005039814
 31
0.0
  0
LINE
  5
B96F9
330
18
100
AcDbEntity
  8
SK1
100
AcDbLine
 10
-22.5
 20
-0.4366515249025207
 30
0.0
 11
-26.29827876194488
 21
-0.111123604129564
 31
0.0
  0
LINE
  5
B96FA
330
18
100
AcDbEntity
  8
SK1
100
AcDbLine
 10
-22.46535898384862
 20
-0.4369916485646034
 30
0.0
 11
-22.5
 21
-0.4366515249025207
 31
0.0
  0
LINE
  5
B96FB
330
18
100
AcDbEntity
  8
SK1
100
AcDbLine
 10
-22.5
 20
-2.0
 30
0.0
 11
-22.5
 21
-0.4366515249025201
 31
0.0
  0
LINE
  5
B96FC
330
18
100
AcDbEntity
  8
SK1
100
AcDbLine
 10
-26.29827876194488
 20
-2.0
 30
0.0
 11
-26.29827876194488
 21
-0.1111236041295638
 31
0.0
  0
LINE
  5
B96FD
330
18
100
AcDbEntity
  8
SK1
100
AcDbLine
 10
0.0
 20
5.0
 30
0.0
 11
-17.30384757729337
 21
5.0
 31
0.0
  0
LINE
  5
B96FE
330
18
100
AcDbEntity
  8
SK1
100
AcDbLine
 10
-17.30384757729337
 20
-5.0
 30
0.0
 11
0.0
 21
-5.0
 31
0.0
  0
LINE
  5
B96FF
330
18
100
AcDbEntity
  8
SK1
100
AcDbLine
 10
-17.30384757729337
 20
5.0
 30
0.0
 11
-22.5
 21
2.0
 31
0.0
  0
LINE
  5
B9700
330
18
100
AcDbEntity
  8
SK1
100
AcDbLine
 10
-22.5
 20
2.0
 30
0.0
 11
-26.29827876194488
 21
2.0
 31
0.0
  0
LINE
  5
B9701
330
18
100
AcDbEntity
  8
SK1
100
AcDbLine
 10
-26.29827876194488
 20
-2.0
 30
0.0
 11
-22.5
 21
-2.0
 31
0.0
  0
LINE
  5
B9702
330
18
100
AcDbEntity
  8
SK1
100
AcDbLine
 10
-22.5
 20
-2.0
 30
0.0
 11
-17.30384757729337
 21
-5.0
 31
0.0
  0
LINE
  5
B9703
330
18
100
AcDbEntity
  8
SK1
100
AcDbLine
 10
-26.29827876194488
 20
2.0
 30
0.0
 11
-27.5
 21
0.0000000000000004
 31
0.0
  0
LINE
  5
B9704
330
18
100
AcDbEntity
  8
SK1
100
AcDbLine
 10
-27.5
 20
-0.0000000000000004
 30
0.0
 11
-26.29827876194488
 21
-2.0
 31
0.0
  0
LINE
  5
B9705
330
18
100
AcDbEntity
  8
1
 62
     1
100
AcDbLine
 10
16.86
 20
0.8982796785455096
 30
0.0
 11
16.86000000000022
 21
0.8880212688995666
 31
0.0
  0
LINE
  5
B9706
330
18
100
AcDbEntity
  8
1
 62
     1
100
AcDbLine
 10
16.86000000000022
 20
0.8880212688995666
 30
0.0
 11
16.86000000000033
 21
0.8734353491546366
 31
0.0
  0
LINE
  5
B9707
330
18
100
AcDbEntity
  8
1
 62
     1
100
AcDbLine
 10
16.86000000000033
 20
0.8734353491546366
 30
0.0
 11
16.86000000000037
 21
0.8546274643022361
 31
0.0
  0
LINE
  5
B9708
330
18
100
AcDbEntity
  8
1
 62
     1
100
AcDbLine
 10
16.86000000000037
 20
0.8546274643022361
 30
0.0
 11
16.86000000000033
 21
0.8317031593338795
 31
0.0
  0
LINE
  5
B9709
330
18
100
AcDbEntity
  8
1
 62
     1
100
AcDbLine
 10
16.86000000000033
 20
0.8317031593338795
 30
0.0
 11
16.86000000000025
 21
0.8047679792410841
 31
0.0
  0
LINE
  5
B970A
330
18
100
AcDbEntity
  8
1
 62
     1
100
AcDbLine
 10
16.86000000000025
 20
0.8047679792410841
 30
0.0
 11
16.86000000000016
 21
0.7739274690153655
 31
0.0
  0
LINE
  5
B970B
330
18
100
AcDbEntity
  8
1
 62
     1
100
AcDbLine
 10
16.86000000000016
 20
0.7739274690153655
 30
0.0
 11
16.86000000000006
 21
0.7392871736482393
 31
0.0
  0
LINE
  5
B970C
330
18
100
AcDbEntity
  8
1
 62
     1
100
AcDbLine
 10
16.86000000000006
 20
0.7392871736482393
 30
0.0
 11
16.86
 21
0.7009526381312217
 31
0.0
  0
LINE
  5
B970D
330
18
100
AcDbEntity
  8
1
 62
     1
100
AcDbLine
 10
16.86
 20
0.7009526381312217
 30
0.0
 11
16.85999999999996
 21
0.6590290613101441
 31
0.0
  0
LINE
  5
B970E
330
18
100
AcDbEntity
  8
1
 62
     1
100
AcDbLine
 10
16.85999999999996
 20
0.6590290613101441
 30
0.0
 11
16.85999999999996
 21
0.6136202574481007
 31
0.0
  0
LINE
  5
B970F
330
18
100
AcDbEntity
  8
1
 62
     1
100
AcDbLine
 10
16.85999999999996
 20
0.6136202574481007
 30
0.0
 11
16.86
 21
0.5127608410707585
 31
0.0
  0
LINE
  5
B9710
330
18
100
AcDbEntity
  8
1
 62
     1
100
AcDbLine
 10
16.86
 20
0.5127608410707585
 30
0.0
 11
16.86
 21
0.3998667888849107
 31
0.0
  0
LINE
  5
B9711
330
18
100
AcDbEntity
  8
1
 62
     1
100
AcDbLine
 10
16.86
 20
0.3998667888849107
 30
0.0
 11
16.86
 21
0.3247284085492245
 31
0.0
  0
LINE
  5
B9712
330
18
100
AcDbEntity
  8
1
 62
     1
100
AcDbLine
 10
16.86
 20
0.3247284085492245
 30
0.0
 11
16.86
 21
0.2460630938965668
 31
0.0
  0
LINE
  5
B9713
330
18
100
AcDbEntity
  8
1
 62
     1
100
AcDbLine
 10
16.86
 20
0.2460630938965668
 30
0.0
 11
16.86
 21
0.1469702238399794
 31
0.0
  0
LINE
  5
B9714
330
18
100
AcDbEntity
  8
1
 62
     1
100
AcDbLine
 10
16.86
 20
0.1469702238399794
 30
0.0
 11
16.86
 21
0.0098288204837589
 31
0.0
  0
LINE
  5
B9715
330
18
100
AcDbEntity
  8
1
 62
     1
100
AcDbLine
 10
16.86
 20
0.0098288204837589
 30
0.0
 11
16.86
 21
-0.1314307412042477
 31
0.0
  0
LINE
  5
B9716
330
18
100
AcDbEntity
  8
1
 62
     1
100
AcDbLine
 10
16.86
 20
-0.1314307412042477
 30
0.0
 11
16.86
 21
-0.5621494687135265
 31
0.0
  0
LINE
  5
B9717
330
18
100
AcDbEntity
  8
1
 62
     1
100
AcDbLine
 10
16.86
 20
-0.5621494687135265
 30
0.0
 11
16.86
 21
-0.7345986921954301
 31
0.0
  0
LINE
  5
B9718
330
18
100
AcDbEntity
  8
1
 62
     1
100
AcDbLine
 10
16.86
 20
-0.7345986921954301
 30
0.0
 11
16.86
 21
-0.8338411827850046
 31
0.0
  0
LINE
  5
B9719
330
18
100
AcDbEntity
  8
1
 62
     1
100
AcDbLine
 10
16.86
 20
1.238885714570457
 30
0.0
 11
16.86
 21
0.8982796785455104
 31
0.0
  0
LINE
  5
B971A
330
18
100
AcDbEntity
  8
1
 62
     1
100
AcDbLine
 10
16.86
 20
1.238885714570457
 30
0.0
 11
16.86
 21
5.0
 31
0.0
  0
LINE
  5
B971B
330
18
100
AcDbEntity
  8
1
 62
     1
100
AcDbLine
 10
16.86
 20
-5.0
 30
0.0
 11
16.86
 21
-4.284116644331873
 31
0.0
  0
LINE
  5
B971C
330
18
100
AcDbEntity
  8
1
 62
     1
100
AcDbLine
 10
16.86
 20
-0.8338411827850046
 30
0.0
 11
16.86
 21
-4.284116644331875
 31
0.0
  0
LINE
  5
B971D
330
18
100
AcDbEntity
  8
1
 62
     1
100
AcDbLine
 10
16.86000000000001
 20
1.238885714570455
 30
0.0
 11
17.30384757729337
 21
1.145541883992188
 31
0.0
  0
LINE
  5
B971E
330
18
100
AcDbEntity
  8
1
 62
     1
100
AcDbLine
 10
17.30384757729337
 20
1.145541883992188
 30
0.0
 11
17.30384757729337
 21
5.0
 31
0.0
  0
LINE
  5
B971F
330
18
100
AcDbEntity
  8
1
 62
     1
100
AcDbLine
 10
19.44052132712301
 20
0.6908806895178511
 30
0.0
 11
16.86000000000001
 21
0.89827967854551
 31
0.0
  0
LINE
  5
B9720
330
18
100
AcDbEntity
  8
1
 62
     1
100
AcDbLine
 10
19.44052132759761
 20
0.6908806894417446
 30
0.0
 11
19.82020372254119
 21
0.6335822982362329
 31
0.0
  0
LINE
  5
B9721
330
18
100
AcDbEntity
  8
1
 62
     1
100
AcDbLine
 10
19.82020372254119
 20
0.6335822982362329
 30
0.0
 11
20.20011452293252
 21
0.5834422213664478
 31
0.0
  0
LINE
  5
B9722
330
18
100
AcDbEntity
  8
1
 62
     1
100
AcDbLine
 10
20.20011452293252
 20
0.5834422213664478
 30
0.0
 11
20.57996852787989
 21
0.5405372267912894
 31
0.0
  0
LINE
  5
B9723
330
18
100
AcDbEntity
  8
1
 62
     1
100
AcDbLine
 10
20.57996852787989
 20
0.5405372267912894
 30
0.0
 11
20.95948053649158
 21
0.5049440824696587
 31
0.0
  0
LINE
  5
B9724
330
18
100
AcDbEntity
  8
1
 62
     1
100
AcDbLine
 10
20.95948053649158
 20
0.5049440824696587
 30
0.0
 11
21.33831776028369
 21
0.4767359045115212
 31
0.0
  0
LINE
  5
B9725
330
18
100
AcDbEntity
  8
1
 62
     1
100
AcDbLine
 10
21.33831776028369
 20
0.4767359045115212
 30
0.0
 11
21.7159570604037
 21
0.4559712016311053
 31
0.0
  0
LINE
  5
B9726
330
18
100
AcDbEntity
  8
1
 62
     1
100
AcDbLine
 10
21.7159570604037
 20
0.4559712016311053
 30
0.0
 11
22.09182771040691
 21
0.4427048306937027
 31
0.0
  0
LINE
  5
B9727
330
18
100
AcDbEntity
  8
1
 62
     1
100
AcDbLine
 10
22.09182771040691
 20
0.4427048306937027
 30
0.0
 11
22.46535898384862
 21
0.4369916485646069
 31
0.0
  0
LINE
  5
B9728
330
18
100
AcDbEntity
  8
1
 62
     1
100
AcDbLine
 10
17.30384757729337
 20
1.145541883992188
 30
0.0
 11
17.83697126848469
 21
1.011289417248981
 31
0.0
  0
LINE
  5
B9729
330
18
100
AcDbEntity
  8
1
 62
     1
100
AcDbLine
 10
17.83697126848469
 20
1.011289417248981
 30
0.0
 11
18.37082635431396
 21
0.8906449313100653
 31
0.0
  0
LINE
  5
B972A
330
18
100
AcDbEntity
  8
1
 62
     1
100
AcDbLine
 10
18.37082635431396
 20
0.8906449313100653
 30
0.0
 11
18.90536048920901
 21
0.7837836230746007
 31
0.0
  0
LINE
  5
B972B
330
18
100
AcDbEntity
  8
1
 62
     1
100
AcDbLine
 10
18.90536048920901
 20
0.7837836230746007
 30
0.0
 11
19.44052132759761
 21
0.6908806894417446
 31
0.0
  0
LINE
  5
B972C
330
18
100
AcDbEntity
  8
1
 62
     1
100
AcDbLine
 10
22.46535898384862
 20
0.4369916485646063
 30
0.0
 11
22.5
 21
0.4366515249025234
 31
0.0
  0
LINE
  5
B972D
330
18
100
AcDbEntity
  8
1
 62
     1
100
AcDbLine
 10
22.5
 20
0.4366515249025237
 30
0.0
 11
22.5
 21
2.0
 31
0.0
  0
LINE
  5
B972E
330
18
100
AcDbEntity
  8
1
 62
     1
100
AcDbLine
 10
22.5
 20
-2.0
 30
0.0
 11
22.5
 21
-1.826214017063452
 31
0.0
  0
LINE
  5
B972F
330
18
100
AcDbEntity
  8
1
 62
     1
100
AcDbLine
 10
22.5
 20
-1.826214017063452
 30
0.0
 11
21.19718986254458
 21
-2.512877874756398
 31
0.0
  0
LINE
  5
B9730
330
18
100
AcDbEntity
  8
1
 62
     1
100
AcDbLine
 10
21.19718986254458
 20
-2.512877874756398
 30
0.0
 11
19.89466617940002
 21
-3.163004238677299
 31
0.0
  0
LINE
  5
B9731
330
18
100
AcDbEntity
  8
1
 62
     1
100
AcDbLine
 10
19.89466617940002
 20
-3.163004238677299
 30
0.0
 11
18.59670675330868
 21
-3.77139537380642
 31
0.0
  0
LINE
  5
B9732
330
18
100
AcDbEntity
  8
1
 62
     1
100
AcDbLine
 10
18.59670675330868
 20
-3.77139537380642
 30
0.0
 11
17.94966460025446
 21
-4.058324204134111
 31
0.0
  0
LINE
  5
B9733
330
18
100
AcDbEntity
  8
1
 62
     1
100
AcDbLine
 10
17.94966460025446
 20
-4.058324204134111
 30
0.0
 11
17.30384757729337
 21
-4.332881387662855
 31
0.0
  0
LINE
  5
B9734
330
18
100
AcDbEntity
  8
1
 62
     1
100
AcDbLine
 10
17.30384757729337
 20
-5.0
 30
0.0
 11
17.30384757729337
 21
-4.332881387662855
 31
0.0
  0
LINE
  5
B9735
330
18
100
AcDbEntity
  8
1
 62
     1
100
AcDbLine
 10
22.5
 20
0.436651524902523
 30
0.0
 11
26.29827876194488
 21
0.111123604129567
 31
0.0
  0
LINE
  5
B9736
330
18
100
AcDbEntity
  8
1
 62
     1
100
AcDbLine
 10
26.29827876194488
 20
0.1111236041295668
 30
0.0
 11
26.29827876194488
 21
2.0
 31
0.0
  0
LINE
  5
B9737
330
18
100
AcDbEntity
  8
1
 62
     1
100
AcDbLine
 10
26.29827876194488
 20
-2.0
 30
0.0
 11
26.29827876194488
 21
-1.935100586670865
 31
0.0
  0
LINE
  5
B9738
330
18
100
AcDbEntity
  8
1
 62
     1
100
AcDbLine
 10
26.29827876194488
 20
-1.935100586670865
 30
0.0
 11
24.39916337153566
 21
-1.88703798871961
 31
0.0
  0
LINE
  5
B9739
330
18
100
AcDbEntity
  8
1
 62
     1
100
AcDbLine
 10
24.39916337153566
 20
-1.88703798871961
 30
0.0
 11
22.5
 21
-1.826214017063452
 31
0.0
  0
LINE
  5
B973A
330
18
100
AcDbEntity
  8
1
 62
     1
100
AcDbLine
 10
26.5015190179852
 20
0.1432010050398179
 30
0.0
 11
26.53911197458868
 21
0.1388983354231713
 31
0.0
  0
LINE
  5
B973B
330
18
100
AcDbEntity
  8
1
 62
     1
100
AcDbLine
 10
26.53911197458868
 20
0.1388983354231713
 30
0.0
 11
26.57662204904354
 21
0.1314968778829576
 31
0.0
  0
LINE
  5
B973C
330
18
100
AcDbEntity
  8
1
 62
     1
100
AcDbLine
 10
26.57662204904354
 20
0.1314968778829576
 30
0.0
 11
26.61384270216567
 21
0.1211755720065781
 31
0.0
  0
LINE
  5
B973D
330
18
100
AcDbEntity
  8
1
 62
     1
100
AcDbLine
 10
26.61384270216567
 20
0.1211755720065781
 30
0.0
 11
26.65056739477099
 21
0.1081133573814342
 31
0.0
  0
LINE
  5
B973E
330
18
100
AcDbEntity
  8
1
 62
     1
100
AcDbLine
 10
26.65056739477099
 20
0.1081133573814342
 30
0.0
 11
26.72170274169478
 21
0.0744819602344588
 31
0.0
  0
LINE
  5
B973F
330
18
100
AcDbEntity
  8
1
 62
     1
100
AcDbLine
 10
26.72170274169478
 20
0.0744819602344588
 30
0.0
 11
26.78837577634212
 21
0.032034203141242
 31
0.0
  0
LINE
  5
B9740
330
18
100
AcDbEntity
  8
1
 62
     1
100
AcDbLine
 10
26.78837577634212
 20
0.032034203141242
 30
0.0
 11
26.84909455099819
 21
-0.0177712203405948
 31
0.0
  0
LINE
  5
B9741
330
18
100
AcDbEntity
  8
1
 62
     1
100
AcDbLine
 10
26.84909455099819
 20
-0.0177712203405948
 30
0.0
 11
26.90300858097995
 21
-0.073366909219788
 31
0.0
  0
LINE
  5
B9742
330
18
100
AcDbEntity
  8
1
 62
     1
100
AcDbLine
 10
26.90300858097995
 20
-0.073366909219788
 30
0.0
 11
26.95038101974737
 21
-0.1352324517724547
 31
0.0
  0
LINE
  5
B9743
330
18
100
AcDbEntity
  8
1
 62
     1
100
AcDbLine
 10
26.95038101974737
 20
-0.1352324517724547
 30
0.0
 11
26.97256694491889
 21
-0.1708950500768577
 31
0.0
  0
LINE
  5
B9744
330
18
100
AcDbEntity
  8
1
 62
     1
100
AcDbLine
 10
26.97256694491889
 20
-0.1708950500768577
 30
0.0
 11
26.99319655893872
 21
-0.2102696070967
 31
0.0
  0
LINE
  5
B9745
330
18
100
AcDbEntity
  8
1
 62
     1
100
AcDbLine
 10
26.99319655893872
 20
-0.2102696070967
 30
0.0
 11
27.01132988770877
 21
-0.253306554934232
 31
0.0
  0
LINE
  5
B9746
330
18
100
AcDbEntity
  8
1
 62
     1
100
AcDbLine
 10
27.01132988770877
 20
-0.253306554934232
 30
0.0
 11
27.02602695713097
 21
-0.2999563256917039
 31
0.0
  0
LINE
  5
B9747
330
18
100
AcDbEntity
  8
1
 62
     1
100
AcDbLine
 10
27.02602695713097
 20
-0.2999563256917039
 30
0.0
 11
27.03620274644629
 21
-0.3493879617169818
 31
0.0
  0
LINE
  5
B9748
330
18
100
AcDbEntity
  8
1
 62
     1
100
AcDbLine
 10
27.03620274644629
 20
-0.3493879617169818
 30
0.0
 11
27.04131118900983
 21
-0.4008151291309649
 31
0.0
  0
LINE
  5
B9749
330
18
100
AcDbEntity
  8
1
 62
     1
100
AcDbLine
 10
27.04131118900983
 20
-0.4008151291309649
 30
0.0
 11
27.04122074189476
 21
-0.4542551956954526
 31
0.0
  0
LINE
  5
B974A
330
18
100
AcDbEntity
  8
1
 62
     1
100
AcDbLine
 10
27.04122074189476
 20
-0.4542551956954526
 30
0.0
 11
27.03579986217418
 21
-0.5097255291722439
 31
0.0
  0
LINE
  5
B974B
330
18
100
AcDbEntity
  8
1
 62
     1
100
AcDbLine
 10
27.03579986217418
 20
-0.5097255291722439
 30
0.0
 11
27.02508139851004
 21
-0.5670665080037371
 31
0.0
  0
LINE
  5
B974C
330
18
100
AcDbEntity
  8
1
 62
     1
100
AcDbLine
 10
27.02508139851004
 20
-0.5670665080037371
 30
0.0
 11
27.00975576591917
 21
-0.6254105533547169
 31
0.0
  0
LINE
  5
B974D
330
18
100
AcDbEntity
  8
1
 62
     1
100
AcDbLine
 10
27.00975576591917
 20
-0.6254105533547169
 30
0.0
 11
26.99060373282384
 21
-0.6839286285609895
 31
0.0
  0
LINE
  5
B974E
330
18
100
AcDbEntity
  8
1
 62
     1
100
AcDbLine
 10
26.99060373282384
 20
-0.6839286285609895
 30
0.0
 11
26.96810991491249
 21
-0.7426538229200455
 31
0.0
  0
LINE
  5
B974F
330
18
100
AcDbEntity
  8
1
 62
     1
100
AcDbLine
 10
26.96810991491249
 20
-0.7426538229200455
 30
0.0
 11
26.91473923466188
 21
-0.8617200522481558
 31
0.0
  0
LINE
  5
B9750
330
18
100
AcDbEntity
  8
1
 62
     1
100
AcDbLine
 10
26.91473923466188
 20
-0.8617200522481558
 30
0.0
 11
26.88423448655188
 21
-0.9231662901519086
 31
0.0
  0
LINE
  5
B9751
330
18
100
AcDbEntity
  8
1
 62
     1
100
AcDbLine
 10
26.88423448655188
 20
-0.9231662901519086
 30
0.0
 11
26.85107320168893
 21
-0.9866423503104371
 31
0.0
  0
LINE
  5
B9752
330
18
100
AcDbEntity
  8
1
 62
     1
100
AcDbLine
 10
26.85107320168893
 20
-0.9866423503104371
 30
0.0
 11
26.77806944935177
 21
-1.11835220393906
 31
0.0
  0
LINE
  5
B9753
330
18
100
AcDbEntity
  8
1
 62
     1
100
AcDbLine
 10
26.29827876194488
 20
0.1111236041295678
 30
0.0
 11
26.32329063516819
 21
0.1203299155898733
 31
0.0
  0
LINE
  5
B9754
330
18
100
AcDbEntity
  8
1
 62
     1
100
AcDbLine
 10
26.32329063516819
 20
0.1203299155898733
 30
0.0
 11
26.34844579365928
 21
0.128033084613267
 31
0.0
  0
LINE
  5
B9755
330
18
100
AcDbEntity
  8
1
 62
     1
100
AcDbLine
 10
26.34844579365928
 20
0.128033084613267
 30
0.0
 11
26.37372876032452
 21
0.1342423057972725
 31
0.0
  0
LINE
  5
B9756
330
18
100
AcDbEntity
  8
1
 62
     1
100
AcDbLine
 10
26.37372876032452
 20
0.1342423057972725
 30
0.0
 11
26.39912405807025
 21
0.138966773739414
 31
0.0
  0
LINE
  5
B9757
330
18
100
AcDbEntity
  8
1
 62
     1
100
AcDbLine
 10
26.39912405807025
 20
0.138966773739414
 30
0.0
 11
26.42461620980283
 21
0.1422156830372153
 31
0.0
  0
LINE
  5
B9758
330
18
100
AcDbEntity
  8
1
 62
     1
100
AcDbLine
 10
26.42461620980283
 20
0.1422156830372153
 30
0.0
 11
26.45018973842862
 21
0.1439982282882005
 31
0.0
  0
LINE
  5
B9759
330
18
100
AcDbEntity
  8
1
 62
     1
100
AcDbLine
 10
26.45018973842862
 20
0.1439982282882005
 30
0.0
 11
26.47582916685396
 21
0.1443236040898934
 31
0.0
  0
LINE
  5
B975A
330
18
100
AcDbEntity
  8
1
 62
     1
100
AcDbLine
 10
26.47582916685396
 20
0.1443236040898934
 30
0.0
 11
26.5015190179852
 21
0.1432010050398179
 31
0.0
  0
LINE
  5
B975B
330
18
100
AcDbEntity
  8
1
 62
     1
100
AcDbLine
 10
26.77806944935177
 20
-1.11835220393906
 30
0.0
 11
26.7275490458203
 21
-1.206253973435829
 31
0.0
  0
LINE
  5
B975C
330
18
100
AcDbEntity
  8
1
 62
     1
100
AcDbLine
 10
26.7275490458203
 20
-1.206253973435829
 30
0.0
 11
26.6742392013061
 21
-1.298305449130175
 31
0.0
  0
LINE
  5
B975D
330
18
100
AcDbEntity
  8
1
 62
     1
100
AcDbLine
 10
26.6742392013061
 20
-1.298305449130175
 30
0.0
 11
26.61818414595847
 21
-1.394459174829697
 31
0.0
  0
LINE
  5
B975E
330
18
100
AcDbEntity
  8
1
 62
     1
100
AcDbLine
 10
26.61818414595847
 20
-1.394459174829697
 30
0.0
 11
26.55942810992672
 21
-1.494667694341991
 31
0.0
  0
LINE
  5
B975F
330
18
100
AcDbEntity
  8
1
 62
     1
100
AcDbLine
 10
26.55942810992672
 20
-1.494667694341991
 30
0.0
 11
26.49801532336017
 21
-1.598883551474659
 31
0.0
  0
LINE
  5
B9760
330
18
100
AcDbEntity
  8
1
 62
     1
100
AcDbLine
 10
26.49801532336017
 20
-1.598883551474659
 30
0.0
 11
26.43399001640814
 21
-1.707059290035294
 31
0.0
  0
LINE
  5
B9761
330
18
100
AcDbEntity
  8
1
 62
     1
100
AcDbLine
 10
26.43399001640814
 20
-1.707059290035294
 30
0.0
 11
26.36739641921995
 21
-1.819147453831496
 31
0.0
  0
LINE
  5
B9762
330
18
100
AcDbEntity
  8
1
 62
     1
100
AcDbLine
 10
26.36739641921995
 20
-1.819147453831496
 30
0.0
 11
26.29827876194488
 21
-1.935100586670863
 31
0.0
  0
LINE
  5
B9763
330
18
100
AcDbEntity
  8
1
 62
     1
100
AcDbLine
 10
17.30384757729337
 20
-4.332881387662855
 30
0.0
 11
16.86
 21
-4.284116644331875
 31
0.0
  0
LINE
  5
B9764
330
18
100
AcDbEntity
  8
1
 62
     1
100
AcDbLine
 10
26.77806944935177
 20
-1.11835220393906
 30
0.0
 11
21.81917579973669
 21
-0.9989685765701183
 31
0.0
  0
LINE
  5
B9765
330
18
100
AcDbEntity
  8
1
 62
     1
100
AcDbLine
 10
21.81917579973669
 20
-0.9989685765701183
 30
0.0
 11
16.86000000000001
 21
-0.8338411827850048
 31
0.0
  0
LINE
  5
B9766
330
18
100
AcDbEntity
  8
1
 62
     1
100
AcDbLine
 10
17.30384757729337
 20
5.0
 30
0.0
 11
16.86
 21
5.0
 31
0.0
  0
LINE
  5
B9767
330
18
100
AcDbEntity
  8
1
 62
     1
100
AcDbLine
 10
22.5
 20
2.0
 30
0.0
 11
17.30384757729337
 21
5.0
 31
0.0
  0
LINE
  5
B9768
330
18
100
AcDbEntity
  8
1
 62
     1
100
AcDbLine
 10
17.30384757729337
 20
-5.0
 30
0.0
 11
22.5
 21
-2.0
 31
0.0
  0
LINE
  5
B9769
330
18
100
AcDbEntity
  8
1
 62
     1
100
AcDbLine
 10
26.29827876194488
 20
2.0
 30
0.0
 11
22.5
 21
2.0
 31
0.0
  0
LINE
  5
B976A
330
18
100
AcDbEntity
  8
1
 62
     1
100
AcDbLine
 10
22.5
 20
-2.0
 30
0.0
 11
26.29827876194488
 21
-2.0
 31
0.0
  0
LINE
  5
B976B
330
18
100
AcDbEntity
  8
1
 62
     1
100
AcDbLine
 10
27.5
 20
0.0000000000000002
 30
0.0
 11
26.29827876194488
 21
1.999999999999999
 31
0.0
  0
LINE
  5
B976C
330
18
100
AcDbEntity
  8
1
 62
     1
100
AcDbLine
 10
26.29827876194488
 20
-1.999999999999999
 30
0.0
 11
27.5
 21
-0.0000000000000002
 31
0.0
  0
LINE
  5
B976D
330
18
100
AcDbEntity
  8
1
 62
     1
100
AcDbLine
 10
16.86
 20
-5.0
 30
0.0
 11
17.30384757729337
 21
-5.0
 31
0.0
  0
CIRCLE
  5
B976E
330
18
100
AcDbEntity
  8
SK6
100
AcDbCircle
 10
-25.6630766998202
 20
-23.29889670014052
 30
0.0
 40
1.657147078892605
  0
LINE
  5
B976F
330
18
100
AcDbEntity
  8
SK6
100
AcDbLine
 10
-31.9799383314109
 20
-35.00000000000002
 30
0.0
 11
-35.0367422299048
 21
-35.00000000000001
 31
0.0
  0
ARC
  5
B9770
330
18
100
AcDbEntity
  8
SK6
100
AcDbCircle
 10
-35.0367422299048
 20
-34.5
 30
0.0
 40
0.5
100
AcDbArc
 50
144.8651119180406
 51
270.0
  0
LINE
  5
B9771
330
18
100
AcDbEntity
  8
SK6
100
AcDbLine
 10
-28.31882518424448
 20
-24.0849276452521
 30
0.0
 11
-35.4456419490208
 21
-34.21224833674354
 31
0.0
  0
LINE
  5
B9772
330
18
100
AcDbEntity
  8
SK6
100
AcDbLine
 10
-24.51749156535482
 20
-28.43169258973516
 30
0.0
 11
-27.49768731538858
 21
-24.08973106607007
 31
0.0
  0
ARC
  5
B9773
330
18
100
AcDbEntity
  8
SK6
100
AcDbCircle
 10
-27.90992546512848
 20
-24.37267930850856
 30
0.0
 40
0.5
100
AcDbArc
 50
34.46456800202636
 51
144.8651119180409
  0
LINE
  5
B9774
330
18
100
AcDbEntity
  8
SK6
100
AcDbLine
 10
-23.52574653160218
 20
-29.89313328522829
 30
0.0
 11
-23.44069284032702
 21
-29.01749090747183
 31
0.0
  0
LINE
  5
B9775
330
18
100
AcDbEntity
  8
SK6
100
AcDbLine
 10
-23.44069284032702
 20
-29.01749090747183
 30
0.0
 11
-22.64333330053795
 21
-30.14713855847848
 31
0.0
  0
LINE
  5
B9776
330
18
100
AcDbEntity
  8
SK6
100
AcDbLine
 10
-22.64333330053795
 20
-30.14713855847848
 30
0.0
 11
-21.68544451817936
 21
-29.18429579721296
 31
0.0
  0
LINE
  5
B9777
330
18
100
AcDbEntity
  8
SK6
100
AcDbLine
 10
-21.68544451817936
 20
-29.18429579721296
 30
0.0
 11
-21.81096129670284
 21
-30.55176415771152
 31
0.0
  0
LINE
  5
B9778
330
18
100
AcDbEntity
  8
SK6
100
AcDbLine
 10
-21.81096129670284
 20
-30.55176415771152
 30
0.0
 11
-20.44580501674119
 21
-30.44144153067412
 31
0.0
  0
LINE
  5
B9779
330
18
100
AcDbEntity
  8
SK6
100
AcDbLine
 10
-20.44580501674119
 20
-30.44144153067412
 30
0.0
 11
-21.39279303208156
 21
-31.41254268120145
 31
0.0
  0
LINE
  5
B977A
330
18
100
AcDbEntity
  8
SK6
100
AcDbLine
 10
-21.39279303208156
 20
-31.41254268120145
 30
0.0
 11
-20.28395458529346
 21
-32.19867163613912
 31
0.0
  0
LINE
  5
B977B
330
18
100
AcDbEntity
  8
SK6
100
AcDbLine
 10
-20.28395458529346
 20
-32.19867163613912
 30
0.0
 11
-21.64878056803554
 21
-32.30965437822926
 31
0.0
  0
LINE
  5
B977C
330
18
100
AcDbEntity
  8
SK6
100
AcDbLine
 10
-21.64878056803554
 20
-32.30965437822926
 30
0.0
 11
-21.29238028040372
 21
-33.62625600814297
 31
0.0
  0
LINE
  5
B977D
330
18
100
AcDbEntity
  8
SK6
100
AcDbLine
 10
-21.29238028040372
 20
-33.62625600814297
 30
0.0
 11
-22.42731268692337
 21
-32.84937537535288
 31
0.0
  0
LINE
  5
B977E
330
18
100
AcDbEntity
  8
SK6
100
AcDbLine
 10
-22.42731268692337
 20
-32.84937537535288
 30
0.0
 11
-23.00122016535099
 21
-34.08505131015638
 31
0.0
  0
LINE
  5
B977F
330
18
100
AcDbEntity
  8
SK6
100
AcDbLine
 10
-23.00122016535099
 20
-34.08505131015638
 30
0.0
 11
-23.36538315672203
 21
-32.77703788733761
 31
0.0
  0
LINE
  5
B9780
330
18
100
AcDbEntity
  8
SK6
100
AcDbLine
 10
-23.36538315672203
 20
-32.77703788733761
 30
0.0
 11
-24.60733473869709
 21
-33.34318314141238
 31
0.0
  0
LINE
  5
B9781
330
18
100
AcDbEntity
  8
SK6
100
AcDbLine
 10
-24.60733473869709
 20
-33.34318314141238
 30
0.0
 11
-24.02500492086393
 21
-32.11510404265873
 31
0.0
  0
LINE
  5
B9782
330
18
100
AcDbEntity
  8
SK6
100
AcDbLine
 10
-24.02500492086393
 20
-32.11510404265873
 30
0.0
 11
-25.32740281156384
 21
-31.75242762846895
 31
0.0
  0
LINE
  5
B9783
330
18
100
AcDbEntity
  8
SK6
100
AcDbLine
 10
-25.32740281156384
 20
-31.75242762846895
 30
0.0
 11
-24.1115451893203
 21
-31.17108870229446
 31
0.0
  0
LINE
  5
B9784
330
18
100
AcDbEntity
  8
SK6
100
AcDbLine
 10
-24.1115451893203
 20
-31.17108870229446
 30
0.0
 11
-24.8847920733088
 21
-30.04639550958107
 31
0.0
  0
LINE
  5
B9785
330
18
100
AcDbEntity
  8
SK6
100
AcDbLine
 10
-24.8847920733088
 20
-30.04639550958107
 30
0.0
 11
-24.08974461405664
 21
-30.21617259491184
 31
0.0
  0
LINE
  5
B9786
330
18
100
AcDbEntity
  8
SK6
100
AcDbLine
 10
-24.08974461405664
 20
-30.21617259491184
 30
0.0
 11
-23.1969267808831
 21
-31.49478860641716
 31
0.0
  0
LINE
  5
B9787
330
18
100
AcDbEntity
  8
SK6
100
AcDbLine
 10
-23.1969267808831
 20
-31.49478860641716
 30
0.0
 11
-23.26216215959835
 21
-32.18083510689651
 31
0.0
  0
LINE
  5
B9788
330
18
100
AcDbEntity
  8
SK6
100
AcDbLine
 10
-23.26216215959835
 20
-32.18083510689651
 30
0.0
 11
-22.42533090360601
 21
-31.48686147314775
 31
0.0
  0
LINE
  5
B9789
330
18
100
AcDbEntity
  8
SK6
100
AcDbLine
 10
-22.42533090360601
 20
-31.48686147314775
 30
0.0
 11
-23.52574653160218
 21
-29.89313328522829
 31
0.0
  0
LINE
  5
B978A
330
18
100
AcDbEntity
  8
SK6
100
AcDbLine
 10
-25.482233908697
 20
-29.1847911236118
 30
0.0
 11
-26.68463168849716
 21
-27.44358107039661
 31
0.0
  0
LINE
  5
B978B
330
18
100
AcDbEntity
  8
SK6
100
AcDbLine
 10
-26.68463168849716
 20
-27.44358107039661
 30
0.0
 11
-31.9799383314109
 21
-35.00000000000002
 31
0.0
  0
ARC
  5
B978C
330
18
100
AcDbEntity
  8
SK6
100
AcDbCircle
 10
-22.84289514197168
 20
-31.53541643779301
 30
0.0
 40
3.526101298689051
100
AcDbArc
 50
138.3439660822018
 51
118.3478425760338
  0
LINE
  5
B978D
330
18
100
AcDbEntity
  8
SK6
100
AcDbLine
 10
-17.17709312795885
 20
-24.16297796403943
 30
0.0
 11
-15.22564298414292
 21
-24.16297796403943
 31
0.0
  0
LINE
  5
B978E
330
18
100
AcDbEntity
  8
SK6
100
AcDbLine
 10
-15.22564298414292
 20
-24.16297796403943
 30
0.0
 11
-15.22564298414292
 21
-25.85513759970576
 31
0.0
  0
LINE
  5
B978F
330
18
100
AcDbEntity
  8
SK6
100
AcDbLine
 10
-15.22564298414292
 20
-25.85513759970576
 30
0.0
 11
-14.72704566870669
 21
-25.85513759970576
 31
0.0
  0
LINE
  5
B9790
330
18
100
AcDbEntity
  8
SK6
100
AcDbLine
 10
-14.72704566870669
 20
-25.85513759970576
 30
0.0
 11
-14.72704566870669
 21
-24.16297796403943
 31
0.0
  0
LINE
  5
B9791
330
18
100
AcDbEntity
  8
SK6
100
AcDbLine
 10
-14.72704566870669
 20
-24.16297796403943
 30
0.0
 11
-12.77625611932989
 21
-24.16297796403943
 31
0.0
  0
LINE
  5
B9792
330
18
100
AcDbEntity
  8
SK6
100
AcDbLine
 10
-12.77625611932989
 20
-24.16297796403943
 30
0.0
 11
-12.77625611932989
 21
-29.16051343863189
 31
0.0
  0
LINE
  5
B9793
330
18
100
AcDbEntity
  8
SK6
100
AcDbLine
 10
-12.77625611932989
 20
-29.16051343863189
 30
0.0
 11
-14.72704566870669
 21
-29.16051343863189
 31
0.0
  0
LINE
  5
B9794
330
18
100
AcDbEntity
  8
SK6
100
AcDbLine
 10
-14.72704566870669
 20
-29.16051343863189
 30
0.0
 11
-14.72704566870669
 21
-26.99403405224651
 31
0.0
  0
LINE
  5
B9795
330
18
100
AcDbEntity
  8
SK6
100
AcDbLine
 10
-14.72704566870669
 20
-26.99403405224651
 30
0.0
 11
-15.22564298414292
 21
-26.99403405224651
 31
0.0
  0
LINE
  5
B9796
330
18
100
AcDbEntity
  8
SK6
100
AcDbLine
 10
-15.22564298414292
 20
-26.99403405224651
 30
0.0
 11
-15.22564298414292
 21
-29.16051343863189
 31
0.0
  0
LINE
  5
B9797
330
18
100
AcDbEntity
  8
SK6
100
AcDbLine
 10
-15.22564298414292
 20
-29.16051343863189
 30
0.0
 11
-17.17709312795885
 21
-29.16051343863189
 31
0.0
  0
LINE
  5
B9798
330
18
100
AcDbEntity
  8
SK6
100
AcDbLine
 10
-17.17709312795885
 20
-29.16051343863189
 30
0.0
 11
-17.17709312795885
 21
-24.16297796403943
 31
0.0
  0
LINE
  5
B9799
330
18
100
AcDbEntity
  8
SK6
100
AcDbLine
 10
-11.24594906527575
 20
-29.16051343863189
 30
0.0
 11
-9.891027253638876
 21
-29.16051343863189
 31
0.0
  0
ARC
  5
B979A
330
18
100
AcDbEntity
  8
SK6
100
AcDbCircle
 10
-11.24594906527575
 20
-28.16051343863189
 30
0.0
 40
1.0
100
AcDbArc
 50
180.0
 51
270.0
  0
LINE
  5
B979B
330
18
100
AcDbEntity
  8
SK6
100
AcDbLine
 10
-12.24594906527575
 20
-26.22748113108322
 30
0.0
 11
-12.24594906527575
 21
-28.16051343863189
 31
0.0
  0
LINE
  5
B979C
330
18
100
AcDbEntity
  8
SK6
100
AcDbLine
 10
-8.891027253638876
 20
-28.16051343863189
 30
0.0
 11
-8.891027253638892
 21
-26.22748113108322
 31
0.0
  0
ARC
  5
B979D
330
18
100
AcDbEntity
  8
SK6
100
AcDbCircle
 10
-9.891027253638876
 20
-28.16051343863189
 30
0.0
 40
1.0
100
AcDbArc
 50
270.0
 51
0.0000000000004071
  0
ARC
  5
B979E
330
18
100
AcDbEntity
  8
SK6
100
AcDbCircle
 10
-9.891027253638892
 20
-26.22748113108322
 30
0.0
 40
1.0
100
AcDbArc
 50
0.0
 51
90.0
  0
LINE
  5
B979F
330
18
100
AcDbEntity
  8
SK6
100
AcDbLine
 10
-11.24594906527575
 20
-25.22748113108322
 30
0.0
 11
-9.891027253638892
 21
-25.22748113108322
 31
0.0
  0
ARC
  5
B97A0
330
18
100
AcDbEntity
  8
SK6
100
AcDbCircle
 10
-11.24594906527575
 20
-26.22748113108322
 30
0.0
 40
1.0
100
AcDbArc
 50
90.0
 51
180.0
  0
LINE
  5
B97A1
330
18
100
AcDbEntity
  8
SK6
100
AcDbLine
 10
-10.77783709054417
 20
-26.10032761460314
 30
0.0
 11
-10.77783709054417
 21
-28.31483344275908
 31
0.0
  0
LINE
  5
B97A2
330
18
100
AcDbEntity
  8
SK6
100
AcDbLine
 10
-10.67783709054417
 20
-28.41483344275907
 30
0.0
 11
-10.47950595595533
 21
-28.41483344275907
 31
0.0
  0
ARC
  5
B97A3
330
18
100
AcDbEntity
  8
SK6
100
AcDbCircle
 10
-10.67783709054417
 20
-28.31483344275908
 30
0.0
 40
0.1
100
AcDbArc
 50
180.0
 51
270.0
  0
LINE
  5
B97A4
330
18
100
AcDbEntity
  8
SK6
100
AcDbLine
 10
-10.37950595595533
 20
-28.31483344275907
 30
0.0
 11
-10.37950595595534
 21
-26.10032761460314
 31
0.0
  0
ARC
  5
B97A5
330
18
100
AcDbEntity
  8
SK6
100
AcDbCircle
 10
-10.47950595595533
 20
-28.31483344275907
 30
0.0
 40
0.1
100
AcDbArc
 50
270.0
 51
0.0
  0
ARC
  5
B97A6
330
18
100
AcDbEntity
  8
SK6
100
AcDbCircle
 10
-10.47950595595534
 20
-26.10032761460314
 30
0.0
 40
0.1
100
AcDbArc
 50
0.0
 51
90.0
  0
LINE
  5
B97A7
330
18
100
AcDbEntity
  8
SK6
100
AcDbLine
 10
-10.67783709054416
 20
-26.00032761460314
 30
0.0
 11
-10.47950595595534
 21
-26.00032761460314
 31
0.0
  0
ARC
  5
B97A8
330
18
100
AcDbEntity
  8
SK6
100
AcDbCircle
 10
-10.67783709054416
 20
-26.10032761460314
 30
0.0
 40
0.1
100
AcDbArc
 50
90.0
 51
180.0
  0
LINE
  5
B97A9
330
18
100
AcDbEntity
  8
SK6
100
AcDbLine
 10
-8.30638282173755
 20
-29.16051343863189
 30
0.0
 11
-6.887133572700128
 21
-29.16051343863188
 31
0.0
  0
LINE
  5
B97AA
330
18
100
AcDbEntity
  8
SK6
100
AcDbLine
 10
-4.056828400767996
 20
-29.16051343863189
 30
0.0
 11
-2.637336756322837
 21
-29.16051343863189
 31
0.0
  0
LINE
  5
B97AB
330
18
100
AcDbEntity
  8
SK6
100
AcDbLine
 10
-2.228039693113039
 20
-29.16051343863188
 30
0.0
 11
-0.8398539975461359
 21
-29.16051343863189
 31
0.0
  0
LINE
  5
B97AC
330
18
100
AcDbEntity
  8
SK6
100
AcDbLine
 10
-0.4305569343363517
 20
-29.16051343863189
 30
0.0
 11
0.9628596230926332
 21
-29.16051343863189
 31
0.0
  0
LINE
  5
B97AD
330
18
100
AcDbEntity
  8
SK6
100
AcDbLine
 10
3.241237561556076
 20
-29.16051343863188
 30
0.0
 11
4.643270567647952
 21
-29.16051343863188
 31
0.0
  0
LINE
  5
B97AE
330
18
100
AcDbEntity
  8
SK6
100
AcDbLine
 10
5.173335505057565
 20
-29.16051343863189
 30
0.0
 11
6.628659280103285
 21
-29.16051343863189
 31
0.0
  0
LINE
  5
B97AF
330
18
100
AcDbEntity
  8
SK6
100
AcDbLine
 10
7.029455856107331
 20
-29.1605134386319
 30
0.0
 11
8.502604998790829
 21
-29.16051343863189
 31
0.0
  0
LINE
  5
B97B0
330
18
100
AcDbEntity
  8
SK6
100
AcDbLine
 10
-8.30638282173755
 20
-29.16051343863189
 30
0.0
 11
-8.30638282173755
 21
-26.00759711595721
 31
0.0
  0
LINE
  5
B97B1
330
18
100
AcDbEntity
  8
SK6
100
AcDbLine
 10
-8.30638282173755
 20
-26.00759711595721
 30
0.0
 11
-8.622019943356161
 21
-26.00759711595721
 31
0.0
  0
LINE
  5
B97B2
330
18
100
AcDbEntity
  8
SK6
100
AcDbLine
 10
-8.722019943356162
 20
-25.90759711595721
 30
0.0
 11
-8.722019943356162
 21
-25.36787095486539
 31
0.0
  0
ARC
  5
B97B3
330
18
100
AcDbEntity
  8
SK6
100
AcDbCircle
 10
-8.622019943356161
 20
-25.90759711595721
 30
0.0
 40
0.1
100
AcDbArc
 50
180.0
 51
270.0
  0
LINE
  5
B97B4
330
18
100
AcDbEntity
  8
SK6
100
AcDbLine
 10
-8.622019943356161
 20
-25.26787095486539
 30
0.0
 11
-8.326657926250748
 21
-25.2678709548654
 31
0.0
  0
ARC
  5
B97B5
330
18
100
AcDbEntity
  8
SK6
100
AcDbCircle
 10
-8.622019943356161
 20
-25.36787095486539
 30
0.0
 40
0.1
100
AcDbArc
 50
90.0
 51
180.0
  0
LINE
  5
B97B6
330
18
100
AcDbEntity
  8
SK6
100
AcDbLine
 10
-8.326657926250737
 20
-25.2678709548654
 30
0.0
 11
-8.326657926250737
 21
-24.28361482400697
 31
0.0
  0
LINE
  5
B97B7
330
18
100
AcDbEntity
  8
SK6
100
AcDbLine
 10
-8.226657926250735
 20
-24.18361482400697
 30
0.0
 11
-6.449846328182824
 21
-24.18361482400697
 31
0.0
  0
ARC
  5
B97B8
330
18
100
AcDbEntity
  8
SK6
100
AcDbCircle
 10
-8.226657926250735
 20
-24.28361482400697
 30
0.0
 40
0.1
100
AcDbArc
 50
90.0
 51
180.0
  0
LINE
  5
B97B9
330
18
100
AcDbEntity
  8
SK6
100
AcDbLine
 10
-6.349846328182819
 20
-24.28361482400697
 30
0.0
 11
-6.349846328182819
 21
-24.84360747372219
 31
0.0
  0
ARC
  5
B97BA
330
18
100
AcDbEntity
  8
SK6
100
AcDbCircle
 10
-6.449846328182824
 20
-24.84360747372219
 30
0.0
 40
0.1
100
AcDbArc
 50
270.0
 51
0.0
  0
ARC
  5
B97BB
330
18
100
AcDbEntity
  8
SK6
100
AcDbCircle
 10
-6.449846328182824
 20
-24.28361482400697
 30
0.0
 40
0.1
100
AcDbArc
 50
0.0
 51
90.0
  0
LINE
  5
B97BC
330
18
100
AcDbEntity
  8
SK6
100
AcDbLine
 10
-6.449846328182824
 20
-24.9436074737222
 30
0.0
 11
-6.776996020443601
 21
-24.9436074737222
 31
0.0
  0
ARC
  5
B97BD
330
18
100
AcDbEntity
  8
SK6
100
AcDbCircle
 10
-6.776996020443601
 20
-25.04360747372219
 30
0.0
 40
0.1
100
AcDbArc
 50
90.0
 51
180.0
  0
LINE
  5
B97BE
330
18
100
AcDbEntity
  8
SK6
100
AcDbLine
 10
-6.876996020443602
 20
-25.04360747372219
 30
0.0
 11
-6.876996020443602
 21
-25.24760446624198
 31
0.0
  0
LINE
  5
B97BF
330
18
100
AcDbEntity
  8
SK6
100
AcDbLine
 10
-6.876996020443602
 20
-25.24760446624199
 30
0.0
 11
-6.601908603671058
 21
-25.24760446624198
 31
0.0
  0
LINE
  5
B97C0
330
18
100
AcDbEntity
  8
SK6
100
AcDbLine
 10
-6.501908603671057
 20
-25.34760446624198
 30
0.0
 11
-6.501908603671051
 21
-25.90759711595721
 31
0.0
  0
ARC
  5
B97C1
330
18
100
AcDbEntity
  8
SK6
100
AcDbCircle
 10
-6.601908603671058
 20
-25.90759711595721
 30
0.0
 40
0.1
100
AcDbArc
 50
270.0
 51
0.0000000000004071
  0
ARC
  5
B97C2
330
18
100
AcDbEntity
  8
SK6
100
AcDbCircle
 10
-6.601908603671058
 20
-25.34760446624198
 30
0.0
 40
0.1
100
AcDbArc
 50
0.0
 51
90.00000000000083
  0
LINE
  5
B97C3
330
18
100
AcDbEntity
  8
SK6
100
AcDbLine
 10
-6.601908603671058
 20
-26.00759711595721
 30
0.0
 11
-6.887133572700142
 21
-26.00759711595721
 31
0.0
  0
LINE
  5
B97C4
330
18
100
AcDbEntity
  8
SK6
100
AcDbLine
 10
-6.887133572700142
 20
-26.00759711595721
 30
0.0
 11
-6.887133572700128
 21
-29.16051343863189
 31
0.0
  0
LINE
  5
B97C5
330
18
100
AcDbEntity
  8
SK6
100
AcDbLine
 10
-4.056828400767996
 20
-29.16051343863189
 30
0.0
 11
-4.056828400767996
 21
-25.34459352783942
 31
0.0
  0
LINE
  5
B97C6
330
18
100
AcDbEntity
  8
SK6
100
AcDbLine
 10
-3.956828400767996
 20
-25.24459352783943
 30
0.0
 11
-2.771488405599363
 21
-25.24459352783943
 31
0.0
  0
ARC
  5
B97C7
330
18
100
AcDbEntity
  8
SK6
100
AcDbCircle
 10
-3.956828400767996
 20
-25.34459352783942
 30
0.0
 40
0.1
100
AcDbArc
 50
90.0
 51
180.0
  0
LINE
  5
B97C8
330
18
100
AcDbEntity
  8
SK6
100
AcDbLine
 10
-2.671488405599361
 20
-25.34459352783942
 30
0.0
 11
-2.671488405599361
 21
-25.34350987301234
 31
0.0
  0
ARC
  5
B97C9
330
18
100
AcDbEntity
  8
SK6
100
AcDbCircle
 10
-2.771488405599363
 20
-25.34459352783942
 30
0.0
 40
0.1
100
AcDbArc
 50
0.0
 51
90.0
  0
LINE
  5
B97CA
330
18
100
AcDbEntity
  8
SK6
100
AcDbLine
 10
0.9628596230926332
 20
-25.55063175386564
 30
0.0
 11
0.9628596230926332
 21
-29.16051343863189
 31
0.0
  0
LINE
  5
B97CB
330
18
100
AcDbEntity
  8
SK6
100
AcDbLine
 10
-2.637336756322837
 20
-29.16051343863189
 30
0.0
 11
-2.637336756322837
 21
-26.25038983394085
 31
0.0
  0
LINE
  5
B97CC
330
18
100
AcDbEntity
  8
SK6
100
AcDbLine
 10
-2.537336756322829
 20
-26.15038983394085
 30
0.0
 11
-2.32803969311304
 21
-26.15038983394085
 31
0.0
  0
ARC
  5
B97CD
330
18
100
AcDbEntity
  8
SK6
100
AcDbCircle
 10
-2.537336756322829
 20
-26.25038983394085
 30
0.0
 40
0.1
100
AcDbArc
 50
90.0
 51
180.0
  0
LINE
  5
B97CE
330
18
100
AcDbEntity
  8
SK6
100
AcDbLine
 10
-2.228039693113039
 20
-26.25038983394085
 30
0.0
 11
-2.228039693113039
 21
-29.1605134386319
 31
0.0
  0
ARC
  5
B97CF
330
18
100
AcDbEntity
  8
SK6
100
AcDbCircle
 10
-2.32803969311304
 20
-26.25038983394085
 30
0.0
 40
0.1
100
AcDbArc
 50
0.0
 51
90.0
  0
LINE
  5
B97D0
330
18
100
AcDbEntity
  8
SK6
100
AcDbLine
 10
-0.8398539975461359
 20
-29.16051343863189
 30
0.0
 11
-0.8398539975461359
 21
-26.25038983394085
 31
0.0
  0
LINE
  5
B97D1
330
18
100
AcDbEntity
  8
SK6
100
AcDbLine
 10
-0.7398539975461489
 20
-26.15038983394085
 30
0.0
 11
-0.530556934336353
 21
-26.15038983394085
 31
0.0
  0
ARC
  5
B97D2
330
18
100
AcDbEntity
  8
SK6
100
AcDbCircle
 10
-0.7398539975461489
 20
-26.25038983394085
 30
0.0
 40
0.1
100
AcDbArc
 50
90.0
 51
180.0
  0
LINE
  5
B97D3
330
18
100
AcDbEntity
  8
SK6
100
AcDbLine
 10
-0.4305569343363517
 20
-26.25038983394085
 30
0.0
 11
-0.4305569343363517
 21
-29.1605134386319
 31
0.0
  0
ARC
  5
B97D4
330
18
100
AcDbEntity
  8
SK6
100
AcDbCircle
 10
-0.530556934336353
 20
-26.25038983394085
 30
0.0
 40
0.1
100
AcDbArc
 50
0.0
 51
90.0
  0
LINE
  5
B97D5
330
18
100
AcDbEntity
  8
SK6
100
AcDbLine
 10
3.208342951463656
 20
-26.3913472895312
 30
0.0
 11
3.208342951463656
 21
-26.11360450900001
 31
0.0
  0
ARC
  5
B97D6
330
18
100
AcDbEntity
  8
SK6
100
AcDbCircle
 10
3.108342951463646
 20
-26.11360450900001
 30
0.0
 40
0.1
100
AcDbArc
 50
0.0
 51
89.9999999999992
  0
LINE
  5
B97D7
330
18
100
AcDbEntity
  8
SK6
100
AcDbLine
 10
3.108342951463646
 20
-26.01360450900001
 30
0.0
 11
2.88359264581274
 21
-26.01360450900001
 31
0.0
  0
ARC
  5
B97D8
330
18
100
AcDbEntity
  8
SK6
100
AcDbCircle
 10
2.88359264581274
 20
-26.11360450900001
 30
0.0
 40
0.1
100
AcDbArc
 50
90.0
 51
180.0
  0
LINE
  5
B97D9
330
18
100
AcDbEntity
  8
SK6
100
AcDbLine
 10
2.783592645812724
 20
-26.11360450900001
 30
0.0
 11
2.783592645812724
 21
-26.32952224855055
 31
0.0
  0
ARC
  5
B97DA
330
18
100
AcDbEntity
  8
SK6
100
AcDbCircle
 10
2.683592645812715
 20
-26.32952224855055
 30
0.0
 40
0.1
100
AcDbArc
 50
270.0
 51
0.0
  0
LINE
  5
B97DB
330
18
100
AcDbEntity
  8
SK6
100
AcDbLine
 10
2.683592645812715
 20
-26.42952224855056
 30
0.0
 11
1.465482339956643
 21
-26.42952224855056
 31
0.0
  0
ARC
  5
B97DC
330
18
100
AcDbEntity
  8
SK6
100
AcDbCircle
 10
1.465482339956643
 20
-26.32952224855055
 30
0.0
 40
0.1
100
AcDbArc
 50
180.0000000000004
 51
270.0
  0
LINE
  5
B97DD
330
18
100
AcDbEntity
  8
SK6
100
AcDbLine
 10
1.365482339956649
 20
-26.32952224855055
 30
0.0
 11
1.365482339956649
 21
-25.99469921419157
 31
0.0
  0
LINE
  5
B97DE
330
18
100
AcDbEntity
  8
SK6
100
AcDbLine
 10
2.189465979617509
 20
-25.24118647537922
 30
0.0
 11
4.099239819303797
 21
-25.24118647537922
 31
0.0
  0
LINE
  5
B97DF
330
18
100
AcDbEntity
  8
SK6
100
AcDbLine
 10
4.643270567647952
 20
-25.76550733049292
 30
0.0
 11
4.643270567647952
 21
-29.16051343863189
 31
0.0
  0
LINE
  5
B97E0
330
18
100
AcDbEntity
  8
SK6
100
AcDbLine
 10
3.14773565928506
 20
-26.4832614591162
 30
0.0
 11
1.9024384729166
 21
-27.01697272947762
 31
0.0
  0
ARC
  5
B97E1
330
18
100
AcDbEntity
  8
SK6
100
AcDbCircle
 10
3.108342951463646
 20
-26.3913472895312
 30
0.0
 40
0.1
100
AcDbArc
 50
293.1990754654612
 51
0.0
  0
LINE
  5
B97E2
330
18
100
AcDbEntity
  8
SK6
100
AcDbLine
 10
2.96599951373718
 20
-29.07768585646739
 30
0.0
 11
3.241237561556076
 21
-28.94835495347384
 31
0.0
  0
LINE
  5
B97E3
330
18
100
AcDbEntity
  8
SK6
100
AcDbLine
 10
3.241237561556076
 20
-28.94835495347384
 30
0.0
 11
3.241237561556076
 21
-29.16051343863189
 31
0.0
  0
LINE
  5
B97E4
330
18
100
AcDbEntity
  8
SK6
100
AcDbLine
 10
3.214733310072681
 20
-27.59775331312013
 30
0.0
 11
3.214733310072681
 21
-28.2449176274241
 31
0.0
  0
ARC
  5
B97E5
330
18
100
AcDbEntity
  8
SK6
100
AcDbCircle
 10
3.114733310072671
 20
-28.2449176274241
 30
0.0
 40
0.1
100
AcDbArc
 50
269.9999999999992
 51
0.0
  0
ARC
  5
B97E6
330
18
100
AcDbEntity
  8
SK6
100
AcDbCircle
 10
3.114733310072671
 20
-27.59775331312013
 30
0.0
 40
0.1
100
AcDbArc
 50
0.0
 51
118.2073252277664
  0
LINE
  5
B97E7
330
18
100
AcDbEntity
  8
SK6
100
AcDbLine
 10
3.114733310072671
 20
-28.34491762742409
 30
0.0
 11
2.893372734273121
 21
-28.34491762742409
 31
0.0
  0
ARC
  5
B97E8
330
18
100
AcDbEntity
  8
SK6
100
AcDbCircle
 10
2.893372734273121
 20
-28.24491762742409
 30
0.0
 40
0.1
100
AcDbArc
 50
180.0
 51
270.0
  0
LINE
  5
B97E9
330
18
100
AcDbEntity
  8
SK6
100
AcDbLine
 10
2.79337273427312
 20
-28.24491762742409
 30
0.0
 11
2.79337273427312
 21
-27.71648225240024
 31
0.0
  0
LINE
  5
B97EA
330
18
100
AcDbEntity
  8
SK6
100
AcDbLine
 10
2.846106390765711
 20
-27.62835794944447
 30
0.0
 11
3.067466966565277
 21
-27.50962901016436
 31
0.0
  0
ARC
  5
B97EB
330
18
100
AcDbEntity
  8
SK6
100
AcDbCircle
 10
2.893372734273121
 20
-27.71648225240024
 30
0.0
 40
0.1
100
AcDbArc
 50
118.2073252277659
 51
180.0
  0
LINE
  5
B97EC
330
18
100
AcDbEntity
  8
SK6
100
AcDbLine
 10
5.173335505057565
 20
-29.16051343863189
 30
0.0
 11
5.173335505057565
 21
-25.23259187818941
 31
0.0
  0
LINE
  5
B97ED
330
18
100
AcDbEntity
  8
SK6
100
AcDbLine
 10
5.173335505057565
 20
-25.23259187818941
 30
0.0
 11
6.595782694459201
 21
-25.23259187818941
 31
0.0
  0
LINE
  5
B97EE
330
18
100
AcDbEntity
  8
SK6
100
AcDbLine
 10
6.595782694459201
 20
-25.2325918781894
 30
0.0
 11
6.595782694459201
 21
-25.49549102673213
 31
0.0
  0
LINE
  5
B97EF
330
18
100
AcDbEntity
  8
SK6
100
AcDbLine
 10
8.502604998790829
 20
-25.86306584722708
 30
0.0
 11
8.502604998790829
 21
-29.16051343863189
 31
0.0
  0
LINE
  5
B97F0
330
18
100
AcDbEntity
  8
SK6
100
AcDbLine
 10
6.628659280103285
 20
-29.16051343863189
 30
0.0
 11
6.628659280103285
 21
-26.34444913357103
 31
0.0
  0
LINE
  5
B97F1
330
18
100
AcDbEntity
  8
SK6
100
AcDbLine
 10
6.828659280103295
 20
-26.14444913357103
 30
0.0
 11
6.82945585610733
 21
-26.14444913357103
 31
0.0
  0
ARC
  5
B97F2
330
18
100
AcDbEntity
  8
SK6
100
AcDbCircle
 10
6.828659280103295
 20
-26.34444913357103
 30
0.0
 40
0.2
100
AcDbArc
 50
90.0
 51
180.0
  0
LINE
  5
B97F3
330
18
100
AcDbEntity
  8
SK6
100
AcDbLine
 10
7.029455856107331
 20
-26.34444913357103
 30
0.0
 11
7.029455856107331
 21
-29.16051343863189
 31
0.0
  0
ARC
  5
B97F4
330
18
100
AcDbEntity
  8
SK6
100
AcDbCircle
 10
6.82945585610733
 20
-26.34444913357103
 30
0.0
 40
0.2
100
AcDbArc
 50
0.0
 51
90.0
  0
ARC
  5
B97F5
330
18
100
AcDbEntity
  8
SK6
100
AcDbCircle
 10
7.485213206872272
 20
-26.90938608707909
 30
0.0
 40
1.672691483050659
100
AcDbArc
 50
79.72472632889291
 51
122.12283402442
  0
ARC
  5
B97F6
330
18
100
AcDbEntity
  8
SK6
100
AcDbCircle
 10
7.062489261569254
 20
-27.00876308991887
 30
0.0
 40
1.888345110934416
100
AcDbArc
 50
42.73370347434776
 51
67.55069031538738
  0
ARC
  5
B97F7
330
18
100
AcDbEntity
  8
SK6
100
AcDbCircle
 10
8.302604998790817
 20
-25.86306584722708
 30
0.0
 40
0.2
100
AcDbArc
 50
0.0
 51
42.73370347434776
  0
LINE
  5
B97F8
330
18
100
AcDbEntity
  8
SK6
100
AcDbLine
 10
9.011495576832333
 20
-29.17967139186846
 30
0.0
 11
10.46681935187804
 21
-29.17967139186846
 31
0.0
  0
LINE
  5
B97F9
330
18
100
AcDbEntity
  8
SK6
100
AcDbLine
 10
10.86761592788207
 20
-29.17967139186847
 30
0.0
 11
12.34076507056557
 21
-29.17967139186846
 31
0.0
  0
LINE
  5
B97FA
330
18
100
AcDbEntity
  8
SK6
100
AcDbLine
 10
9.011495576832333
 20
-29.17967139186846
 30
0.0
 11
9.011495576832333
 21
-25.25174983142598
 31
0.0
  0
LINE
  5
B97FB
330
18
100
AcDbEntity
  8
SK6
100
AcDbLine
 10
9.011495576832333
 20
-25.25174983142598
 30
0.0
 11
10.43394276623395
 21
-25.25174983142598
 31
0.0
  0
LINE
  5
B97FC
330
18
100
AcDbEntity
  8
SK6
100
AcDbLine
 10
10.43394276623395
 20
-25.25174983142598
 30
0.0
 11
10.43394276623395
 21
-25.51464897996869
 31
0.0
  0
LINE
  5
B97FD
330
18
100
AcDbEntity
  8
SK6
100
AcDbLine
 10
12.34076507056557
 20
-25.88222380046365
 30
0.0
 11
12.34076507056557
 21
-29.17967139186846
 31
0.0
  0
LINE
  5
B97FE
330
18
100
AcDbEntity
  8
SK6
100
AcDbLine
 10
10.46681935187804
 20
-29.17967139186846
 30
0.0
 11
10.46681935187804
 21
-26.36360708680761
 31
0.0
  0
LINE
  5
B97FF
330
18
100
AcDbEntity
  8
SK6
100
AcDbLine
 10
10.66681935187804
 20
-26.1636070868076
 30
0.0
 11
10.66761592788208
 21
-26.1636070868076
 31
0.0
  0
ARC
  5
B9800
330
18
100
AcDbEntity
  8
SK6
100
AcDbCircle
 10
10.66681935187804
 20
-26.36360708680761
 30
0.0
 40
0.2
100
AcDbArc
 50
90.0
 51
180.0
  0
LINE
  5
B9801
330
18
100
AcDbEntity
  8
SK6
100
AcDbLine
 10
10.86761592788207
 20
-26.36360708680761
 30
0.0
 11
10.86761592788207
 21
-29.17967139186846
 31
0.0
  0
ARC
  5
B9802
330
18
100
AcDbEntity
  8
SK6
100
AcDbCircle
 10
10.66761592788208
 20
-26.36360708680761
 30
0.0
 40
0.2
100
AcDbArc
 50
0.0
 51
90.0
  0
ARC
  5
B9803
330
18
100
AcDbEntity
  8
SK6
100
AcDbCircle
 10
11.32337327864702
 20
-26.92854404031566
 30
0.0
 40
1.672691483050659
100
AcDbArc
 50
79.72472632889291
 51
122.12283402442
  0
ARC
  5
B9804
330
18
100
AcDbEntity
  8
SK6
100
AcDbCircle
 10
10.900649333344
 20
-27.02792104315545
 30
0.0
 40
1.888345110934416
100
AcDbArc
 50
42.73370347434776
 51
67.55069031538738
  0
ARC
  5
B9805
330
18
100
AcDbEntity
  8
SK6
100
AcDbCircle
 10
12.14076507056558
 20
-25.88222380046365
 30
0.0
 40
0.2
100
AcDbArc
 50
0.0
 51
42.73370347434776
  0
LINE
  5
B9806
330
18
100
AcDbEntity
  8
SK6
100
AcDbLine
 10
-6.022657043378227
 20
-29.16051343863189
 30
0.0
 11
-4.6034077943408
 21
-29.16051343863188
 31
0.0
  0
LINE
  5
B9807
330
18
100
AcDbEntity
  8
SK6
100
AcDbLine
 10
-6.022657043378227
 20
-29.16051343863189
 30
0.0
 11
-6.022657043378227
 21
-26.00759711595721
 31
0.0
  0
LINE
  5
B9808
330
18
100
AcDbEntity
  8
SK6
100
AcDbLine
 10
-6.022657043378227
 20
-26.00759711595721
 30
0.0
 11
-6.338294164996826
 21
-26.00759711595721
 31
0.0
  0
LINE
  5
B9809
330
18
100
AcDbEntity
  8
SK6
100
AcDbLine
 10
-6.438294164996828
 20
-25.90759711595721
 30
0.0
 11
-6.438294164996828
 21
-25.36787095486539
 31
0.0
  0
ARC
  5
B980A
330
18
100
AcDbEntity
  8
SK6
100
AcDbCircle
 10
-6.338294164996826
 20
-25.90759711595721
 30
0.0
 40
0.1
100
AcDbArc
 50
180.0
 51
270.0
  0
LINE
  5
B980B
330
18
100
AcDbEntity
  8
SK6
100
AcDbLine
 10
-6.338294164996836
 20
-25.26787095486539
 30
0.0
 11
-6.04293214789142
 21
-25.2678709548654
 31
0.0
  0
ARC
  5
B980C
330
18
100
AcDbEntity
  8
SK6
100
AcDbCircle
 10
-6.338294164996836
 20
-25.36787095486539
 30
0.0
 40
0.1
100
AcDbArc
 50
90.0
 51
180.0
  0
LINE
  5
B980D
330
18
100
AcDbEntity
  8
SK6
100
AcDbLine
 10
-6.04293214789142
 20
-25.26787095486542
 30
0.0
 11
-6.04293214789142
 21
-24.28361482400697
 31
0.0
  0
LINE
  5
B980E
330
18
100
AcDbEntity
  8
SK6
100
AcDbLine
 10
-5.942932147891422
 20
-24.18361482400697
 30
0.0
 11
-4.166120549823513
 21
-24.18361482400697
 31
0.0
  0
ARC
  5
B980F
330
18
100
AcDbEntity
  8
SK6
100
AcDbCircle
 10
-5.942932147891422
 20
-24.28361482400697
 30
0.0
 40
0.1
100
AcDbArc
 50
90.0
 51
180.0
  0
LINE
  5
B9810
330
18
100
AcDbEntity
  8
SK6
100
AcDbLine
 10
-4.066120549823511
 20
-24.28361482400697
 30
0.0
 11
-4.066120549823511
 21
-24.84360747372219
 31
0.0
  0
ARC
  5
B9811
330
18
100
AcDbEntity
  8
SK6
100
AcDbCircle
 10
-4.166120549823513
 20
-24.84360747372219
 30
0.0
 40
0.1
100
AcDbArc
 50
270.0
 51
0.0
  0
ARC
  5
B9812
330
18
100
AcDbEntity
  8
SK6
100
AcDbCircle
 10
-4.166120549823513
 20
-24.28361482400697
 30
0.0
 40
0.1
100
AcDbArc
 50
0.0
 51
90.0
  0
LINE
  5
B9813
330
18
100
AcDbEntity
  8
SK6
100
AcDbLine
 10
-4.166120549823513
 20
-24.9436074737222
 30
0.0
 11
-4.493270242084268
 21
-24.9436074737222
 31
0.0
  0
ARC
  5
B9814
330
18
100
AcDbEntity
  8
SK6
100
AcDbCircle
 10
-4.493270242084268
 20
-25.04360747372219
 30
0.0
 40
0.1
100
AcDbArc
 50
90.0
 51
180.0
  0
LINE
  5
B9815
330
18
100
AcDbEntity
  8
SK6
100
AcDbLine
 10
-4.593270242084268
 20
-25.04360747372219
 30
0.0
 11
-4.593270242084268
 21
-25.24760446624198
 31
0.0
  0
LINE
  5
B9816
330
18
100
AcDbEntity
  8
SK6
100
AcDbLine
 10
-4.593270242084268
 20
-25.24760446624199
 30
0.0
 11
-4.318182825311732
 21
-25.24760446624198
 31
0.0
  0
LINE
  5
B9817
330
18
100
AcDbEntity
  8
SK6
100
AcDbLine
 10
-4.218182825311731
 20
-25.34760446624198
 30
0.0
 11
-4.218182825311731
 21
-25.90759711595721
 31
0.0
  0
ARC
  5
B9818
330
18
100
AcDbEntity
  8
SK6
100
AcDbCircle
 10
-4.318182825311732
 20
-25.90759711595721
 30
0.0
 40
0.1
100
AcDbArc
 50
270.0
 51
0.0000000000004071
  0
ARC
  5
B9819
330
18
100
AcDbEntity
  8
SK6
100
AcDbCircle
 10
-4.318182825311732
 20
-25.34760446624198
 30
0.0
 40
0.1
100
AcDbArc
 50
0.0
 51
90.00000000000083
  0
LINE
  5
B981A
330
18
100
AcDbEntity
  8
SK6
100
AcDbLine
 10
-4.318182825311732
 20
-26.00759711595721
 30
0.0
 11
-4.603407794340809
 21
-26.00759711595721
 31
0.0
  0
LINE
  5
B981B
330
18
100
AcDbEntity
  8
SK6
100
AcDbLine
 10
-4.603407794340809
 20
-26.00759711595721
 30
0.0
 11
-4.603407794340809
 21
-29.16051343863189
 31
0.0
  0
ARC
  5
B981C
330
18
100
AcDbEntity
  8
SK6
100
AcDbCircle
 10
-1.746266352237156
 20
-26.85476614269941
 30
0.0
 40
1.621884708690989
100
AcDbArc
 50
59.15040205138367
 51
118.6367636702604
  0
ARC
  5
B981D
330
18
100
AcDbEntity
  8
SK6
100
AcDbCircle
 10
-0.8633075849692133
 20
-25.3765000078886
 30
0.0
 40
0.1
100
AcDbArc
 50
239.1504020513837
 51
300.7875582762152
  0
ARC
  5
B981E
330
18
100
AcDbEntity
  8
SK6
100
AcDbCircle
 10
-2.571488405599359
 20
-25.34350987301234
 30
0.0
 40
0.1
100
AcDbArc
 50
180.0
 51
298.6367636702608
  0
ARC
  5
B981F
330
18
100
AcDbEntity
  8
SK6
100
AcDbCircle
 10
0.0490231407064741
 20
-26.90770492351207
 30
0.0
 40
1.682396097011378
100
AcDbArc
 50
59.04889315218223
 51
120.7875582762143
  0
ARC
  5
B9820
330
18
100
AcDbEntity
  8
SK6
100
AcDbCircle
 10
0.8628596230926318
 20
-25.55063175386564
 30
0.0
 40
0.1
100
AcDbArc
 50
0.0
 51
59.04889315218279
  0
ARC
  5
B9821
330
18
100
AcDbEntity
  8
SK6
100
AcDbCircle
 10
2.104175957737666
 20
-25.97519883090632
 30
0.0
 40
0.7389509631218394
100
AcDbArc
 50
83.37212585815498
 51
181.512169868549
  0
ARC
  5
B9822
330
18
100
AcDbEntity
  8
SK6
100
AcDbCircle
 10
3.950658637860668
 20
-25.93975422236778
 30
0.0
 40
0.7141941365005115
100
AcDbArc
 50
14.12138146088837
 51
77.9924649481997
  0
ARC
  5
B9823
330
18
100
AcDbEntity
  8
SK6
100
AcDbCircle
 10
2.672866415372466
 20
-28.1107537910568
 30
0.0
 40
1.337877507541725
100
AcDbArc
 50
125.1748280922631
 51
209.2520971501817
  0
ARC
  5
B9824
330
18
100
AcDbEntity
  8
SK6
100
AcDbCircle
 10
2.413356270792475
 20
-28.09310649349338
 30
0.0
 40
1.129075318996369
100
AcDbArc
 50
216.4877329319074
 51
299.3054464503351
  0
LINE
  5
B9825
330
18
100
AcDbEntity
  8
SK6
100
AcDbLine
 10
-14.85447050961731
 20
-33.24640347480232
 30
0.0
 11
-14.8882388424845
 21
-33.24640347480232
 31
0.0
  0
ARC
  5
B9826
330
18
100
AcDbEntity
  8
SK6
100
AcDbCircle
 10
-14.8882388424845
 20
-33.09640347480232
 30
0.0
 40
0.15
100
AcDbArc
 50
180.0
 51
270.0
  0
LINE
  5
B9827
330
18
100
AcDbEntity
  8
SK6
100
AcDbLine
 10
-15.03823884248449
 20
-33.09640347480232
 30
0.0
 11
-15.03823884248449
 21
-32.2771776764744
 31
0.0
  0
LINE
  5
B9828
330
18
100
AcDbEntity
  8
SK6
100
AcDbLine
 10
-14.88823884248448
 20
-32.1271776764744
 30
0.0
 11
-12.88284995138796
 21
-32.1271776764744
 31
0.0
  0
ARC
  5
B9829
330
18
100
AcDbEntity
  8
SK6
100
AcDbCircle
 10
-14.88823884248448
 20
-32.2771776764744
 30
0.0
 40
0.15
100
AcDbArc
 50
90.0
 51
180.0
  0
LINE
  5
B982A
330
18
100
AcDbEntity
  8
SK6
100
AcDbLine
 10
-12.73284995138796
 20
-32.2771776764744
 30
0.0
 11
-12.73284995138796
 21
-35.01440184432631
 31
0.0
  0
ARC
  5
B982B
330
18
100
AcDbEntity
  8
SK6
100
AcDbCircle
 10
-12.88284995138796
 20
-32.2771776764744
 30
0.0
 40
0.15
100
AcDbArc
 50
0.0
 51
90.0
  0
LINE
  5
B982C
330
18
100
AcDbEntity
  8
SK6
100
AcDbLine
 10
-12.73284995138796
 20
-35.01440184432631
 30
0.0
 11
-13.66672543136242
 21
-35.01440184432631
 31
0.0
  0
LINE
  5
B982D
330
18
100
AcDbEntity
  8
SK6
100
AcDbLine
 10
-13.8041970972071
 20
-34.92441468536795
 30
0.0
 11
-13.90903131121072
 21
-34.68427051311329
 31
0.0
  0
LINE
  5
B982E
330
18
100
AcDbEntity
  8
SK6
100
AcDbLine
 10
-12.73284995138796
 20
-35.01440184432631
 30
0.0
 11
-13.66672543136242
 21
-35.01440184432631
 31
0.0
  0
ARC
  5
B982F
330
18
100
AcDbEntity
  8
SK6
100
AcDbCircle
 10
-13.66672543136242
 20
-34.86440184432631
 30
0.0
 40
0.15
100
AcDbArc
 50
203.583530290058
 51
270.0
  0
LINE
  5
B9830
330
18
100
AcDbEntity
  8
SK6
100
AcDbLine
 10
-14.49615869318237
 20
-35.01440184432631
 30
0.0
 11
-16.37674452878943
 21
-35.01440184432631
 31
0.0
  0
LINE
  5
B9831
330
18
100
AcDbEntity
  8
SK6
100
AcDbLine
 10
-17.17511121751253
 20
-34.02896076761152
 30
0.0
 11
-17.17511121751253
 21
-31.1822608108911
 31
0.0
  0
LINE
  5
B9832
330
18
100
AcDbEntity
  8
SK6
100
AcDbLine
 10
-15.97511121751253
 20
-29.98226081089111
 30
0.0
 11
-13.42410444079744
 21
-29.98226081089111
 31
0.0
  0
ARC
  5
B9833
330
18
100
AcDbEntity
  8
SK6
100
AcDbCircle
 10
-15.97511121751253
 20
-31.1822608108911
 30
0.0
 40
1.199999999999999
100
AcDbArc
 50
90.0
 51
180.0
  0
LINE
  5
B9834
330
18
100
AcDbEntity
  8
SK6
100
AcDbLine
 10
-12.72410444079743
 20
-30.68226081089111
 30
0.0
 11
-12.72410444079743
 21
-31.4212743741753
 31
0.0
  0
ARC
  5
B9835
330
18
100
AcDbEntity
  8
SK6
100
AcDbCircle
 10
-12.87410444079744
 20
-31.4212743741753
 30
0.0
 40
0.15
100
AcDbArc
 50
270.0
 51
0.0000000000004071
  0
ARC
  5
B9836
330
18
100
AcDbEntity
  8
SK6
100
AcDbCircle
 10
-13.42410444079744
 20
-30.68226081089111
 30
0.0
 40
0.7
100
AcDbArc
 50
0.0
 51
90.0
  0
LINE
  5
B9837
330
18
100
AcDbEntity
  8
SK6
100
AcDbLine
 10
-12.87410444079744
 20
-31.5712743741753
 30
0.0
 11
-14.55447050961731
 21
-31.5712743741753
 31
0.0
  0
ARC
  5
B9838
330
18
100
AcDbEntity
  8
SK6
100
AcDbCircle
 10
-14.55447050961731
 20
-31.4212743741753
 30
0.0
 40
0.15
100
AcDbArc
 50
180.0
 51
270.0
  0
LINE
  5
B9839
330
18
100
AcDbEntity
  8
SK6
100
AcDbLine
 10
-14.70447050961731
 20
-31.4212743741753
 30
0.0
 11
-14.70447050961731
 21
-31.27688930504743
 31
0.0
  0
ARC
  5
B983A
330
18
100
AcDbEntity
  8
SK6
100
AcDbCircle
 10
-14.85447050961731
 20
-31.27688930504743
 30
0.0
 40
0.15
100
AcDbArc
 50
0.0
 51
90.0
  0
LINE
  5
B983B
330
18
100
AcDbEntity
  8
SK6
100
AcDbLine
 10
-14.85447050961731
 20
-31.12688930504744
 30
0.0
 11
-15.06640152107706
 21
-31.12688930504744
 31
0.0
  0
ARC
  5
B983C
330
18
100
AcDbEntity
  8
SK6
100
AcDbCircle
 10
-15.06640152107706
 20
-31.27688930504743
 30
0.0
 40
0.15
100
AcDbArc
 50
90.0000000000004
 51
180.0
  0
LINE
  5
B983D
330
18
100
AcDbEntity
  8
SK6
100
AcDbLine
 10
-15.21640152107706
 20
-31.27688930504743
 30
0.0
 11
-15.21640152107707
 21
-33.76439613769582
 31
0.0
  0
LINE
  5
B983E
330
18
100
AcDbEntity
  8
SK6
100
AcDbLine
 10
-15.06640152107706
 20
-33.91439613769582
 30
0.0
 11
-14.85447050961731
 21
-33.91439613769582
 31
0.0
  0
ARC
  5
B983F
330
18
100
AcDbEntity
  8
SK6
100
AcDbCircle
 10
-15.06640152107706
 20
-33.76439613769582
 30
0.0
 40
0.15
100
AcDbArc
 50
180.0
 51
269.9999999999992
  0
ARC
  5
B9840
330
18
100
AcDbEntity
  8
SK6
100
AcDbCircle
 10
-14.85447050961731
 20
-33.76439613769582
 30
0.0
 40
0.15
100
AcDbArc
 50
270.0
 51
0.0000000000004071
  0
LINE
  5
B9841
330
18
100
AcDbEntity
  8
SK6
100
AcDbLine
 10
-14.70447050961732
 20
-33.76439613769582
 30
0.0
 11
-14.70447050961731
 21
-33.3964034748023
 31
0.0
  0
ARC
  5
B9842
330
18
100
AcDbEntity
  8
SK6
100
AcDbCircle
 10
-14.85447050961731
 20
-33.3964034748023
 30
0.0
 40
0.15
100
AcDbArc
 50
0.0000000000004071
 51
90.00000000000122
  0
LINE
  5
B9843
330
18
100
AcDbEntity
  8
SK6
100
AcDbLine
 10
-12.38599909353123
 20
-35.00429399993012
 30
0.0
 11
-12.38599909353123
 21
-31.08649072364154
 31
0.0
  0
LINE
  5
B9844
330
18
100
AcDbEntity
  8
SK6
100
AcDbLine
 10
-12.38599909353123
 20
-31.08649072364154
 30
0.0
 11
-10.9727602331376
 21
-31.08649072364154
 31
0.0
  0
LINE
  5
B9845
330
18
100
AcDbEntity
  8
SK6
100
AcDbLine
 10
-10.9727602331376
 20
-31.08649072364154
 30
0.0
 11
-10.9727602331376
 21
-31.3423487427104
 31
0.0
  0
LINE
  5
B9846
330
18
100
AcDbEntity
  8
SK6
100
AcDbLine
 10
-9.154057040097885
 20
-31.92235042079777
 30
0.0
 11
-9.154057040097885
 21
-32.64857189932185
 31
0.0
  0
LINE
  5
B9847
330
18
100
AcDbEntity
  8
SK6
100
AcDbLine
 10
-9.154057040097885
 20
-32.64857189932185
 30
0.0
 11
-10.56860430413782
 21
-32.64857189932185
 31
0.0
  0
LINE
  5
B9848
330
18
100
AcDbEntity
  8
SK6
100
AcDbLine
 10
-10.56860430413782
 20
-32.64857189932185
 30
0.0
 11
-10.56860430413782
 21
-32.16565978013493
 31
0.0
  0
ARC
  5
B9849
330
18
100
AcDbEntity
  8
SK6
100
AcDbCircle
 10
-10.71860430413782
 20
-32.16565978013493
 30
0.0
 40
0.15
100
AcDbArc
 50
0.0
 51
90.00000000000083
  0
LINE
  5
B984A
330
18
100
AcDbEntity
  8
SK6
100
AcDbLine
 10
-10.71860430413782
 20
-32.01565978013493
 30
0.0
 11
-10.8227602331376
 21
-32.01565978013493
 31
0.0
  0
ARC
  5
B984B
330
18
100
AcDbEntity
  8
SK6
100
AcDbCircle
 10
-10.8227602331376
 20
-32.16565978013492
 30
0.0
 40
0.15
100
AcDbArc
 50
90.0
 51
180.0
  0
LINE
  5
B984C
330
18
100
AcDbEntity
  8
SK6
100
AcDbLine
 10
-10.9727602331376
 20
-32.16565978013492
 30
0.0
 11
-10.9727602331376
 21
-35.00509761638031
 31
0.0
  0
LINE
  5
B984D
330
18
100
AcDbEntity
  8
SK6
100
AcDbLine
 10
-5.395573279882131
 20
-31.09832867309423
 30
0.0
 11
-3.959680536661508
 21
-31.09832867309423
 31
0.0
  0
LINE
  5
B984E
330
18
100
AcDbEntity
  8
SK6
100
AcDbLine
 10
-3.959680536661508
 20
-31.09832867309423
 30
0.0
 11
-3.959680536661508
 21
-33.98497373276193
 31
0.0
  0
LINE
  5
B984F
330
18
100
AcDbEntity
  8
SK6
100
AcDbLine
 10
-3.809680536661502
 20
-34.13497373276193
 30
0.0
 11
-3.694339873029015
 21
-34.13497373276192
 31
0.0
  0
ARC
  5
B9850
330
18
100
AcDbEntity
  8
SK6
100
AcDbCircle
 10
-3.809680536661502
 20
-33.98497373276193
 30
0.0
 40
0.15
100
AcDbArc
 50
180.0
 51
270.0
  0
LINE
  5
B9851
330
18
100
AcDbEntity
  8
SK6
100
AcDbLine
 10
-3.544339873029008
 20
-33.98497373276193
 30
0.0
 11
-3.544339873029008
 21
-31.12205240209847
 31
0.0
  0
ARC
  5
B9852
330
18
100
AcDbEntity
  8
SK6
100
AcDbCircle
 10
-3.694339873029015
 20
-33.98497373276193
 30
0.0
 40
0.15
100
AcDbArc
 50
269.9999999999992
 51
0.0
  0
LINE
  5
B9853
330
18
100
AcDbEntity
  8
SK6
100
AcDbLine
 10
-3.544339873029008
 20
-31.12205240209847
 30
0.0
 11
-2.084713348790514
 21
-31.12205240209847
 31
0.0
  0
LINE
  5
B9854
330
18
100
AcDbEntity
  8
SK6
100
AcDbLine
 10
-2.084713348790514
 20
-31.12205240209847
 30
0.0
 11
-2.084713348790514
 21
-35.01015169647296
 31
0.0
  0
LINE
  5
B9855
330
18
100
AcDbEntity
  8
SK6
100
AcDbLine
 10
-5.395573279882131
 20
-31.09832867309423
 30
0.0
 11
-5.395573279882131
 21
-34.0733608535891
 31
0.0
  0
LINE
  5
B9856
330
18
100
AcDbEntity
  8
SK6
100
AcDbLine
 10
-12.38599909353123
 20
-35.00429399523798
 30
0.0
 11
-10.9727602331376
 21
-35.00509761638031
 31
0.0
  0
LINE
  5
B9857
330
18
100
AcDbEntity
  8
SK6
100
AcDbLine
 10
-3.500052175820548
 20
-35.00934688121005
 30
0.0
 11
-2.084713348790522
 21
-35.01015169647296
 31
0.0
  0
LINE
  5
B9858
330
18
100
AcDbEntity
  8
SK6
100
AcDbLine
 10
-3.500052175820548
 20
-35.00934688121005
 30
0.0
 11
-3.500052175820548
 21
-34.77432958655337
 31
0.0
  0
LINE
  5
B9859
330
18
100
AcDbEntity
  8
SK6
100
AcDbLine
 10
-1.771309360340424
 20
-31.11026969304153
 30
0.0
 11
-1.771309360340424
 21
-36.0711630786724
 31
0.0
  0
LINE
  5
B985A
330
18
100
AcDbEntity
  8
SK6
100
AcDbLine
 10
-1.771309360340424
 20
-36.0711630786724
 30
0.0
 11
-0.2151988703070771
 21
-36.0711630786724
 31
0.0
  0
LINE
  5
B985B
330
18
100
AcDbEntity
  8
SK6
100
AcDbLine
 10
-0.2151988703070771
 20
-36.0711630786724
 30
0.0
 11
-0.2151988703070771
 21
-34.91047715201551
 31
0.0
  0
LINE
  5
B985C
330
18
100
AcDbEntity
  8
SK6
100
AcDbLine
 10
-1.771309360340424
 20
-31.11026969304153
 30
0.0
 11
-0.3474695501404383
 21
-31.11026969304153
 31
0.0
  0
LINE
  5
B985D
330
18
100
AcDbEntity
  8
SK6
100
AcDbLine
 10
-0.3474695501404383
 20
-31.11026969304153
 30
0.0
 11
-0.3474695501404383
 21
-31.37036274429249
 31
0.0
  0
LINE
  5
B985E
330
18
100
AcDbEntity
  8
SK6
100
AcDbLine
 10
1.585079559731397
 20
-31.9982416888134
 30
0.0
 11
1.585079559731397
 21
-34.18339280157046
 31
0.0
  0
LINE
  5
B985F
330
18
100
AcDbEntity
  8
SK6
100
AcDbLine
 10
-0.1396088164620792
 20
-31.98855560837331
 30
0.0
 11
-0.0693000200848601
 21
-31.98855560837332
 31
0.0
  0
ARC
  5
B9860
330
18
100
AcDbEntity
  8
SK6
100
AcDbCircle
 10
-0.1396088164620792
 20
-32.13855560837331
 30
0.0
 40
0.15
100
AcDbArc
 50
90.0
 51
180.0
  0
LINE
  5
B9861
330
18
100
AcDbEntity
  8
SK6
100
AcDbLine
 10
0.0806999799151456
 20
-32.13855560837331
 30
0.0
 11
0.0806999799151456
 21
-34.09417692178492
 31
0.0
  0
ARC
  5
B9862
330
18
100
AcDbEntity
  8
SK6
100
AcDbCircle
 10
-0.0693000200848601
 20
-32.13855560837331
 30
0.0
 40
0.15
100
AcDbArc
 50
0.0
 51
89.9999999999992
  0
ARC
  5
B9863
330
18
100
AcDbEntity
  8
SK6
100
AcDbCircle
 10
-0.0693000200848673
 20
-34.09417692178492
 30
0.0
 40
0.15
100
AcDbArc
 50
269.999999999998
 51
0.0
  0
LINE
  5
B9864
330
18
100
AcDbEntity
  8
SK6
100
AcDbLine
 10
-0.0693000200848673
 20
-34.24417692178493
 30
0.0
 11
-0.1396088164620792
 21
-34.24417692178491
 31
0.0
  0
ARC
  5
B9865
330
18
100
AcDbEntity
  8
SK6
100
AcDbCircle
 10
-0.1396088164620792
 20
-34.09417692178492
 30
0.0
 40
0.15
100
AcDbArc
 50
180.0
 51
270.0
  0
LINE
  5
B9866
330
18
100
AcDbEntity
  8
SK6
100
AcDbLine
 10
-0.289608816462092
 20
-34.09417692178492
 30
0.0
 11
-0.289608816462092
 21
-32.13855560837331
 31
0.0
  0
ARC
  5
B9867
330
18
100
AcDbEntity
  8
SK6
100
AcDbCircle
 10
-16.32386088658916
 20
-34.15543391516033
 30
0.0
 40
0.860594319611774
100
AcDbArc
 50
169.9269092156038
 51
266.4769466536812
  0
ARC
  5
B9868
330
18
100
AcDbEntity
  8
SK6
100
AcDbCircle
 10
-14.52026939852566
 20
-34.28436303318158
 30
0.0
 40
0.7304368500354838
100
AcDbArc
 50
271.8915976689506
 51
326.8049566129878
  0
ARC
  5
B9869
330
18
100
AcDbEntity
  8
SK6
100
AcDbCircle
 10
-10.35122265067825
 20
-32.53484398159712
 30
0.0
 40
1.344750482869192
100
AcDbArc
 50
27.0951817260015
 51
117.5288682024737
  0
LINE
  5
B986A
330
18
100
AcDbEntity
  8
SK6
100
AcDbLine
 10
-8.093271653708892
 20
-34.97187953714303
 30
0.0
 11
-6.738349842072027
 21
-34.97187953714303
 31
0.0
  0
ARC
  5
B986B
330
18
100
AcDbEntity
  8
SK6
100
AcDbCircle
 10
-8.093271653708892
 20
-33.97187953714303
 30
0.0
 40
1.0
100
AcDbArc
 50
180.0
 51
270.0
  0
LINE
  5
B986C
330
18
100
AcDbEntity
  8
SK6
100
AcDbLine
 10
-9.093271653708896
 20
-32.03884722959436
 30
0.0
 11
-9.093271653708892
 21
-33.97187953714303
 31
0.0
  0
LINE
  5
B986D
330
18
100
AcDbEntity
  8
SK6
100
AcDbLine
 10
-5.738349842072027
 20
-33.97187953714303
 30
0.0
 11
-5.738349842072027
 21
-32.03884722959436
 31
0.0
  0
ARC
  5
B986E
330
18
100
AcDbEntity
  8
SK6
100
AcDbCircle
 10
-6.738349842072027
 20
-33.97187953714304
 30
0.0
 40
1.0
100
AcDbArc
 50
270.0
 51
0.0000000000004071
  0
ARC
  5
B986F
330
18
100
AcDbEntity
  8
SK6
100
AcDbCircle
 10
-6.738349842072027
 20
-32.03884722959437
 30
0.0
 40
1.0
100
AcDbArc
 50
0.0
 51
90.0
  0
LINE
  5
B9870
330
18
100
AcDbEntity
  8
SK6
100
AcDbLine
 10
-8.093271653708896
 20
-31.03884722959436
 30
0.0
 11
-6.738349842072027
 21
-31.03884722959437
 31
0.0
  0
ARC
  5
B9871
330
18
100
AcDbEntity
  8
SK6
100
AcDbCircle
 10
-8.093271653708896
 20
-32.03884722959436
 30
0.0
 40
1.0
100
AcDbArc
 50
90.0
 51
180.0
  0
LINE
  5
B9872
330
18
100
AcDbEntity
  8
SK6
100
AcDbLine
 10
-7.625159678977307
 20
-31.91169371311428
 30
0.0
 11
-7.625159678977307
 21
-34.12619954127021
 31
0.0
  0
LINE
  5
B9873
330
18
100
AcDbEntity
  8
SK6
100
AcDbLine
 10
-7.525159678977306
 20
-34.22619954127021
 30
0.0
 11
-7.326828544388479
 21
-34.22619954127021
 31
0.0
  0
ARC
  5
B9874
330
18
100
AcDbEntity
  8
SK6
100
AcDbCircle
 10
-7.525159678977306
 20
-34.12619954127021
 30
0.0
 40
0.1
100
AcDbArc
 50
180.0
 51
270.0
  0
LINE
  5
B9875
330
18
100
AcDbEntity
  8
SK6
100
AcDbLine
 10
-7.226828544388477
 20
-34.12619954127021
 30
0.0
 11
-7.226828544388477
 21
-31.91169371311428
 31
0.0
  0
ARC
  5
B9876
330
18
100
AcDbEntity
  8
SK6
100
AcDbCircle
 10
-7.326828544388479
 20
-34.12619954127021
 30
0.0
 40
0.1
100
AcDbArc
 50
270.0
 51
0.0
  0
ARC
  5
B9877
330
18
100
AcDbEntity
  8
SK6
100
AcDbCircle
 10
-7.326828544388479
 20
-31.91169371311428
 30
0.0
 40
0.1
100
AcDbArc
 50
0.0
 51
90.0
  0
LINE
  5
B9878
330
18
100
AcDbEntity
  8
SK6
100
AcDbLine
 10
-7.525159678977306
 20
-31.81169371311428
 30
0.0
 11
-7.326828544388479
 21
-31.81169371311428
 31
0.0
  0
ARC
  5
B9879
330
18
100
AcDbEntity
  8
SK6
100
AcDbCircle
 10
-7.525159678977306
 20
-31.91169371311428
 30
0.0
 40
0.1
100
AcDbArc
 50
90.0
 51
180.0
  0
ARC
  5
B987A
330
18
100
AcDbEntity
  8
SK6
100
AcDbCircle
 10
-4.310919019858167
 20
-34.05366478218354
 30
0.0
 40
1.084833074263929
100
AcDbArc
 50
181.0403109929553
 51
318.3706340674286
  0
ARC
  5
B987B
330
18
100
AcDbEntity
  8
SK6
100
AcDbCircle
 10
0.4291482016363874
 20
-32.26804704399879
 30
0.0
 40
1.18700136238931
100
AcDbArc
 50
13.13816069428827
 51
130.8642166304357
  0
ARC
  5
B987C
330
18
100
AcDbEntity
  8
SK6
100
AcDbCircle
 10
0.4291482016363874
 20
-33.91358744638507
 30
0.0
 40
1.18700136238931
100
AcDbArc
 50
237.1230928405819
 51
346.8618393057121
  0
LINE
  5
B987D
330
18
100
AcDbEntity
  8
SK6
100
AcDbLine
 10
-30.10961936762394
 20
-32.81591680479631
 30
0.0
 11
-27.98347098398282
 21
-29.7334860452905
 31
0.0
  0
ARC
  5
B987E
330
18
100
AcDbEntity
  8
SK6
100
AcDbCircle
 10
-30.05199739143041
 20
-32.85566234365985
 30
0.0
 40
0.07
100
AcDbArc
 50
145.4035034188054
 51
208.6205786099548
  0
LINE
  5
B987F
330
18
100
AcDbEntity
  8
SK6
100
AcDbLine
 10
-26.7592478215977
 20
-32.01222039183325
 30
0.0
 11
-26.7592478215977
 21
-35.0164043086739
 31
0.0
  0
LINE
  5
B9880
330
18
100
AcDbEntity
  8
SK6
100
AcDbLine
 10
-26.7592478215977
 20
-35.0164043086739
 30
0.0
 11
-30.03333788716619
 21
-35.0164043086739
 31
0.0
  0
LINE
  5
B9881
330
18
100
AcDbEntity
  8
SK6
100
AcDbLine
 10
-30.03333788716619
 20
-35.0164043086739
 30
0.0
 11
-30.03333788716618
 21
-33.05384883249236
 31
0.0
  0
ARC
  5
B9882
330
18
100
AcDbEntity
  8
SK6
100
AcDbCircle
 10
-30.10333788716618
 20
-33.05384883249236
 30
0.0
 40
0.07
100
AcDbArc
 50
0.0
 51
28.6205786099546
  0
LINE
  5
B9883
330
18
100
AcDbEntity
  8
SK6
100
AcDbLine
 10
-30.04189111788853
 20
-33.02031833077617
 30
0.0
 11
-30.11344416070806
 21
-32.88919284537603
 31
0.0
  0
ARC
  5
B9884
330
18
100
AcDbEntity
  8
SK6
100
AcDbCircle
 10
-31.05114657443857
 20
-32.6902989152911
 30
0.0
 40
4.345133529434026
100
AcDbArc
 50
8.977970696083572
 51
43.02627047251182
  0
ARC
  5
B9885
330
18
100
AcDbEntity
  8
SK6
100
AcDbCircle
 10
-27.92584900778929
 20
-29.77323158415403
 30
0.0
 40
0.07
100
AcDbArc
 50
43.02627047251325
 51
145.4035034188074
  0
LINE
  5
B9886
330
18
100
AcDbEntity
  8
2
100
AcDbLine
 10
28.125
 20
5.0
 30
0.0
 11
58.75
 21
4.999999999999991
 31
0.0
  0
LINE
  5
B9887
330
18
100
AcDbEntity
  8
2
100
AcDbLine
 10
28.125
 20
-5.0
 30
0.0
 11
58.75
 21
-5.000000000000007
 31
0.0
  0
LINE
  5
B9888
330
18
100
AcDbEntity
  8
2
100
AcDbLine
 10
57.5
 20
2.49999999999999
 30
0.0
 11
57.5
 21
-2.500000000000008
 31
0.0
  0
SOLID
  5
B9889
330
18
100
AcDbEntity
  8
2
100
AcDbTrace
 10
57.08333333333333
 20
2.49999999999999
 30
0.0
 11
57.91666666666666
 21
2.49999999999999
 31
0.0
 12
57.5
 22
4.999999999999992
 32
0.0
 13
57.5
 23
4.999999999999992
 33
0.0
  0
SOLID
  5
B988A
330
18
100
AcDbEntity
  8
2
100
AcDbTrace
 10
57.08333333333333
 20
-2.500000000000008
 30
0.0
 11
57.91666666666666
 21
-2.500000000000008
 31
0.0
 12
57.5
 22
-5.000000000000006
 32
0.0
 13
57.5
 23
-5.000000000000006
 33
0.0
  0
LINE
  5
B988B
330
18
100
AcDbEntity
  8
2
100
AcDbLine
 10
28.125
 20
2.0
 30
0.0
 11
43.75
 21
1.999999999999995
 31
0.0
  0
LINE
  5
B988C
330
18
100
AcDbEntity
  8
2
100
AcDbLine
 10
28.125
 20
-2.0
 30
0.0
 11
43.75
 21
-2.000000000000003
 31
0.0
  0
LINE
  5
B988D
330
18
100
AcDbEntity
  8
2
100
AcDbLine
 10
42.5
 20
4.499999999999995
 30
0.0
 11
42.5
 21
6.999999999999995
 31
0.0
  0
LINE
  5
B988E
330
18
100
AcDbEntity
  8
2
100
AcDbLine
 10
42.5
 20
-4.500000000000004
 30
0.0
 11
42.5
 21
-14.08333333333334
 31
0.0
  0
LINE
  5
B988F
330
18
100
AcDbEntity
  8
2
100
AcDbLine
 10
42.5
 20
1.999999999999995
 30
0.0
 11
42.5
 21
-2.000000000000003
 31
0.0
  0
SOLID
  5
B9890
330
18
100
AcDbEntity
  8
2
100
AcDbTrace
 10
42.08333333333333
 20
4.499999999999995
 30
0.0
 11
42.91666666666666
 21
4.499999999999995
 31
0.0
 12
42.5
 22
1.999999999999995
 32
0.0
 13
42.5
 23
1.999999999999995
 33
0.0
  0
SOLID
  5
B9891
330
18
100
AcDbEntity
  8
2
100
AcDbTrace
 10
42.08333333333333
 20
-4.500000000000004
 30
0.0
 11
42.91666666666666
 21
-4.500000000000004
 31
0.0
 12
42.5
 22
-2.000000000000003
 32
0.0
 13
42.5
 23
-2.000000000000003
 33
0.0
  0
LINE
  5
B9892
330
18
100
AcDbEntity
  8
2
100
AcDbLine
 10
0.0
 20
5.625
 30
0.0
 11
0.000000000000005
 21
86.25
 31
0.0
  0
LINE
  5
B9893
330
18
100
AcDbEntity
  8
2
100
AcDbLine
 10
27.5
 20
2.625
 30
0.0
 11
27.5
 21
86.25
 31
0.0
  0
LINE
  5
B9894
330
18
100
AcDbEntity
  8
2
100
AcDbLine
 10
2.500000000000003
 20
85.0
 30
0.0
 11
25.0
 21
85.0
 31
0.0
  0
SOLID
  5
B9895
330
18
100
AcDbEntity
  8
2
100
AcDbTrace
 10
2.500000000000003
 20
85.41666666666667
 30
0.0
 11
2.500000000000003
 21
84.58333333333333
 31
0.0
 12
0.0000000000000049
 22
85.0
 32
0.0
 13
0.0000000000000049
 23
85.0
 33
0.0
  0
SOLID
  5
B9896
330
18
100
AcDbEntity
  8
2
100
AcDbTrace
 10
25.0
 20
85.41666666666667
 30
0.0
 11
25.0
 21
84.58333333333333
 31
0.0
 12
27.5
 22
85.0
 32
0.0
 13
27.5
 23
85.0
 33
0.0
  0
LINE
  5
B9897
330
18
100
AcDbEntity
  8
SK2
100
AcDbLine
 10
-27.5
 20
2.625
 30
0.0
 11
-27.5
 21
101.25
 31
0.0
  0
LINE
  5
B9898
330
18
100
AcDbEntity
  8
SK2
100
AcDbLine
 10
27.5
 20
2.625
 30
0.0
 11
27.50000000000001
 21
101.25
 31
0.0
  0
LINE
  5
B9899
330
18
100
AcDbEntity
  8
SK2
100
AcDbLine
 10
-25.0
 20
100.0
 30
0.0
 11
25.00000000000001
 21
100.0
 31
0.0
  0
SOLID
  5
B989A
330
18
100
AcDbEntity
  8
SK2
100
AcDbTrace
 10
-25.0
 20
100.4166666666666
 30
0.0
 11
-25.0
 21
99.58333333333332
 31
0.0
 12
-27.5
 22
100.0
 32
0.0
 13
-27.5
 23
100.0
 33
0.0
  0
SOLID
  5
B989B
330
18
100
AcDbEntity
  8
SK2
100
AcDbTrace
 10
25.00000000000001
 20
100.4166666666666
 30
0.0
 11
25.00000000000001
 21
99.58333333333332
 31
0.0
 12
27.50000000000001
 22
100.0
 32
0.0
 13
27.50000000000001
 23
100.0
 33
0.0
  0
LINE
  5
B989C
330
18
100
AcDbEntity
  8
2
100
AcDbLine
 10
16.85
 20
2.625
 30
0.0
 11
16.85
 21
71.25
 31
0.0
  0
LINE
  5
B989D
330
18
100
AcDbEntity
  8
2
100
AcDbLine
 10
27.5
 20
2.625
 30
0.0
 11
27.5
 21
71.25
 31
0.0
  0
LINE
  5
B989E
330
18
100
AcDbEntity
  8
2
100
AcDbLine
 10
19.35
 20
70.0
 30
0.0
 11
25.0
 21
70.0
 31
0.0
  0
LINE
  5
B989F
330
18
100
AcDbEntity
  8
2
100
AcDbLine
 10
27.5
 20
70.0
 30
0.0
 11
44.08333333333334
 21
70.0
 31
0.0
  0
SOLID
  5
B98A0
330
18
100
AcDbEntity
  8
2
100
AcDbTrace
 10
19.35
 20
70.41666666666667
 30
0.0
 11
19.35
 21
69.58333333333333
 31
0.0
 12
16.85
 22
70.0
 32
0.0
 13
16.85
 23
70.0
 33
0.0
  0
SOLID
  5
B98A1
330
18
100
AcDbEntity
  8
2
100
AcDbTrace
 10
25.0
 20
70.41666666666667
 30
0.0
 11
25.0
 21
69.58333333333333
 31
0.0
 12
27.5
 22
70.0
 32
0.0
 13
27.5
 23
70.0
 33
0.0
  0
TEXT
  5
B98A2
330
18
100
AcDbEntity
  8
2
100
AcDbText
 10
30.62500000000001
 20
71.20833333333334
 30
0.0
 40
3.5
  1
10,65
100
AcDbText
  0
TEXT
  5
B98A3
330
18
100
AcDbEntity
  8
SK2
100
AcDbText
 10
-2.916666666666658
 20
100.625
 30
0.0
 40
3.5
  1
55
100
AcDbText
  0
TEXT
  5
B98A4
330
18
100
AcDbEntity
  8
2
100
AcDbText
 10
8.208333333333337
 20
86.20833333333335
 30
0.0
 40
3.5
  1
27,5
100
AcDbText
  0
TEXT
  5
B98A5
330
18
100
AcDbEntity
  8
2
100
AcDbText
 10
41.875
 20
-13.45833333333333
 30
0.0
 40
3.5
  1
%%c4
 50
90.0
100
AcDbText
  0
TEXT
  5
B98A6
330
18
100
AcDbEntity
  8
2
100
AcDbText
 10
56.875
 20
-3.791666666666663
 30
0.0
 40
3.5
  1
%%c10
 50
90.0
100
AcDbText
  0
TEXT
  5
B98A7
330
18
100
AcDbEntity
  8
SK6
100
AcDbText
 10
18.0
 20
-35.0
 30
0.0
 40
5.0
  1
111100 4
100
AcDbText
  0
ENDSEC
  0
SECTION
  2
OBJECTS
  0
DICTIONARY
  5
C
330
0
100
AcDbDictionary
281
     1
  3
ACAD_COLOR
350
387
  3
ACAD_GROUP
350
D
  3
ACAD_LAYOUT
350
301
  3
ACAD_MATERIAL
350
386
  3
ACAD_MLEADERSTYLE
350
43C
  3
ACAD_MLINESTYLE
350
E
  3
ACAD_PLOTSETTINGS
350
302
  3
ACAD_PLOTSTYLENAME
350
2FF
  3
ACAD_SCALELIST
350
41A
  3
ACAD_TABLESTYLE
350
388
  3
ACAD_VISUALSTYLE
350
3F2
  3
ACDB_RECOMPOSE_DATA
350
B98A9
  3
AcDbVariableDictionary
350
357
  3
DWGPROPS
350
B98AA
  0
DICTIONARY
  5
387
102
{ACAD_REACTORS
330
C
102
}
330
C
100
AcDbDictionary
281
     1
  0
DICTIONARY
  5
D
102
{ACAD_REACTORS
330
C
102
}
330
C
100
AcDbDictionary
281
     1
  0
DICTIONARY
  5
301
102
{ACAD_REACTORS
330
C
102
}
330
C
100
AcDbDictionary
281
     1
  3
Layout1
350
33B
  3
Model
350
303
  0
DICTIONARY
  5
386
102
{ACAD_REACTORS
330
C
102
}
330
C
100
AcDbDictionary
281
     1
  3
ByBlock
350
3F0
  3
ByLayer
350
3EF
  3
Global
350
3F1
  0
DICTIONARY
  5
43C
102
{ACAD_REACTORS
330
C
102
}
330
C
100
AcDbDictionary
281
     1
  3
Standard
350
43D
  0
DICTIONARY
  5
E
102
{ACAD_REACTORS
330
C
102
}
330
C
100
AcDbDictionary
281
     1
  3
STANDARD
350
1B
  0
DICTIONARY
  5
302
102
{ACAD_REACTORS
330
C
102
}
330
C
100
AcDbDictionary
281
     1
  0
ACDBDICTIONARYWDFLT
  5
2FF
102
{ACAD_REACTORS
330
C
102
}
330
C
100
AcDbDictionary
281
     1
  3
Normal
350
300
100
AcDbDictionaryWithDefault
340
300
  0
DICTIONARY
  5
41A
102
{ACAD_REACTORS
330
C
102
}
330
C
100
AcDbDictionary
281
     1
  3
A0
350
41B
  3
A1
350
41C
  3
A2
350
41D
  3
A3
350
41E
  3
A4
350
41F
  3
A5
350
420
  3
A6
350
421
  3
A7
350
422
  3
A8
350
423
  3
A9
350
424
  3
B0
350
425
  3
B1
350
426
  3
B2
350
427
  3
B3
350
428
  3
B4
350
429
  3
B5
350
42A
  3
B6
350
42B
  3
B7
350
42C
  3
B8
350
42D
  3
B9
350
42E
  3
C0
350
42F
  3
C1
350
430
  3
C2
350
431
  3
C3
350
432
  3
C4
350
433
  3
C5
350
434
  3
C6
350
435
  3
C7
350
436
  3
C8
350
437
  3
C9
350
438
  3
D0
350
439
  3
D1
350
43A
  3
D2
350
43B
  0
DICTIONARY
  5
388
102
{ACAD_REACTORS
330
C
102
}
330
C
100
AcDbDictionary
281
     1
  3
Standard
350
389
  0
DICTIONARY
  5
3F2
102
{ACAD_REACTORS
330
C
102
}
330
C
100
AcDbDictionary
281
     1
  3
2dWireframe
350
3F8
  3
3D Hidden
350
3FA
  3
3dWireframe
350
3F9
  3
Basic
350
3F7
  3
Brighten
350
3FE
  3
ColorChange
350
402
  3
Conceptual
350
3FB
  3
Dim
350
3FD
  3
EdgeColorOff
350
44E
  3
Facepattern
350
401
  3
Flat
350
3F3
  3
FlatWithEdges
350
3F4
  3
Gouraud
350
3F5
  3
GouraudWithEdges
350
3F6
  3
JitterOff
350
44C
  3
Linepattern
350
400
  3
OverhangOff
350
44D
  3
Realistic
350
3FC
  3
Thicken
350
3FF
  0
XRECORD
  5
B98A9
102
{ACAD_REACTORS
330
C
102
}
330
C
100
AcDbXrecord
280
     1
 90
        1
330
389
  0
DICTIONARY
  5
357
102
{ACAD_REACTORS
330
C
102
}
330
C
100
AcDbDictionary
281
     1
  3
CANNOSCALE
350
449
  3
CMLEADERSTYLE
350
447
  3
CTABLESTYLE
350
38E
  3
DIMASSOC
350
359
  3
HIDETEXT
350
358
  3
INDEXCTL
350
B3409
  3
LIGHTINGUNITS
350
44A
  3
MSLTSCALE
350
448
  3
SORTENTS
350
B3408
  3
XCLIPFRAME
350
B340A
  0
XRECORD
  5
B98AA
102
{ACAD_REACTORS
330
C
102
}
330
C
100
AcDbXrecord
280
     1
  1
DWGPROPS COOKIE
  2

  3

  4

  6

  7

  8
schmid
  9

300
=
301
=
302
=
303
=
304
=
305
=
306
=
307
=
308
=
309
=
 40
0.0028296990740741
 41
2455594.678859445
 42
2455594.678859445
  1

 90
        0
  0
LAYOUT
  5
33B
102
{ACAD_XDICTIONARY
360
B98AD
102
}
102
{ACAD_REACTORS
330
301
102
}
330
301
100
AcDbPlotSettings
  1

  2
Lexmark Optra PS2
  4

  6

 40
0.0
 41
0.0
 42
0.0
 43
0.0
 44
0.0
 45
0.0
 46
0.0
 47
0.0
 48
0.0
 49
0.0
140
0.0
141
0.0
142
1.0
143
1.0
 70
   688
 72
     0
 73
     0
 74
     5
  7
monochrome.ctb
 75
    16
147
1.0
148
0.0
149
0.0
100
AcDbLayout
  1
Layout1
 70
     1
 71
     1
 10
0.0
 20
0.0
 11
12.0
 21
9.0
 12
0.0
 22
0.0
 32
0.0
 14
0.0
 24
0.0
 34
0.0
 15
0.0
 25
0.0
 35
0.0
146
0.0
 13
0.0
 23
0.0
 33
0.0
 16
1.0
 26
0.0
 36
0.0
 17
0.0
 27
1.0
 37
0.0
 76
     0
330
338
  0
LAYOUT
  5
303
102
{ACAD_XDICTIONARY
360
B98AB
102
}
102
{ACAD_REACTORS
330
301
102
}
330
301
100
AcDbPlotSettings
  1

  2
Default Windows System Printer.pc3
  4
A4
  6

 40
6.805083274841308
 41
5.535083293914794
 42
6.974411010742187
 43
7.14373779296875
 44
209.9733276367187
 45
296.9259948730469
 46
67.83299579489725
 47
0.0
 48
0.0
 49
0.0
140
0.0
141
0.0
142
1.0
143
0.3604333568168785
 70
  3764
 72
     1
 73
     1
 74
     1
  7
monochrome.ctb
 75
     0
147
2.774437995504559
148
-82.35087775247029
149
-53.69369632994494
100
AcDbLayout
  1
Model
 70
     1
 71
     0
 10
0.0
 20
0.0
 11
12.0
 21
9.0
 12
0.0
 22
0.0
 32
0.0
 14
0.0
 24
0.0
 34
0.0
 15
0.0
 25
0.0
 35
0.0
146
0.0
 13
0.0
 23
0.0
 33
0.0
 16
1.0
 26
0.0
 36
0.0
 17
0.0
 27
1.0
 37
0.0
 76
     0
330
18
331
3ED
1001
ACAD_PSEXT
1000
Default Windows System Printer.pc3
1000
Lexmark Optra Rx
1000
Lexmark Rx
1000
Erstellt von Lexmark Benutzerdefinierte Installation,Nov 13,2005,10:03
1070
     0
  0
MATERIAL
  5
3F0
102
{ACAD_XDICTIONARY
360
B98B2
102
}
102
{ACAD_REACTORS
330
386
102
}
330
386
100
AcDbMaterial
  1
ByBlock
 73
     1
 78
     1
172
     1
176
     1
270
     1
274
     1
  0
MATERIAL
  5
3EF
102
{ACAD_XDICTIONARY
360
B98B0
102
}
102
{ACAD_REACTORS
330
386
102
}
330
386
100
AcDbMaterial
  1
ByLayer
 73
     1
 78
     1
172
     1
176
     1
270
     1
274
     1
  0
MATERIAL
  5
3F1
102
{ACAD_XDICTIONARY
360
B98B4
102
}
102
{ACAD_REACTORS
330
386
102
}
330
386
100
AcDbMaterial
  1
Global
 73
     1
 78
     1
172
     1
176
     1
270
     1
274
     1
  0
MLEADERSTYLE
  5
43D
102
{ACAD_REACTORS
330
43C
102
}
330
43C
100
AcDbMLeaderStyle
170
     2
171
     1
172
     0
 90
        2
 40
0.0
 41
0.0
173
     1
 91
-1056964608
340
12
 92
       -2
290
     1
 42
2.0
291
     1
 43
0.36
  3
Standard
 44
4.0
300

342
10
174
     1
178
     6
175
     1
176
     0
 93
-1056964608
 45
4.0
292
     0
297
     0
 46
4.0
 94
-1056964608
 47
1.0
 49
1.0
140
1.0
293
     1
141
0.0
294
     1
177
     0
142
1.0
295
     0
296
     0
143
0.125
1001
ACAD_MLEADERVER
1070
     2
  0
MLINESTYLE
  5
1B
102
{ACAD_REACTORS
330
E
102
}
330
E
100
AcDbMlineStyle
  2
STANDARD
 70
     0
  3

 62
     0
 51
90.0
 52
90.0
 71
     2
 49
0.5
 62
   256
  6
BYLAYER
 49
-0.5
 62
   256
  6
BYLAYER
  0
ACDBPLACEHOLDER
  5
300
102
{ACAD_REACTORS
330
2FF
102
}
330
2FF
  0
SCALE
  5
41B
102
{ACAD_REACTORS
330
41A
102
}
330
41A
100
AcDbScale
 70
     0
300
1:1
140
1.0
141
1.0
290
     1
  0
SCALE
  5
41C
102
{ACAD_REACTORS
330
41A
102
}
330
41A
100
AcDbScale
 70
     0
300
1:2
140
1.0
141
2.0
290
     0
  0
SCALE
  5
41D
102
{ACAD_REACTORS
330
41A
102
}
330
41A
100
AcDbScale
 70
     0
300
1:4
140
1.0
141
4.0
290
     0
  0
SCALE
  5
41E
102
{ACAD_REACTORS
330
41A
102
}
330
41A
100
AcDbScale
 70
     0
300
1:5
140
1.0
141
5.0
290
     0
  0
SCALE
  5
41F
102
{ACAD_REACTORS
330
41A
102
}
330
41A
100
AcDbScale
 70
     0
300
1:8
140
1.0
141
8.0
290
     0
  0
SCALE
  5
420
102
{ACAD_REACTORS
330
41A
102
}
330
41A
100
AcDbScale
 70
     0
300
1:10
140
1.0
141
10.0
290
     0
  0
SCALE
  5
421
102
{ACAD_REACTORS
330
41A
102
}
330
41A
100
AcDbScale
 70
     0
300
1:16
140
1.0
141
16.0
290
     0
  0
SCALE
  5
422
102
{ACAD_REACTORS
330
41A
102
}
330
41A
100
AcDbScale
 70
     0
300
1:20
140
1.0
141
20.0
290
     0
  0
SCALE
  5
423
102
{ACAD_REACTORS
330
41A
102
}
330
41A
100
AcDbScale
 70
     0
300
1:30
140
1.0
141
30.0
290
     0
  0
SCALE
  5
424
102
{ACAD_REACTORS
330
41A
102
}
330
41A
100
AcDbScale
 70
     0
300
1:40
140
1.0
141
40.0
290
     0
  0
SCALE
  5
425
102
{ACAD_REACTORS
330
41A
102
}
330
41A
100
AcDbScale
 70
     0
300
1:50
140
1.0
141
50.0
290
     0
  0
SCALE
  5
426
102
{ACAD_REACTORS
330
41A
102
}
330
41A
100
AcDbScale
 70
     0
300
1:100
140
1.0
141
100.0
290
     0
  0
SCALE
  5
427
102
{ACAD_REACTORS
330
41A
102
}
330
41A
100
AcDbScale
 70
     0
300
2:1
140
2.0
141
1.0
290
     0
  0
SCALE
  5
428
102
{ACAD_REACTORS
330
41A
102
}
330
41A
100
AcDbScale
 70
     0
300
4:1
140
4.0
141
1.0
290
     0
  0
SCALE
  5
429
102
{ACAD_REACTORS
330
41A
102
}
330
41A
100
AcDbScale
 70
     0
300
8:1
140
8.0
141
1.0
290
     0
  0
SCALE
  5
42A
102
{ACAD_REACTORS
330
41A
102
}
330
41A
100
AcDbScale
 70
     0
300
10:1
140
10.0
141
1.0
290
     0
  0
SCALE
  5
42B
102
{ACAD_REACTORS
330
41A
102
}
330
41A
100
AcDbScale
 70
     0
300
100:1
140
100.0
141
1.0
290
     0
  0
SCALE
  5
42C
102
{ACAD_REACTORS
330
41A
102
}
330
41A
100
AcDbScale
 70
     0
300
1/128" = 1'-0"
140
0.0078125
141
12.0
290
     0
  0
SCALE
  5
42D
102
{ACAD_REACTORS
330
41A
102
}
330
41A
100
AcDbScale
 70
     0
300
1/64" = 1'-0"
140
0.015625
141
12.0
290
     0
  0
SCALE
  5
42E
102
{ACAD_REACTORS
330
41A
102
}
330
41A
100
AcDbScale
 70
     0
300
1/32" = 1'-0"
140
0.03125
141
12.0
290
     0
  0
SCALE
  5
42F
102
{ACAD_REACTORS
330
41A
102
}
330
41A
100
AcDbScale
 70
     0
300
1/16" = 1'-0"
140
0.0625
141
12.0
290
     0
  0
SCALE
  5
430
102
{ACAD_REACTORS
330
41A
102
}
330
41A
100
AcDbScale
 70
     0
300
3/32" = 1'-0"
140
0.09375
141
12.0
290
     0
  0
SCALE
  5
431
102
{ACAD_REACTORS
330
41A
102
}
330
41A
100
AcDbScale
 70
     0
300
1/8" = 1'-0"
140
0.125
141
12.0
290
     0
  0
SCALE
  5
432
102
{ACAD_REACTORS
330
41A
102
}
330
41A
100
AcDbScale
 70
     0
300
3/16" = 1'-0"
140
0.1875
141
12.0
290
     0
  0
SCALE
  5
433
102
{ACAD_REACTORS
330
41A
102
}
330
41A
100
AcDbScale
 70
     0
300
1/4" = 1'-0"
140
0.25
141
12.0
290
     0
  0
SCALE
  5
434
102
{ACAD_REACTORS
330
41A
102
}
330
41A
100
AcDbScale
 70
     0
300
3/8" = 1'-0"
140
0.375
141
12.0
290
     0
  0
SCALE
  5
435
102
{ACAD_REACTORS
330
41A
102
}
330
41A
100
AcDbScale
 70
     0
300
1/2" = 1'-0"
140
0.5
141
12.0
290
     0
  0
SCALE
  5
436
102
{ACAD_REACTORS
330
41A
102
}
330
41A
100
AcDbScale
 70
     0
300
3/4" = 1'-0"
140
0.75
141
12.0
290
     0
  0
SCALE
  5
437
102
{ACAD_REACTORS
330
41A
102
}
330
41A
100
AcDbScale
 70
     0
300
1" = 1'-0"
140
1.0
141
12.0
290
     0
  0
SCALE
  5
438
102
{ACAD_REACTORS
330
41A
102
}
330
41A
100
AcDbScale
 70
     0
300
1-1/2" = 1'-0"
140
1.5
141
12.0
290
     0
  0
SCALE
  5
439
102
{ACAD_REACTORS
330
41A
102
}
330
41A
100
AcDbScale
 70
     0
300
3" = 1'-0"
140
3.0
141
12.0
290
     0
  0
SCALE
  5
43A
102
{ACAD_REACTORS
330
41A
102
}
330
41A
100
AcDbScale
 70
     0
300
6" = 1'-0"
140
6.0
141
12.0
290
     0
  0
SCALE
  5
43B
102
{ACAD_REACTORS
330
41A
102
}
330
41A
100
AcDbScale
 70
     0
300
1'-0" = 1'-0"
140
12.0
141
12.0
290
     0
  0
TABLESTYLE
  5
389
102
{ACAD_XDICTIONARY
360
444
102
}
102
{ACAD_REACTORS
330
388
102
}
330
388
100
AcDbTableStyle
  3
Standard
 70
     0
 71
     0
 40
1.5
 41
1.5
280
     0
281
     0
  7
STANDARD
140
4.5
170
     2
 62
     0
 63
     7
283
     0
274
    -2
284
     1
 64
     0
275
    -2
285
     1
 65
     0
276
    -2
286
     1
 66
     0
277
    -2
287
     1
 67
     0
278
    -2
288
     1
 68
     0
279
    -2
289
     1
 69
     0
  7
STANDARD
140
6.0
170
     5
 62
     0
 63
     7
283
     0
274
    -2
284
     1
 64
     0
275
    -2
285
     1
 65
     0
276
    -2
286
     1
 66
     0
277
    -2
287
     1
 67
     0
278
    -2
288
     1
 68
     0
279
    -2
289
     1
 69
     0
  7
STANDARD
140
4.5
170
     5
 62
     0
 63
     7
283
     0
274
    -2
284
     1
 64
     0
275
    -2
285
     1
 65
     0
276
    -2
286
     1
 66
     0
277
    -2
287
     1
 67
     0
278
    -2
288
     1
 68
     0
279
    -2
289
     1
 69
     0
  0
VISUALSTYLE
  5
3F8
102
{ACAD_XDICTIONARY
360
B98C0
102
}
102
{ACAD_REACTORS
330
3F2
102
}
330
3F2
100
AcDbVisualStyle
  2
2dWireframe
 70
     4
 71
     0
 72
     2
 73
     0
 90
        0
 40
-0.6
 41
-30.0
 62
     5
 63
     7
 74
     1
 91
        4
 64
     7
 65
   257
 75
     1
175
     1
 42
1.0
 92
        0
 66
   257
 43
1.0
 76
     1
 77
     6
 78
     2
 67
     7
 79
     5
170
     0
171
     0
290
     0
174
     0
 93
        1
 44
0.0
173
     0
291
     0
 45
0.0
1001
ACAD
1000
AcDbSavedByObjectVersion
1070
     0
  0
VISUALSTYLE
  5
3FA
102
{ACAD_XDICTIONARY
360
B98C4
102
}
102
{ACAD_REACTORS
330
3F2
102
}
330
3F2
100
AcDbVisualStyle
  2
3D Hidden
 70
     6
 71
     1
 72
     2
 73
     2
 90
        0
 40
-0.6
 41
-30.0
 62
     5
 63
     7
 74
     2
 91
        2
 64
     7
 65
   257
 75
     2
175
     1
 42
40.0
 92
        0
 66
   257
 43
1.0
 76
     1
 77
     6
 78
     2
 67
     7
 79
     3
170
     0
171
     0
290
     0
174
     0
 93
        1
 44
0.0
173
     0
291
     0
 45
0.0
1001
ACAD
1000
AcDbSavedByObjectVersion
1070
     0
  0
VISUALSTYLE
  5
3F9
102
{ACAD_XDICTIONARY
360
B98C2
102
}
102
{ACAD_REACTORS
330
3F2
102
}
330
3F2
100
AcDbVisualStyle
  2
3dWireframe
 70
     5
 71
     0
 72
     2
 73
     0
 90
        0
 40
-0.6
 41
-30.0
 62
     5
 63
     7
 74
     1
 91
        4
 64
     7
 65
   257
 75
     1
175
     1
 42
1.0
 92
        0
 66
   257
 43
1.0
 76
     1
 77
     6
 78
     2
 67
     7
 79
     5
170
     0
171
     0
290
     0
174
     0
 93
        1
 44
0.0
173
     0
291
     0
 45
0.0
1001
ACAD
1000
AcDbSavedByObjectVersion
1070
     0
  0
VISUALSTYLE
  5
3F7
102
{ACAD_XDICTIONARY
360
B98BE
102
}
102
{ACAD_REACTORS
330
3F2
102
}
330
3F2
100
AcDbVisualStyle
  2
Basic
 70
     7
 71
     1
 72
     0
 73
     1
 90
        0
 40
-0.6
 41
-30.0
 62
     5
 63
     7
 74
     0
 91
        4
 64
     7
 65
   257
 75
     1
175
     1
 42
1.0
 92
        8
 66
     7
 43
1.0
 76
     1
 77
     6
 78
     2
 67
     7
 79
     5
170
     0
171
     0
290
     0
174
     0
 93
        1
 44
0.0
173
     0
291
     1
 45
0.0
1001
ACAD
1000
AcDbSavedByObjectVersion
1070
     0
  0
VISUALSTYLE
  5
3FE
102
{ACAD_XDICTIONARY
360
B98CC
102
}
102
{ACAD_REACTORS
330
3F2
102
}
330
3F2
100
AcDbVisualStyle
  2
Brighten
 70
    12
 71
     2
 72
     2
 73
     0
 90
        0
 40
-0.6
 41
-30.0
 62
     5
 63
     7
 74
     1
 91
        4
 64
     7
 65
   257
 75
     1
175
     1
 42
1.0
 92
        8
 66
     7
 43
1.0
 76
     1
 77
     6
 78
     2
 67
     7
 79
     5
170
     0
171
     0
290
     0
174
     0
 93
        1
 44
50.0
173
     0
291
     1
 45
0.0
1001
ACAD
1000
AcDbSavedByObjectVersion
1070
     0
  0
VISUALSTYLE
  5
402
102
{ACAD_XDICTIONARY
360
B98D4
102
}
102
{ACAD_REACTORS
330
3F2
102
}
330
3F2
100
AcDbVisualStyle
  2
ColorChange
 70
    16
 71
     2
 72
     2
 73
     3
 90
        0
 40
-0.6
 41
-30.0
 62
     5
 63
     8
 74
     1
 91
        4
 64
     7
 65
   257
 75
     1
175
     1
 42
1.0
 92
        8
 66
     8
 43
1.0
 76
     1
 77
     6
 78
     2
 67
     7
 79
     5
170
     0
171
     0
290
     0
174
     0
 93
        1
 44
0.0
173
     0
291
     1
 45
0.0
1001
ACAD
1000
AcDbSavedByObjectVersion
1070
     0
  0
VISUALSTYLE
  5
3FB
102
{ACAD_XDICTIONARY
360
B98C6
102
}
102
{ACAD_REACTORS
330
3F2
102
}
330
3F2
100
AcDbVisualStyle
  2
Conceptual
 70
     9
 71
     3
 72
     2
 73
     0
 90
        0
 40
-0.6
 41
-30.0
 62
     5
 63
     7
 74
     2
 91
        2
 64
     7
 65
   257
 75
     1
175
     1
 42
40.0
 92
        8
 66
     7
 43
1.0
 76
     1
 77
     6
 78
     2
 67
     7
 79
     3
170
     0
171
     0
290
     0
174
     0
 93
        1
 44
0.0
173
     0
291
     0
 45
0.0
1001
ACAD
1000
AcDbSavedByObjectVersion
1070
     0
  0
VISUALSTYLE
  5
3FD
102
{ACAD_XDICTIONARY
360
B98CA
102
}
102
{ACAD_REACTORS
330
3F2
102
}
330
3F2
100
AcDbVisualStyle
  2
Dim
 70
    11
 71
     2
 72
     2
 73
     0
 90
        0
 40
-0.6
 41
-30.0
 62
     5
 63
     7
 74
     1
 91
        4
 64
     7
 65
   257
 75
     1
175
     1
 42
1.0
 92
        8
 66
     7
 43
1.0
 76
     1
 77
     6
 78
     2
 67
     7
 79
     5
170
     0
171
     0
290
     0
174
     0
 93
        1
 44
-50.0
173
     0
291
     1
 45
0.0
1001
ACAD
1000
AcDbSavedByObjectVersion
1070
     0
  0
VISUALSTYLE
  5
44E
102
{ACAD_XDICTIONARY
360
B98DA
102
}
102
{ACAD_REACTORS
330
3F2
102
}
330
3F2
100
AcDbVisualStyle
  2
EdgeColorOff
 70
    22
 71
     2
 72
     2
 73
     0
 90
        0
 40
-0.6
 41
-30.0
 62
     5
 63
     7
 74
     1
 91
        4
 64
     7
 65
   257
 75
     1
175
     1
 42
1.0
 92
        8
 66
     7
 43
1.0
 76
     1
 77
     6
 78
     2
 67
     7
 79
     5
170
     0
171
     0
290
     0
174
     0
 93
        1
 44
0.0
173
     0
291
     1
 45
0.0
1001
ACAD
1000
AcDbSavedByObjectVersion
1070
     0
  0
VISUALSTYLE
  5
401
102
{ACAD_XDICTIONARY
360
B98D2
102
}
102
{ACAD_REACTORS
330
3F2
102
}
330
3F2
100
AcDbVisualStyle
  2
Facepattern
 70
    15
 71
     2
 72
     2
 73
     0
 90
        0
 40
-0.6
 41
-30.0
 62
     5
 63
     7
 74
     1
 91
        4
 64
     7
 65
   257
 75
     1
175
     1
 42
1.0
 92
        8
 66
     7
 43
1.0
 76
     1
 77
     6
 78
     2
 67
     7
 79
     5
170
     0
171
     0
290
     0
174
     0
 93
        1
 44
0.0
173
     0
291
     1
 45
0.0
1001
ACAD
1000
AcDbSavedByObjectVersion
1070
     0
  0
VISUALSTYLE
  5
3F3
102
{ACAD_XDICTIONARY
360
B98B6
102
}
102
{ACAD_REACTORS
330
3F2
102
}
330
3F2
100
AcDbVisualStyle
  2
Flat
 70
     0
 71
     2
 72
     1
 73
     1
 90
        2
 40
-0.6
 41
30.0
 62
     5
 63
     7
 74
     0
 91
        4
 64
     7
 65
   257
 75
     1
175
     1
 42
1.0
 92
        8
 66
     7
 43
1.0
 76
     1
 77
     6
 78
     2
 67
     7
 79
     5
170
     0
171
     0
290
     0
174
     0
 93
       13
 44
0.0
173
     0
291
     1
 45
0.0
1001
ACAD
1000
AcDbSavedByObjectVersion
1070
     0
  0
VISUALSTYLE
  5
3F4
102
{ACAD_XDICTIONARY
360
B98B8
102
}
102
{ACAD_REACTORS
330
3F2
102
}
330
3F2
100
AcDbVisualStyle
  2
FlatWithEdges
 70
     1
 71
     2
 72
     1
 73
     1
 90
        2
 40
-0.6
 41
30.0
 62
     5
 63
     7
 74
     1
 91
        4
 64
     7
 65
   257
 75
     1
175
     1
 42
1.0
 92
        0
 66
   257
 43
1.0
 76
     1
 77
     6
 78
     2
 67
     7
 79
     5
170
     0
171
     0
290
     0
174
     0
 93
       13
 44
0.0
173
     0
291
     1
 45
0.0
1001
ACAD
1000
AcDbSavedByObjectVersion
1070
     0
  0
VISUALSTYLE
  5
3F5
102
{ACAD_XDICTIONARY
360
B98BA
102
}
102
{ACAD_REACTORS
330
3F2
102
}
330
3F2
100
AcDbVisualStyle
  2
Gouraud
 70
     2
 71
     2
 72
     2
 73
     1
 90
        2
 40
-0.6
 41
30.0
 62
     5
 63
     7
 74
     0
 91
        4
 64
     7
 65
   257
 75
     1
175
     1
 42
1.0
 92
        0
 66
     7
 43
1.0
 76
     1
 77
     6
 78
     2
 67
     7
 79
     5
170
     0
171
     0
290
     0
174
     0
 93
       13
 44
0.0
173
     0
291
     1
 45
0.0
1001
ACAD
1000
AcDbSavedByObjectVersion
1070
     0
  0
VISUALSTYLE
  5
3F6
102
{ACAD_XDICTIONARY
360
B98BC
102
}
102
{ACAD_REACTORS
330
3F2
102
}
330
3F2
100
AcDbVisualStyle
  2
GouraudWithEdges
 70
     3
 71
     2
 72
     2
 73
     1
 90
        2
 40
-0.6
 41
30.0
 62
     5
 63
     7
 74
     1
 91
        4
 64
     7
 65
   257
 75
     1
175
     1
 42
1.0
 92
        0
 66
   257
 43
1.0
 76
     1
 77
     6
 78
     2
 67
     7
 79
     5
170
     0
171
     0
290
     0
174
     0
 93
       13
 44
0.0
173
     0
291
     1
 45
0.0
1001
ACAD
1000
AcDbSavedByObjectVersion
1070
     0
  0
VISUALSTYLE
  5
44C
102
{ACAD_XDICTIONARY
360
B98D6
102
}
102
{ACAD_REACTORS
330
3F2
102
}
330
3F2
100
AcDbVisualStyle
  2
JitterOff
 70
    20
 71
     2
 72
     2
 73
     0
 90
        0
 40
-0.6
 41
-30.0
 62
     5
 63
     7
 74
     1
 91
        4
 64
     7
 65
   257
 75
     1
175
     1
 42
1.0
 92
       10
 66
     7
 43
1.0
 76
     1
 77
     6
 78
     2
 67
     7
 79
     5
170
     0
171
     0
290
     0
174
     0
 93
        1
 44
0.0
173
     0
291
     1
 45
0.0
1001
ACAD
1000
AcDbSavedByObjectVersion
1070
     0
  0
VISUALSTYLE
  5
400
102
{ACAD_XDICTIONARY
360
B98D0
102
}
102
{ACAD_REACTORS
330
3F2
102
}
330
3F2
100
AcDbVisualStyle
  2
Linepattern
 70
    14
 71
     2
 72
     2
 73
     0
 90
        0
 40
-0.6
 41
-30.0
 62
     5
 63
     7
 74
     1
 91
        4
 64
     7
 65
   257
 75
     7
175
     7
 42
1.0
 92
        8
 66
     7
 43
1.0
 76
     1
 77
     6
 78
     2
 67
     7
 79
     5
170
     0
171
     0
290
     0
174
     0
 93
        1
 44
0.0
173
     0
291
     1
 45
0.0
1001
ACAD
1000
AcDbSavedByObjectVersion
1070
     0
  0
VISUALSTYLE
  5
44D
102
{ACAD_XDICTIONARY
360
B98D8
102
}
102
{ACAD_REACTORS
330
3F2
102
}
330
3F2
100
AcDbVisualStyle
  2
OverhangOff
 70
    21
 71
     2
 72
     2
 73
     0
 90
        0
 40
-0.6
 41
-30.0
 62
     5
 63
     7
 74
     1
 91
        4
 64
     7
 65
   257
 75
     1
175
     1
 42
1.0
 92
        9
 66
     7
 43
1.0
 76
     1
 77
     6
 78
     2
 67
     7
 79
     5
170
     0
171
     0
290
     0
174
     0
 93
        1
 44
0.0
173
     0
291
     1
 45
0.0
1001
ACAD
1000
AcDbSavedByObjectVersion
1070
     0
  0
VISUALSTYLE
  5
3FC
102
{ACAD_XDICTIONARY
360
B98C8
102
}
102
{ACAD_REACTORS
330
3F2
102
}
330
3F2
100
AcDbVisualStyle
  2
Realistic
 70
     8
 71
     2
 72
     2
 73
     0
 90
        0
 40
-0.6
 41
-30.0
 62
     5
 63
     7
 74
     1
 91
        0
 64
     7
 65
   257
 75
     1
175
     1
 42
1.0
 92
        8
 66
     8
 43
1.0
 76
     1
 77
     6
 78
     2
 67
     7
 79
     5
170
     0
171
     0
290
     0
174
     0
 93
       13
 44
0.0
173
     0
291
     0
 45
0.0
1001
ACAD
1000
AcDbSavedByObjectVersion
1070
     0
  0
VISUALSTYLE
  5
3FF
102
{ACAD_XDICTIONARY
360
B98CE
102
}
102
{ACAD_REACTORS
330
3F2
102
}
330
3F2
100
AcDbVisualStyle
  2
Thicken
 70
    13
 71
     2
 72
     2
 73
     0
 90
        0
 40
-0.6
 41
-30.0
 62
     5
 63
     7
 74
     1
 91
        4
 64
     7
 65
   257
 75
     1
175
     1
 42
1.0
 92
       12
 66
     7
 43
1.0
 76
     1
 77
     6
 78
     2
 67
     7
 79
     5
170
     0
171
     0
290
     0
174
     0
 93
        1
 44
0.0
173
     0
291
     1
 45
0.0
1001
ACAD
1000
AcDbSavedByObjectVersion
1070
     0
  0
DICTIONARYVAR
  5
449
102
{ACAD_REACTORS
330
357
102
}
330
357
100
DictionaryVariables
280
     0
  1
1:1
  0
DICTIONARYVAR
  5
447
102
{ACAD_REACTORS
330
357
102
}
330
357
100
DictionaryVariables
280
     0
  1
STANDARD
  0
DICTIONARYVAR
  5
38E
102
{ACAD_REACTORS
330
357
102
}
330
357
100
DictionaryVariables
280
     0
  1
STANDARD
  0
DICTIONARYVAR
  5
359
102
{ACAD_REACTORS
330
357
102
}
330
357
100
DictionaryVariables
280
     0
  1
2
  0
DICTIONARYVAR
  5
358
102
{ACAD_REACTORS
330
357
102
}
330
357
100
DictionaryVariables
280
     0
  1
1
  0
DICTIONARYVAR
  5
B3409
102
{ACAD_REACTORS
330
357
102
}
330
357
100
DictionaryVariables
280
     0
  1
0
  0
DICTIONARYVAR
  5
44A
102
{ACAD_REACTORS
330
357
102
}
330
357
100
DictionaryVariables
280
     0
  1
0
  0
DICTIONARYVAR
  5
448
102
{ACAD_REACTORS
330
357
102
}
330
357
100
DictionaryVariables
280
     0
  1
0
  0
DICTIONARYVAR
  5
B3408
102
{ACAD_REACTORS
330
357
102
}
330
357
100
DictionaryVariables
280
     0
  1
127
  0
DICTIONARYVAR
  5
B340A
102
{ACAD_REACTORS
330
357
102
}
330
357
100
DictionaryVariables
280
     0
  1
0
  0
DICTIONARY
  5
B98AD
330
33B
100
AcDbDictionary
280
     1
281
     1
  3
ACAD_XREC_ROUNDTRIP
360
B98AE
  0
DICTIONARY
  5
B98AB
330
303
100
AcDbDictionary
280
     1
281
     1
  3
ACAD_XREC_ROUNDTRIP
360
B98AC
  0
DICTIONARY
  5
B98B2
330
3F0
100
AcDbDictionary
280
     1
281
     1
  3
ACAD_XREC_ROUNDTRIP
360
B98B3
  0
DICTIONARY
  5
B98B0
330
3EF
100
AcDbDictionary
280
     1
281
     1
  3
ACAD_XREC_ROUNDTRIP
360
B98B1
  0
DICTIONARY
  5
B98B4
330
3F1
100
AcDbDictionary
280
     1
281
     1
  3
ACAD_XREC_ROUNDTRIP
360
B98B5
  0
DICTIONARY
  5
444
330
389
100
AcDbDictionary
280
     1
281
     1
  3
ACAD_ROUNDTRIP_2008_TABLESTYLE_CELLSTYLEMAP
360
B98A8
  3
ACAD_XREC_ROUNDTRIP
360
B98AF
  0
DICTIONARY
  5
B98C0
330
3F8
100
AcDbDictionary
280
     1
281
     1
  3
ACAD_XREC_ROUNDTRIP
360
B98C1
  0
DICTIONARY
  5
B98C4
330
3FA
100
AcDbDictionary
280
     1
281
     1
  3
ACAD_XREC_ROUNDTRIP
360
B98C5
  0
DICTIONARY
  5
B98C2
330
3F9
100
AcDbDictionary
280
     1
281
     1
  3
ACAD_XREC_ROUNDTRIP
360
B98C3
  0
DICTIONARY
  5
B98BE
330
3F7
100
AcDbDictionary
280
     1
281
     1
  3
ACAD_XREC_ROUNDTRIP
360
B98BF
  0
DICTIONARY
  5
B98CC
330
3FE
100
AcDbDictionary
280
     1
281
     1
  3
ACAD_XREC_ROUNDTRIP
360
B98CD
  0
DICTIONARY
  5
B98D4
330
402
100
AcDbDictionary
280
     1
281
     1
  3
ACAD_XREC_ROUNDTRIP
360
B98D5
  0
DICTIONARY
  5
B98C6
330
3FB
100
AcDbDictionary
280
     1
281
     1
  3
ACAD_XREC_ROUNDTRIP
360
B98C7
  0
DICTIONARY
  5
B98CA
330
3FD
100
AcDbDictionary
280
     1
281
     1
  3
ACAD_XREC_ROUNDTRIP
360
B98CB
  0
DICTIONARY
  5
B98DA
330
44E
100
AcDbDictionary
280
     1
281
     1
  3
ACAD_XREC_ROUNDTRIP
360
B98DB
  0
DICTIONARY
  5
B98D2
330
401
100
AcDbDictionary
280
     1
281
     1
  3
ACAD_XREC_ROUNDTRIP
360
B98D3
  0
DICTIONARY
  5
B98B6
330
3F3
100
AcDbDictionary
280
     1
281
     1
  3
ACAD_XREC_ROUNDTRIP
360
B98B7
  0
DICTIONARY
  5
B98B8
330
3F4
100
AcDbDictionary
280
     1
281
     1
  3
ACAD_XREC_ROUNDTRIP
360
B98B9
  0
DICTIONARY
  5
B98BA
330
3F5
100
AcDbDictionary
280
     1
281
     1
  3
ACAD_XREC_ROUNDTRIP
360
B98BB
  0
DICTIONARY
  5
B98BC
330
3F6
100
AcDbDictionary
280
     1
281
     1
  3
ACAD_XREC_ROUNDTRIP
360
B98BD
  0
DICTIONARY
  5
B98D6
330
44C
100
AcDbDictionary
280
     1
281
     1
  3
ACAD_XREC_ROUNDTRIP
360
B98D7
  0
DICTIONARY
  5
B98D0
330
400
100
AcDbDictionary
280
     1
281
     1
  3
ACAD_XREC_ROUNDTRIP
360
B98D1
  0
DICTIONARY
  5
B98D8
330
44D
100
AcDbDictionary
280
     1
281
     1
  3
ACAD_XREC_ROUNDTRIP
360
B98D9
  0
DICTIONARY
  5
B98C8
330
3FC
100
AcDbDictionary
280
     1
281
     1
  3
ACAD_XREC_ROUNDTRIP
360
B98C9
  0
DICTIONARY
  5
B98CE
330
3FF
100
AcDbDictionary
280
     1
281
     1
  3
ACAD_XREC_ROUNDTRIP
360
B98CF
  0
XRECORD
  5
B98AE
102
{ACAD_REACTORS
330
B98AD
102
}
330
B98AD
100
AcDbXrecord
280
     1
102
SHADEPLOT
 70
     0
102
SHADEPLOTRESLEVEL
 70
     2
102
SHADEPLOTCUSTOMDPI
 70
   300
  0
XRECORD
  5
B98AC
102
{ACAD_REACTORS
330
B98AB
102
}
330
B98AB
100
AcDbXrecord
280
     1
102
SHADEPLOT
 70
     1
102
SHADEPLOTRESLEVEL
 70
     2
102
SHADEPLOTCUSTOMDPI
 70
   300
  0
XRECORD
  5
B98B3
102
{ACAD_REACTORS
330
B98B2
102
}
330
B98B2
100
AcDbXrecord
280
     1
102
MATERIAL
148
0.0
149
0.0
149
0.0
 93
        0
 94
       63
282
     0
 72
     1
 77
     1
171
     1
175
     1
179
     1
273
     0
  0
XRECORD
  5
B98B1
102
{ACAD_REACTORS
330
B98B0
102
}
330
B98B0
100
AcDbXrecord
280
     1
102
MATERIAL
148
0.0
149
0.0
149
0.0
 93
        0
 94
       63
282
     0
 72
     1
 77
     1
171
     1
175
     1
179
     1
273
     0
  0
XRECORD
  5
B98B5
102
{ACAD_REACTORS
330
B98B4
102
}
330
B98B4
100
AcDbXrecord
280
     1
102
MATERIAL
148
0.0
149
0.0
149
0.0
 93
        0
 94
       63
282
     0
 72
     1
 77
     1
171
     1
175
     1
179
     1
273
     0
  0
CELLSTYLEMAP
  5
B98A8
102
{ACAD_REACTORS
330
444
102
}
330
444
100
AcDbCellStyleMap
 90
        3
300
CELLSTYLE
  1
TABLEFORMAT_BEGIN
 90
        5
170
     1
 91
        0
 92
    32768
 62
   257
 93
        1
300
CONTENTFORMAT
  1
CONTENTFORMAT_BEGIN
 90
        0
 91
        0
 92
        4
 93
        0
300

 40
0.0
140
1.0
 94
        5
 62
     0
340
10
144
6.0
309
CONTENTFORMAT_END
171
     1
301
MARGIN
  1
CELLMARGIN_BEGIN
 40
1.5
 40
1.5
 40
1.5
 40
1.5
 40
0.18
 40
0.18
309
CELLMARGIN_END
 94
        6
 95
        1
302
GRIDFORMAT
  1
GRIDFORMAT_BEGIN
 90
        0
 91
        1
 62
     0
 92
       -2
340
0
 93
        0
 40
0.045
309
GRIDFORMAT_END
 95
        2
302
GRIDFORMAT
  1
GRIDFORMAT_BEGIN
 90
        0
 91
        1
 62
     0
 92
       -2
340
0
 93
        0
 40
0.045
309
GRIDFORMAT_END
 95
        4
302
GRIDFORMAT
  1
GRIDFORMAT_BEGIN
 90
        0
 91
        1
 62
     0
 92
       -2
340
0
 93
        0
 40
0.045
309
GRIDFORMAT_END
 95
        8
302
GRIDFORMAT
  1
GRIDFORMAT_BEGIN
 90
        0
 91
        1
 62
     0
 92
       -2
340
0
 93
        0
 40
0.045
309
GRIDFORMAT_END
 95
       16
302
GRIDFORMAT
  1
GRIDFORMAT_BEGIN
 90
        0
 91
        1
 62
     0
 92
       -2
340
0
 93
        0
 40
0.045
309
GRIDFORMAT_END
 95
       32
302
GRIDFORMAT
  1
GRIDFORMAT_BEGIN
 90
        0
 91
        1
 62
     0
 92
       -2
340
0
 93
        0
 40
0.045
309
GRIDFORMAT_END
309
TABLEFORMAT_END
  1
CELLSTYLE_BEGIN
 90
        1
 91
        1
300
_TITLE
309
CELLSTYLE_END
300
CELLSTYLE
  1
TABLEFORMAT_BEGIN
 90
        5
170
     1
 91
        0
 92
        0
 62
   257
 93
        1
300
CONTENTFORMAT
  1
CONTENTFORMAT_BEGIN
 90
        0
 91
        0
 92
        4
 93
        0
300

 40
0.0
140
1.0
 94
        5
 62
     0
340
10
144
4.5
309
CONTENTFORMAT_END
171
     1
301
MARGIN
  1
CELLMARGIN_BEGIN
 40
1.5
 40
1.5
 40
1.5
 40
1.5
 40
0.18
 40
0.18
309
CELLMARGIN_END
 94
        6
 95
        1
302
GRIDFORMAT
  1
GRIDFORMAT_BEGIN
 90
        0
 91
        1
 62
     0
 92
       -2
340
0
 93
        0
 40
0.045
309
GRIDFORMAT_END
 95
        2
302
GRIDFORMAT
  1
GRIDFORMAT_BEGIN
 90
        0
 91
        1
 62
     0
 92
       -2
340
0
 93
        0
 40
0.045
309
GRIDFORMAT_END
 95
        4
302
GRIDFORMAT
  1
GRIDFORMAT_BEGIN
 90
        0
 91
        1
 62
     0
 92
       -2
340
0
 93
        0
 40
0.045
309
GRIDFORMAT_END
 95
        8
302
GRIDFORMAT
  1
GRIDFORMAT_BEGIN
 90
        0
 91
        1
 62
     0
 92
       -2
340
0
 93
        0
 40
0.045
309
GRIDFORMAT_END
 95
       16
302
GRIDFORMAT
  1
GRIDFORMAT_BEGIN
 90
        0
 91
        1
 62
     0
 92
       -2
340
0
 93
        0
 40
0.045
309
GRIDFORMAT_END
 95
       32
302
GRIDFORMAT
  1
GRIDFORMAT_BEGIN
 90
        0
 91
        1
 62
     0
 92
       -2
340
0
 93
        0
 40
0.045
309
GRIDFORMAT_END
309
TABLEFORMAT_END
  1
CELLSTYLE_BEGIN
 90
        2
 91
        1
300
_HEADER
309
CELLSTYLE_END
300
CELLSTYLE
  1
TABLEFORMAT_BEGIN
 90
        5
170
     1
 91
        0
 92
        0
 62
   257
 93
        1
300
CONTENTFORMAT
  1
CONTENTFORMAT_BEGIN
 90
        0
 91
        0
 92
        4
 93
        0
300

 40
0.0
140
1.0
 94
        2
 62
     0
340
10
144
4.5
309
CONTENTFORMAT_END
171
     1
301
MARGIN
  1
CELLMARGIN_BEGIN
 40
1.5
 40
1.5
 40
1.5
 40
1.5
 40
0.18
 40
0.18
309
CELLMARGIN_END
 94
        6
 95
        1
302
GRIDFORMAT
  1
GRIDFORMAT_BEGIN
 90
        0
 91
        1
 62
     0
 92
       -2
340
0
 93
        0
 40
0.045
309
GRIDFORMAT_END
 95
        2
302
GRIDFORMAT
  1
GRIDFORMAT_BEGIN
 90
        0
 91
        1
 62
     0
 92
       -2
340
0
 93
        0
 40
0.045
309
GRIDFORMAT_END
 95
        4
302
GRIDFORMAT
  1
GRIDFORMAT_BEGIN
 90
        0
 91
        1
 62
     0
 92
       -2
340
0
 93
        0
 40
0.045
309
GRIDFORMAT_END
 95
        8
302
GRIDFORMAT
  1
GRIDFORMAT_BEGIN
 90
        0
 91
        1
 62
     0
 92
       -2
340
0
 93
        0
 40
0.045
309
GRIDFORMAT_END
 95
       16
302
GRIDFORMAT
  1
GRIDFORMAT_BEGIN
 90
        0
 91
        1
 62
     0
 92
       -2
340
0
 93
        0
 40
0.045
309
GRIDFORMAT_END
 95
       32
302
GRIDFORMAT
  1
GRIDFORMAT_BEGIN
 90
        0
 91
        1
 62
     0
 92
       -2
340
0
 93
        0
 40
0.045
309
GRIDFORMAT_END
309
TABLEFORMAT_END
  1
CELLSTYLE_BEGIN
 90
        3
 91
        2
300
_DATA
309
CELLSTYLE_END
  0
XRECORD
  5
B98AF
102
{ACAD_REACTORS
330
444
102
}
330
444
100
AcDbXrecord
280
     1
102
ACAD_ROUNDTRIP_PRE2007_TABLESTYLE
 90
        4
 91
        0
  1

 92
        4
 93
        0
  2

 94
        4
 95
        0
  3

  0
XRECORD
  5
B98C1
102
{ACAD_REACTORS
330
B98C0
102
}
330
B98C0
100
AcDbXrecord
280
     1
102
RTVSPropertyOp0
 70
     1
102
RTVSPropertyOp1
 70
     1
102
RTVSPropertyOp2
 70
     1
102
RTVSPropertyOp3
 70
     1
102
RTVSPropertyOp4
 70
     1
102
RTVSPropertyOp5
 70
     1
102
RTVSPropertyOp6
 70
     1
102
RTVSPropertyOp7
 70
     1
102
RTVSPropertyOp8
 70
     1
102
RTVSPropertyOp9
 70
     1
102
RTVSPropertyOp10
 70
     1
102
RTVSPropertyOp11
 70
     1
102
RTVSPropertyOp12
 70
     1
102
RTVSPropertyOp13
 70
     1
102
RTVSPropertyOp14
 70
     1
102
RTVSPropertyOp15
 70
     1
102
RTVSPropertyOp16
 70
     1
102
RTVSPropertyOp17
 70
     1
102
RTVSPropertyOp18
 70
     1
102
RTVSPropertyOp19
 70
     1
102
RTVSPropertyOp20
 70
     1
102
RTVSPropertyOp21
 70
     1
102
RTVSPropertyOp22
 70
     1
102
RTVSPropertyOp23
 70
     1
102
RTVSPropertyOp24
 70
     1
102
RTVSPropertyOp25
 70
     1
102
RTVSPropertyOp26
 70
     1
102
RTVSPropertyOp27
 70
     1
  0
XRECORD
  5
B98C5
102
{ACAD_REACTORS
330
B98C4
102
}
330
B98C4
100
AcDbXrecord
280
     1
102
RTVSPropertyOp0
 70
     1
102
RTVSPropertyOp1
 70
     1
102
RTVSPropertyOp2
 70
     1
102
RTVSPropertyOp3
 70
     1
102
RTVSPropertyOp4
 70
     1
102
RTVSPropertyOp5
 70
     1
102
RTVSPropertyOp6
 70
     1
102
RTVSPropertyOp7
 70
     1
102
RTVSPropertyOp8
 70
     1
102
RTVSPropertyOp9
 70
     1
102
RTVSPropertyOp10
 70
     1
102
RTVSPropertyOp11
 70
     1
102
RTVSPropertyOp12
 70
     1
102
RTVSPropertyOp13
 70
     1
102
RTVSPropertyOp14
 70
     1
102
RTVSPropertyOp15
 70
     1
102
RTVSPropertyOp16
 70
     1
102
RTVSPropertyOp17
 70
     1
102
RTVSPropertyOp18
 70
     1
102
RTVSPropertyOp19
 70
     1
102
RTVSPropertyOp20
 70
     1
102
RTVSPropertyOp21
 70
     1
102
RTVSPropertyOp22
 70
     1
102
RTVSPropertyOp23
 70
     1
102
RTVSPropertyOp24
 70
     1
102
RTVSPropertyOp25
 70
     1
102
RTVSPropertyOp26
 70
     1
102
RTVSPropertyOp27
 70
     1
  0
XRECORD
  5
B98C3
102
{ACAD_REACTORS
330
B98C2
102
}
330
B98C2
100
AcDbXrecord
280
     1
102
RTVSPropertyOp0
 70
     1
102
RTVSPropertyOp1
 70
     1
102
RTVSPropertyOp2
 70
     1
102
RTVSPropertyOp3
 70
     1
102
RTVSPropertyOp4
 70
     1
102
RTVSPropertyOp5
 70
     1
102
RTVSPropertyOp6
 70
     1
102
RTVSPropertyOp7
 70
     1
102
RTVSPropertyOp8
 70
     1
102
RTVSPropertyOp9
 70
     1
102
RTVSPropertyOp10
 70
     1
102
RTVSPropertyOp11
 70
     1
102
RTVSPropertyOp12
 70
     1
102
RTVSPropertyOp13
 70
     1
102
RTVSPropertyOp14
 70
     1
102
RTVSPropertyOp15
 70
     1
102
RTVSPropertyOp16
 70
     1
102
RTVSPropertyOp17
 70
     1
102
RTVSPropertyOp18
 70
     1
102
RTVSPropertyOp19
 70
     1
102
RTVSPropertyOp20
 70
     1
102
RTVSPropertyOp21
 70
     1
102
RTVSPropertyOp22
 70
     1
102
RTVSPropertyOp23
 70
     1
102
RTVSPropertyOp24
 70
     1
102
RTVSPropertyOp25
 70
     1
102
RTVSPropertyOp26
 70
     1
102
RTVSPropertyOp27
 70
     1
  0
XRECORD
  5
B98BF
102
{ACAD_REACTORS
330
B98BE
102
}
330
B98BE
100
AcDbXrecord
280
     1
102
RTVSPropertyOp0
 70
     1
102
RTVSPropertyOp1
 70
     1
102
RTVSPropertyOp2
 70
     1
102
RTVSPropertyOp3
 70
     1
102
RTVSPropertyOp4
 70
     1
102
RTVSPropertyOp5
 70
     1
102
RTVSPropertyOp6
 70
     1
102
RTVSPropertyOp7
 70
     1
102
RTVSPropertyOp8
 70
     1
102
RTVSPropertyOp9
 70
     1
102
RTVSPropertyOp10
 70
     1
102
RTVSPropertyOp11
 70
     1
102
RTVSPropertyOp12
 70
     1
102
RTVSPropertyOp13
 70
     1
102
RTVSPropertyOp14
 70
     1
102
RTVSPropertyOp15
 70
     1
102
RTVSPropertyOp16
 70
     1
102
RTVSPropertyOp17
 70
     1
102
RTVSPropertyOp18
 70
     1
102
RTVSPropertyOp19
 70
     1
102
RTVSPropertyOp20
 70
     1
102
RTVSPropertyOp21
 70
     1
102
RTVSPropertyOp22
 70
     1
102
RTVSPropertyOp23
 70
     1
102
RTVSPropertyOp24
 70
     1
102
RTVSPropertyOp25
 70
     1
102
RTVSPropertyOp26
 70
     1
102
RTVSPropertyOp27
 70
     1
  0
XRECORD
  5
B98CD
102
{ACAD_REACTORS
330
B98CC
102
}
330
B98CC
100
AcDbXrecord
280
     1
102
RTVSPropertyOp0
 70
     1
102
RTVSPropertyOp1
 70
     1
102
RTVSPropertyOp2
 70
     1
102
RTVSPropertyOp3
 70
     1
102
RTVSPropertyOp4
 70
     1
102
RTVSPropertyOp5
 70
     1
102
RTVSPropertyOp6
 70
     1
102
RTVSPropertyOp7
 70
     1
102
RTVSPropertyOp8
 70
     1
102
RTVSPropertyOp9
 70
     1
102
RTVSPropertyOp10
 70
     1
102
RTVSPropertyOp11
 70
     1
102
RTVSPropertyOp12
 70
     1
102
RTVSPropertyOp13
 70
     1
102
RTVSPropertyOp14
 70
     1
102
RTVSPropertyOp15
 70
     1
102
RTVSPropertyOp16
 70
     1
102
RTVSPropertyOp17
 70
     1
102
RTVSPropertyOp18
 70
     1
102
RTVSPropertyOp19
 70
     1
102
RTVSPropertyOp20
 70
     1
102
RTVSPropertyOp21
 70
     1
102
RTVSPropertyOp22
 70
     1
102
RTVSPropertyOp23
 70
     1
102
RTVSPropertyOp24
 70
     1
102
RTVSPropertyOp25
 70
     1
102
RTVSPropertyOp26
 70
     1
102
RTVSPropertyOp27
 70
     1
  0
XRECORD
  5
B98D5
102
{ACAD_REACTORS
330
B98D4
102
}
330
B98D4
100
AcDbXrecord
280
     1
102
RTVSPropertyOp0
 70
     1
102
RTVSPropertyOp1
 70
     1
102
RTVSPropertyOp2
 70
     1
102
RTVSPropertyOp3
 70
     1
102
RTVSPropertyOp4
 70
     1
102
RTVSPropertyOp5
 70
     1
102
RTVSPropertyOp6
 70
     1
102
RTVSPropertyOp7
 70
     1
102
RTVSPropertyOp8
 70
     1
102
RTVSPropertyOp9
 70
     1
102
RTVSPropertyOp10
 70
     1
102
RTVSPropertyOp11
 70
     1
102
RTVSPropertyOp12
 70
     1
102
RTVSPropertyOp13
 70
     1
102
RTVSPropertyOp14
 70
     1
102
RTVSPropertyOp15
 70
     1
102
RTVSPropertyOp16
 70
     1
102
RTVSPropertyOp17
 70
     1
102
RTVSPropertyOp18
 70
     1
102
RTVSPropertyOp19
 70
     1
102
RTVSPropertyOp20
 70
     1
102
RTVSPropertyOp21
 70
     1
102
RTVSPropertyOp22
 70
     1
102
RTVSPropertyOp23
 70
     1
102
RTVSPropertyOp24
 70
     1
102
RTVSPropertyOp25
 70
     1
102
RTVSPropertyOp26
 70
     1
102
RTVSPropertyOp27
 70
     1
  0
XRECORD
  5
B98C7
102
{ACAD_REACTORS
330
B98C6
102
}
330
B98C6
100
AcDbXrecord
280
     1
102
RTVSPropertyOp0
 70
     1
102
RTVSPropertyOp1
 70
     1
102
RTVSPropertyOp2
 70
     1
102
RTVSPropertyOp3
 70
     1
102
RTVSPropertyOp4
 70
     1
102
RTVSPropertyOp5
 70
     1
102
RTVSPropertyOp6
 70
     1
102
RTVSPropertyOp7
 70
     1
102
RTVSPropertyOp8
 70
     1
102
RTVSPropertyOp9
 70
     1
102
RTVSPropertyOp10
 70
     1
102
RTVSPropertyOp11
 70
     1
102
RTVSPropertyOp12
 70
     1
102
RTVSPropertyOp13
 70
     1
102
RTVSPropertyOp14
 70
     1
102
RTVSPropertyOp15
 70
     1
102
RTVSPropertyOp16
 70
     1
102
RTVSPropertyOp17
 70
     1
102
RTVSPropertyOp18
 70
     1
102
RTVSPropertyOp19
 70
     1
102
RTVSPropertyOp20
 70
     1
102
RTVSPropertyOp21
 70
     1
102
RTVSPropertyOp22
 70
     1
102
RTVSPropertyOp23
 70
     1
102
RTVSPropertyOp24
 70
     1
102
RTVSPropertyOp25
 70
     1
102
RTVSPropertyOp26
 70
     1
102
RTVSPropertyOp27
 70
     1
  0
XRECORD
  5
B98CB
102
{ACAD_REACTORS
330
B98CA
102
}
330
B98CA
100
AcDbXrecord
280
     1
102
RTVSPropertyOp0
 70
     1
102
RTVSPropertyOp1
 70
     1
102
RTVSPropertyOp2
 70
     1
102
RTVSPropertyOp3
 70
     1
102
RTVSPropertyOp4
 70
     1
102
RTVSPropertyOp5
 70
     1
102
RTVSPropertyOp6
 70
     1
102
RTVSPropertyOp7
 70
     1
102
RTVSPropertyOp8
 70
     1
102
RTVSPropertyOp9
 70
     1
102
RTVSPropertyOp10
 70
     1
102
RTVSPropertyOp11
 70
     1
102
RTVSPropertyOp12
 70
     1
102
RTVSPropertyOp13
 70
     1
102
RTVSPropertyOp14
 70
     1
102
RTVSPropertyOp15
 70
     1
102
RTVSPropertyOp16
 70
     1
102
RTVSPropertyOp17
 70
     1
102
RTVSPropertyOp18
 70
     1
102
RTVSPropertyOp19
 70
     1
102
RTVSPropertyOp20
 70
     1
102
RTVSPropertyOp21
 70
     1
102
RTVSPropertyOp22
 70
     1
102
RTVSPropertyOp23
 70
     1
102
RTVSPropertyOp24
 70
     1
102
RTVSPropertyOp25
 70
     1
102
RTVSPropertyOp26
 70
     1
102
RTVSPropertyOp27
 70
     1
  0
XRECORD
  5
B98DB
102
{ACAD_REACTORS
330
B98DA
102
}
330
B98DA
100
AcDbXrecord
280
     1
102
RTVSPropertyOp0
 70
     0
102
RTVSPropertyOp1
 70
     0
102
RTVSPropertyOp2
 70
     0
102
RTVSPropertyOp3
 70
     0
102
RTVSPropertyOp4
 70
     0
102
RTVSPropertyOp5
 70
     0
102
RTVSPropertyOp6
 70
     0
102
RTVSPropertyOp7
 70
     0
102
RTVSPropertyOp8
 70
     0
102
RTVSPropertyOp9
 70
     0
102
RTVSPropertyOp10
 70
     0
102
RTVSPropertyOp11
 70
     0
102
RTVSPropertyOp12
 70
     0
102
RTVSPropertyOp13
 70
     0
102
RTVSPropertyOp14
 70
     2
102
RTVSPropertyOp15
 70
     0
102
RTVSPropertyOp16
 70
     0
102
RTVSPropertyOp17
 70
     0
102
RTVSPropertyOp18
 70
     0
102
RTVSPropertyOp19
 70
     0
102
RTVSPropertyOp20
 70
     0
102
RTVSPropertyOp21
 70
     0
102
RTVSPropertyOp22
 70
     0
102
RTVSPropertyOp23
 70
     0
102
RTVSPropertyOp24
 70
     0
102
RTVSPropertyOp25
 70
     0
102
RTVSPropertyOp26
 70
     0
102
RTVSPropertyOp27
 70
     0
  0
XRECORD
  5
B98D3
102
{ACAD_REACTORS
330
B98D2
102
}
330
B98D2
100
AcDbXrecord
280
     1
102
RTVSPropertyOp0
 70
     1
102
RTVSPropertyOp1
 70
     1
102
RTVSPropertyOp2
 70
     1
102
RTVSPropertyOp3
 70
     1
102
RTVSPropertyOp4
 70
     1
102
RTVSPropertyOp5
 70
     1
102
RTVSPropertyOp6
 70
     1
102
RTVSPropertyOp7
 70
     1
102
RTVSPropertyOp8
 70
     1
102
RTVSPropertyOp9
 70
     1
102
RTVSPropertyOp10
 70
     1
102
RTVSPropertyOp11
 70
     1
102
RTVSPropertyOp12
 70
     1
102
RTVSPropertyOp13
 70
     1
102
RTVSPropertyOp14
 70
     1
102
RTVSPropertyOp15
 70
     1
102
RTVSPropertyOp16
 70
     1
102
RTVSPropertyOp17
 70
     1
102
RTVSPropertyOp18
 70
     1
102
RTVSPropertyOp19
 70
     1
102
RTVSPropertyOp20
 70
     1
102
RTVSPropertyOp21
 70
     1
102
RTVSPropertyOp22
 70
     1
102
RTVSPropertyOp23
 70
     1
102
RTVSPropertyOp24
 70
     1
102
RTVSPropertyOp25
 70
     1
102
RTVSPropertyOp26
 70
     1
102
RTVSPropertyOp27
 70
     1
  0
XRECORD
  5
B98B7
102
{ACAD_REACTORS
330
B98B6
102
}
330
B98B6
100
AcDbXrecord
280
     1
102
RTVSPropertyOp0
 70
     1
102
RTVSPropertyOp1
 70
     1
102
RTVSPropertyOp2
 70
     1
102
RTVSPropertyOp3
 70
     1
102
RTVSPropertyOp4
 70
     1
102
RTVSPropertyOp5
 70
     1
102
RTVSPropertyOp6
 70
     1
102
RTVSPropertyOp7
 70
     1
102
RTVSPropertyOp8
 70
     1
102
RTVSPropertyOp9
 70
     1
102
RTVSPropertyOp10
 70
     1
102
RTVSPropertyOp11
 70
     1
102
RTVSPropertyOp12
 70
     1
102
RTVSPropertyOp13
 70
     1
102
RTVSPropertyOp14
 70
     1
102
RTVSPropertyOp15
 70
     1
102
RTVSPropertyOp16
 70
     1
102
RTVSPropertyOp17
 70
     1
102
RTVSPropertyOp18
 70
     1
102
RTVSPropertyOp19
 70
     1
102
RTVSPropertyOp20
 70
     1
102
RTVSPropertyOp21
 70
     1
102
RTVSPropertyOp22
 70
     1
102
RTVSPropertyOp23
 70
     1
102
RTVSPropertyOp24
 70
     1
102
RTVSPropertyOp25
 70
     1
102
RTVSPropertyOp26
 70
     1
102
RTVSPropertyOp27
 70
     1
  0
XRECORD
  5
B98B9
102
{ACAD_REACTORS
330
B98B8
102
}
330
B98B8
100
AcDbXrecord
280
     1
102
RTVSPropertyOp0
 70
     1
102
RTVSPropertyOp1
 70
     1
102
RTVSPropertyOp2
 70
     1
102
RTVSPropertyOp3
 70
     1
102
RTVSPropertyOp4
 70
     1
102
RTVSPropertyOp5
 70
     1
102
RTVSPropertyOp6
 70
     1
102
RTVSPropertyOp7
 70
     1
102
RTVSPropertyOp8
 70
     1
102
RTVSPropertyOp9
 70
     1
102
RTVSPropertyOp10
 70
     1
102
RTVSPropertyOp11
 70
     1
102
RTVSPropertyOp12
 70
     1
102
RTVSPropertyOp13
 70
     1
102
RTVSPropertyOp14
 70
     1
102
RTVSPropertyOp15
 70
     1
102
RTVSPropertyOp16
 70
     1
102
RTVSPropertyOp17
 70
     1
102
RTVSPropertyOp18
 70
     1
102
RTVSPropertyOp19
 70
     1
102
RTVSPropertyOp20
 70
     1
102
RTVSPropertyOp21
 70
     1
102
RTVSPropertyOp22
 70
     1
102
RTVSPropertyOp23
 70
     1
102
RTVSPropertyOp24
 70
     1
102
RTVSPropertyOp25
 70
     1
102
RTVSPropertyOp26
 70
     1
102
RTVSPropertyOp27
 70
     1
  0
XRECORD
  5
B98BB
102
{ACAD_REACTORS
330
B98BA
102
}
330
B98BA
100
AcDbXrecord
280
     1
102
RTVSPropertyOp0
 70
     1
102
RTVSPropertyOp1
 70
     1
102
RTVSPropertyOp2
 70
     1
102
RTVSPropertyOp3
 70
     1
102
RTVSPropertyOp4
 70
     1
102
RTVSPropertyOp5
 70
     1
102
RTVSPropertyOp6
 70
     1
102
RTVSPropertyOp7
 70
     1
102
RTVSPropertyOp8
 70
     1
102
RTVSPropertyOp9
 70
     1
102
RTVSPropertyOp10
 70
     1
102
RTVSPropertyOp11
 70
     1
102
RTVSPropertyOp12
 70
     1
102
RTVSPropertyOp13
 70
     1
102
RTVSPropertyOp14
 70
     1
102
RTVSPropertyOp15
 70
     1
102
RTVSPropertyOp16
 70
     1
102
RTVSPropertyOp17
 70
     1
102
RTVSPropertyOp18
 70
     1
102
RTVSPropertyOp19
 70
     1
102
RTVSPropertyOp20
 70
     1
102
RTVSPropertyOp21
 70
     1
102
RTVSPropertyOp22
 70
     1
102
RTVSPropertyOp23
 70
     1
102
RTVSPropertyOp24
 70
     1
102
RTVSPropertyOp25
 70
     1
102
RTVSPropertyOp26
 70
     1
102
RTVSPropertyOp27
 70
     1
  0
XRECORD
  5
B98BD
102
{ACAD_REACTORS
330
B98BC
102
}
330
B98BC
100
AcDbXrecord
280
     1
102
RTVSPropertyOp0
 70
     1
102
RTVSPropertyOp1
 70
     1
102
RTVSPropertyOp2
 70
     1
102
RTVSPropertyOp3
 70
     1
102
RTVSPropertyOp4
 70
     1
102
RTVSPropertyOp5
 70
     1
102
RTVSPropertyOp6
 70
     1
102
RTVSPropertyOp7
 70
     1
102
RTVSPropertyOp8
 70
     1
102
RTVSPropertyOp9
 70
     1
102
RTVSPropertyOp10
 70
     1
102
RTVSPropertyOp11
 70
     1
102
RTVSPropertyOp12
 70
     1
102
RTVSPropertyOp13
 70
     1
102
RTVSPropertyOp14
 70
     1
102
RTVSPropertyOp15
 70
     1
102
RTVSPropertyOp16
 70
     1
102
RTVSPropertyOp17
 70
     1
102
RTVSPropertyOp18
 70
     1
102
RTVSPropertyOp19
 70
     1
102
RTVSPropertyOp20
 70
     1
102
RTVSPropertyOp21
 70
     1
102
RTVSPropertyOp22
 70
     1
102
RTVSPropertyOp23
 70
     1
102
RTVSPropertyOp24
 70
     1
102
RTVSPropertyOp25
 70
     1
102
RTVSPropertyOp26
 70
     1
102
RTVSPropertyOp27
 70
     1
  0
XRECORD
  5
B98D7
102
{ACAD_REACTORS
330
B98D6
102
}
330
B98D6
100
AcDbXrecord
280
     1
102
RTVSPropertyOp0
 70
     0
102
RTVSPropertyOp1
 70
     0
102
RTVSPropertyOp2
 70
     0
102
RTVSPropertyOp3
 70
     0
102
RTVSPropertyOp4
 70
     0
102
RTVSPropertyOp5
 70
     0
102
RTVSPropertyOp6
 70
     0
102
RTVSPropertyOp7
 70
     0
102
RTVSPropertyOp8
 70
     0
102
RTVSPropertyOp9
 70
     0
102
RTVSPropertyOp10
 70
     0
102
RTVSPropertyOp11
 70
     0
102
RTVSPropertyOp12
 70
     0
102
RTVSPropertyOp13
 70
     0
102
RTVSPropertyOp14
 70
     2
102
RTVSPropertyOp15
 70
     0
102
RTVSPropertyOp16
 70
     0
102
RTVSPropertyOp17
 70
     0
102
RTVSPropertyOp18
 70
     0
102
RTVSPropertyOp19
 70
     0
102
RTVSPropertyOp20
 70
     0
102
RTVSPropertyOp21
 70
     0
102
RTVSPropertyOp22
 70
     0
102
RTVSPropertyOp23
 70
     0
102
RTVSPropertyOp24
 70
     0
102
RTVSPropertyOp25
 70
     0
102
RTVSPropertyOp26
 70
     0
102
RTVSPropertyOp27
 70
     0
  0
XRECORD
  5
B98D1
102
{ACAD_REACTORS
330
B98D0
102
}
330
B98D0
100
AcDbXrecord
280
     1
102
RTVSPropertyOp0
 70
     1
102
RTVSPropertyOp1
 70
     1
102
RTVSPropertyOp2
 70
     1
102
RTVSPropertyOp3
 70
     1
102
RTVSPropertyOp4
 70
     1
102
RTVSPropertyOp5
 70
     1
102
RTVSPropertyOp6
 70
     1
102
RTVSPropertyOp7
 70
     1
102
RTVSPropertyOp8
 70
     1
102
RTVSPropertyOp9
 70
     1
102
RTVSPropertyOp10
 70
     1
102
RTVSPropertyOp11
 70
     1
102
RTVSPropertyOp12
 70
     1
102
RTVSPropertyOp13
 70
     1
102
RTVSPropertyOp14
 70
     1
102
RTVSPropertyOp15
 70
     1
102
RTVSPropertyOp16
 70
     1
102
RTVSPropertyOp17
 70
     1
102
RTVSPropertyOp18
 70
     1
102
RTVSPropertyOp19
 70
     1
102
RTVSPropertyOp20
 70
     1
102
RTVSPropertyOp21
 70
     1
102
RTVSPropertyOp22
 70
     1
102
RTVSPropertyOp23
 70
     1
102
RTVSPropertyOp24
 70
     1
102
RTVSPropertyOp25
 70
     1
102
RTVSPropertyOp26
 70
     1
102
RTVSPropertyOp27
 70
     1
  0
XRECORD
  5
B98D9
102
{ACAD_REACTORS
330
B98D8
102
}
330
B98D8
100
AcDbXrecord
280
     1
102
RTVSPropertyOp0
 70
     0
102
RTVSPropertyOp1
 70
     0
102
RTVSPropertyOp2
 70
     0
102
RTVSPropertyOp3
 70
     0
102
RTVSPropertyOp4
 70
     0
102
RTVSPropertyOp5
 70
     0
102
RTVSPropertyOp6
 70
     0
102
RTVSPropertyOp7
 70
     0
102
RTVSPropertyOp8
 70
     0
102
RTVSPropertyOp9
 70
     0
102
RTVSPropertyOp10
 70
     0
102
RTVSPropertyOp11
 70
     0
102
RTVSPropertyOp12
 70
     0
102
RTVSPropertyOp13
 70
     0
102
RTVSPropertyOp14
 70
     2
102
RTVSPropertyOp15
 70
     0
102
RTVSPropertyOp16
 70
     0
102
RTVSPropertyOp17
 70
     0
102
RTVSPropertyOp18
 70
     0
102
RTVSPropertyOp19
 70
     0
102
RTVSPropertyOp20
 70
     0
102
RTVSPropertyOp21
 70
     0
102
RTVSPropertyOp22
 70
     0
102
RTVSPropertyOp23
 70
     0
102
RTVSPropertyOp24
 70
     0
102
RTVSPropertyOp25
 70
     0
102
RTVSPropertyOp26
 70
     0
102
RTVSPropertyOp27
 70
     0
  0
XRECORD
  5
B98C9
102
{ACAD_REACTORS
330
B98C8
102
}
330
B98C8
100
AcDbXrecord
280
     1
102
RTVSPropertyOp0
 70
     1
102
RTVSPropertyOp1
 70
     1
102
RTVSPropertyOp2
 70
     1
102
RTVSPropertyOp3
 70
     1
102
RTVSPropertyOp4
 70
     1
102
RTVSPropertyOp5
 70
     1
102
RTVSPropertyOp6
 70
     1
102
RTVSPropertyOp7
 70
     1
102
RTVSPropertyOp8
 70
     1
102
RTVSPropertyOp9
 70
     1
102
RTVSPropertyOp10
 70
     1
102
RTVSPropertyOp11
 70
     1
102
RTVSPropertyOp12
 70
     1
102
RTVSPropertyOp13
 70
     1
102
RTVSPropertyOp14
 70
     1
102
RTVSPropertyOp15
 70
     1
102
RTVSPropertyOp16
 70
     1
102
RTVSPropertyOp17
 70
     1
102
RTVSPropertyOp18
 70
     1
102
RTVSPropertyOp19
 70
     1
102
RTVSPropertyOp20
 70
     1
102
RTVSPropertyOp21
 70
     1
102
RTVSPropertyOp22
 70
     1
102
RTVSPropertyOp23
 70
     1
102
RTVSPropertyOp24
 70
     1
102
RTVSPropertyOp25
 70
     1
102
RTVSPropertyOp26
 70
     1
102
RTVSPropertyOp27
 70
     1
  0
XRECORD
  5
B98CF
102
{ACAD_REACTORS
330
B98CE
102
}
330
B98CE
100
AcDbXrecord
280
     1
102
RTVSPropertyOp0
 70
     1
102
RTVSPropertyOp1
 70
     1
102
RTVSPropertyOp2
 70
     1
102
RTVSPropertyOp3
 70
     1
102
RTVSPropertyOp4
 70
     1
102
RTVSPropertyOp5
 70
     1
102
RTVSPropertyOp6
 70
     1
102
RTVSPropertyOp7
 70
     1
102
RTVSPropertyOp8
 70
     1
102
RTVSPropertyOp9
 70
     1
102
RTVSPropertyOp10
 70
     1
102
RTVSPropertyOp11
 70
     1
102
RTVSPropertyOp12
 70
     1
102
RTVSPropertyOp13
 70
     1
102
RTVSPropertyOp14
 70
     1
102
RTVSPropertyOp15
 70
     1
102
RTVSPropertyOp16
 70
     1
102
RTVSPropertyOp17
 70
     1
102
RTVSPropertyOp18
 70
     1
102
RTVSPropertyOp19
 70
     1
102
RTVSPropertyOp20
 70
     1
102
RTVSPropertyOp21
 70
     1
102
RTVSPropertyOp22
 70
     1
102
RTVSPropertyOp23
 70
     1
102
RTVSPropertyOp24
 70
     1
102
RTVSPropertyOp25
 70
     1
102
RTVSPropertyOp26
 70
     1
102
RTVSPropertyOp27
 70
     1
  0
ENDSEC
  0
EOF
